%TF.GenerationSoftware,KiCad,Pcbnew,(6.0.1)*%
%TF.CreationDate,2022-08-20T19:26:56-07:00*%
%TF.ProjectId,frame_board,6672616d-655f-4626-9f61-72642e6b6963,rev?*%
%TF.SameCoordinates,Original*%
%TF.FileFunction,Copper,L1,Top*%
%TF.FilePolarity,Positive*%
%FSLAX46Y46*%
G04 Gerber Fmt 4.6, Leading zero omitted, Abs format (unit mm)*
G04 Created by KiCad (PCBNEW (6.0.1)) date 2022-08-20 19:26:56*
%MOMM*%
%LPD*%
G01*
G04 APERTURE LIST*
G04 Aperture macros list*
%AMRoundRect*
0 Rectangle with rounded corners*
0 $1 Rounding radius*
0 $2 $3 $4 $5 $6 $7 $8 $9 X,Y pos of 4 corners*
0 Add a 4 corners polygon primitive as box body*
4,1,4,$2,$3,$4,$5,$6,$7,$8,$9,$2,$3,0*
0 Add four circle primitives for the rounded corners*
1,1,$1+$1,$2,$3*
1,1,$1+$1,$4,$5*
1,1,$1+$1,$6,$7*
1,1,$1+$1,$8,$9*
0 Add four rect primitives between the rounded corners*
20,1,$1+$1,$2,$3,$4,$5,0*
20,1,$1+$1,$4,$5,$6,$7,0*
20,1,$1+$1,$6,$7,$8,$9,0*
20,1,$1+$1,$8,$9,$2,$3,0*%
G04 Aperture macros list end*
%TA.AperFunction,SMDPad,CuDef*%
%ADD10R,0.250000X0.500000*%
%TD*%
%TA.AperFunction,ComponentPad*%
%ADD11C,0.600000*%
%TD*%
%TA.AperFunction,SMDPad,CuDef*%
%ADD12R,1.600000X0.900000*%
%TD*%
%TA.AperFunction,SMDPad,CuDef*%
%ADD13R,3.500000X1.700000*%
%TD*%
%TA.AperFunction,ComponentPad*%
%ADD14RoundRect,0.250000X-0.350000X-0.625000X0.350000X-0.625000X0.350000X0.625000X-0.350000X0.625000X0*%
%TD*%
%TA.AperFunction,ComponentPad*%
%ADD15O,1.200000X1.750000*%
%TD*%
%TA.AperFunction,SMDPad,CuDef*%
%ADD16RoundRect,0.237500X-0.250000X-0.237500X0.250000X-0.237500X0.250000X0.237500X-0.250000X0.237500X0*%
%TD*%
%TA.AperFunction,SMDPad,CuDef*%
%ADD17RoundRect,0.237500X0.287500X0.237500X-0.287500X0.237500X-0.287500X-0.237500X0.287500X-0.237500X0*%
%TD*%
%TA.AperFunction,SMDPad,CuDef*%
%ADD18R,1.560000X0.650000*%
%TD*%
%TA.AperFunction,SMDPad,CuDef*%
%ADD19RoundRect,0.100000X-0.217500X-0.100000X0.217500X-0.100000X0.217500X0.100000X-0.217500X0.100000X0*%
%TD*%
%TA.AperFunction,SMDPad,CuDef*%
%ADD20R,2.800000X2.150000*%
%TD*%
%TA.AperFunction,SMDPad,CuDef*%
%ADD21RoundRect,0.237500X-0.300000X-0.237500X0.300000X-0.237500X0.300000X0.237500X-0.300000X0.237500X0*%
%TD*%
%TA.AperFunction,SMDPad,CuDef*%
%ADD22RoundRect,0.237500X-0.237500X0.300000X-0.237500X-0.300000X0.237500X-0.300000X0.237500X0.300000X0*%
%TD*%
%TA.AperFunction,SMDPad,CuDef*%
%ADD23RoundRect,0.237500X0.300000X0.237500X-0.300000X0.237500X-0.300000X-0.237500X0.300000X-0.237500X0*%
%TD*%
%TA.AperFunction,ComponentPad*%
%ADD24RoundRect,0.250000X0.350000X0.625000X-0.350000X0.625000X-0.350000X-0.625000X0.350000X-0.625000X0*%
%TD*%
%TA.AperFunction,ComponentPad*%
%ADD25R,1.700000X1.700000*%
%TD*%
%TA.AperFunction,ComponentPad*%
%ADD26O,1.700000X1.700000*%
%TD*%
%TA.AperFunction,ViaPad*%
%ADD27C,0.800000*%
%TD*%
%TA.AperFunction,Conductor*%
%ADD28C,0.500000*%
%TD*%
%TA.AperFunction,Conductor*%
%ADD29C,0.200000*%
%TD*%
%TA.AperFunction,Conductor*%
%ADD30C,0.250000*%
%TD*%
G04 APERTURE END LIST*
D10*
X159662458Y-104850000D03*
X159162458Y-104850000D03*
X158662458Y-104850000D03*
X158162458Y-104850000D03*
X158162458Y-106750000D03*
X158662458Y-106750000D03*
X159162458Y-106750000D03*
X159662458Y-106750000D03*
D11*
X158912458Y-105800000D03*
D12*
X158912458Y-105800000D03*
D13*
X195490000Y-96795000D03*
X195490000Y-99335000D03*
X195490000Y-101875000D03*
X195490000Y-104415000D03*
X195490000Y-106955000D03*
X195490000Y-109495000D03*
X195490000Y-112035000D03*
X195490000Y-114575000D03*
X195490000Y-117115000D03*
X195490000Y-119655000D03*
X195490000Y-122195000D03*
X195490000Y-124735000D03*
X195490000Y-127275000D03*
X195490000Y-129815000D03*
X195490000Y-132355000D03*
X195490000Y-134895000D03*
X195490000Y-137435000D03*
X195490000Y-139975000D03*
X195490000Y-142515000D03*
X195490000Y-145055000D03*
X175910000Y-145055000D03*
X175910000Y-142515000D03*
X175910000Y-139975000D03*
X175910000Y-137435000D03*
X175910000Y-134895000D03*
X175910000Y-132355000D03*
X175910000Y-129815000D03*
X175910000Y-127275000D03*
X175910000Y-124735000D03*
X175910000Y-122195000D03*
X175910000Y-119655000D03*
X175910000Y-117115000D03*
X175910000Y-114575000D03*
X175910000Y-112035000D03*
X175910000Y-109495000D03*
X175910000Y-106955000D03*
X175910000Y-104415000D03*
X175910000Y-101875000D03*
X175910000Y-99335000D03*
X175910000Y-96795000D03*
D14*
X166700000Y-140100000D03*
D15*
X168700000Y-140100000D03*
X170700000Y-140100000D03*
D16*
X154975000Y-134300000D03*
X156800000Y-134300000D03*
X154987500Y-132400000D03*
X156812500Y-132400000D03*
D17*
X156700000Y-128200000D03*
X154950000Y-128200000D03*
X156800000Y-130300000D03*
X155050000Y-130300000D03*
D18*
X167125000Y-105900000D03*
X167125000Y-104950000D03*
X167125000Y-104000000D03*
X164425000Y-104000000D03*
X164425000Y-105900000D03*
X164425000Y-110200000D03*
X164425000Y-108300000D03*
X167125000Y-108300000D03*
X167125000Y-109250000D03*
X167125000Y-110200000D03*
D19*
X158497458Y-103600000D03*
X159312458Y-103600000D03*
D20*
X160700000Y-128645000D03*
X160700000Y-133555000D03*
D21*
X155762500Y-106000000D03*
X154037500Y-106000000D03*
D22*
X162200000Y-104600000D03*
X162200000Y-106325000D03*
D23*
X171862500Y-107700000D03*
X170137500Y-107700000D03*
D21*
X154037500Y-104200000D03*
X155762500Y-104200000D03*
D22*
X162200000Y-108437500D03*
X162200000Y-110162500D03*
D23*
X171862500Y-104100000D03*
X170137500Y-104100000D03*
D24*
X169425000Y-101050000D03*
D15*
X167425000Y-101050000D03*
D14*
X156700000Y-140100000D03*
D15*
X158700000Y-140100000D03*
X160700000Y-140100000D03*
D25*
X155825000Y-109075000D03*
D26*
X155825000Y-111615000D03*
X155825000Y-114155000D03*
X155825000Y-116695000D03*
X155825000Y-119235000D03*
X155825000Y-121775000D03*
D24*
X159812458Y-101050000D03*
D15*
X157812458Y-101050000D03*
D27*
X192665000Y-99335000D03*
X191400000Y-99300000D03*
X155800000Y-107300000D03*
X165700000Y-107100000D03*
X160600000Y-125900000D03*
X160600000Y-107800000D03*
X172600000Y-123200000D03*
X170500000Y-121300000D03*
X164400000Y-111400000D03*
X160800000Y-104800000D03*
X160700000Y-135500000D03*
X168800000Y-109200000D03*
X168800000Y-105000000D03*
X170025000Y-109300000D03*
X170100000Y-105800000D03*
D28*
X162625000Y-105900000D02*
X162200000Y-106325000D01*
X164425000Y-105900000D02*
X162625000Y-105900000D01*
D29*
X158162458Y-105050000D02*
X158912458Y-105800000D01*
X158162458Y-104850000D02*
X158162458Y-105050000D01*
X159162458Y-106050000D02*
X158912458Y-105800000D01*
X159162458Y-106750000D02*
X159162458Y-106050000D01*
X164400000Y-110225000D02*
X164425000Y-110200000D01*
X164400000Y-111400000D02*
X164400000Y-110225000D01*
D28*
X169125000Y-110200000D02*
X170025000Y-109300000D01*
X167125000Y-110200000D02*
X169125000Y-110200000D01*
X170000000Y-105900000D02*
X170100000Y-105800000D01*
X167125000Y-105900000D02*
X170000000Y-105900000D01*
X170100000Y-109225000D02*
X170025000Y-109300000D01*
X170100000Y-107737500D02*
X170100000Y-109225000D01*
X170137500Y-107700000D02*
X170100000Y-107737500D01*
X170100000Y-107662500D02*
X170137500Y-107700000D01*
X170100000Y-105800000D02*
X170100000Y-107662500D01*
D29*
X170100000Y-105800000D02*
X170025000Y-105875000D01*
D28*
X170137500Y-105762500D02*
X170137500Y-104100000D01*
X170100000Y-105800000D02*
X170137500Y-105762500D01*
X170137500Y-103037500D02*
X170137500Y-104100000D01*
X169425000Y-102325000D02*
X170137500Y-103037500D01*
X169425000Y-101050000D02*
X169425000Y-102325000D01*
X192665000Y-99335000D02*
X194590000Y-99335000D01*
X191400000Y-99300000D02*
X191435000Y-99335000D01*
X191435000Y-99335000D02*
X192665000Y-99335000D01*
D30*
X155000000Y-130675000D02*
X154825000Y-130500000D01*
X155000000Y-132475000D02*
X155000000Y-130675000D01*
X153700000Y-133025000D02*
X154975000Y-134300000D01*
X153700000Y-129325000D02*
X153700000Y-133025000D01*
X154825000Y-128200000D02*
X153700000Y-129325000D01*
D29*
X173955000Y-132355000D02*
X176810000Y-132355000D01*
X159500000Y-131400000D02*
X173000000Y-131400000D01*
X156800000Y-134100000D02*
X159500000Y-131400000D01*
X173000000Y-131400000D02*
X173955000Y-132355000D01*
X156800000Y-134300000D02*
X156800000Y-134100000D01*
X173100000Y-130700000D02*
X173985000Y-129815000D01*
X158512500Y-130700000D02*
X173100000Y-130700000D01*
X156812500Y-132400000D02*
X158512500Y-130700000D01*
X173985000Y-129815000D02*
X176810000Y-129815000D01*
D30*
X170615000Y-142515000D02*
X176810000Y-142515000D01*
X168700000Y-140600000D02*
X170615000Y-142515000D01*
X168700000Y-140100000D02*
X168700000Y-140600000D01*
X156700000Y-140100000D02*
X156700000Y-140800000D01*
X156700000Y-140800000D02*
X160955000Y-145055000D01*
X160955000Y-145055000D02*
X176810000Y-145055000D01*
D28*
X160700000Y-135500000D02*
X160700000Y-133555000D01*
X160600000Y-125900000D02*
X160600000Y-128545000D01*
X160600000Y-128545000D02*
X160700000Y-128645000D01*
X155762500Y-106000000D02*
X155762500Y-107262500D01*
X155762500Y-107337500D02*
X155762500Y-109212500D01*
X155762500Y-105037500D02*
X155762500Y-107262500D01*
X155800000Y-107300000D02*
X155762500Y-107337500D01*
X155762500Y-107262500D02*
X155800000Y-107300000D01*
X155762500Y-105037500D02*
X155762500Y-106000000D01*
X155762500Y-104200000D02*
X155762500Y-105037500D01*
X160800000Y-104800000D02*
X160750000Y-104850000D01*
X160750000Y-104850000D02*
X159662458Y-104850000D01*
X165700000Y-107100000D02*
X163537500Y-107100000D01*
X163537500Y-107100000D02*
X162200000Y-108437500D01*
X168750000Y-109250000D02*
X167125000Y-109250000D01*
X168800000Y-109200000D02*
X168750000Y-109250000D01*
X168750000Y-104950000D02*
X167125000Y-104950000D01*
X168800000Y-105000000D02*
X168750000Y-104950000D01*
X162075000Y-106325000D02*
X160600000Y-107800000D01*
X162225000Y-106350000D02*
X162200000Y-106325000D01*
D29*
X162237500Y-110200000D02*
X164425000Y-110200000D01*
X162200000Y-110162500D02*
X162237500Y-110200000D01*
X161462500Y-110162500D02*
X159700000Y-108400000D01*
X162200000Y-110162500D02*
X161462500Y-110162500D01*
X166515000Y-117115000D02*
X176810000Y-117115000D01*
X158700000Y-109300000D02*
X166515000Y-117115000D01*
X168155000Y-119655000D02*
X176810000Y-119655000D01*
X158200000Y-109700000D02*
X168155000Y-119655000D01*
X174135000Y-124735000D02*
X176810000Y-124735000D01*
X172600000Y-123200000D02*
X174135000Y-124735000D01*
X162000000Y-121300000D02*
X170500000Y-121300000D01*
X161800000Y-121100000D02*
X162000000Y-121300000D01*
X157395000Y-116695000D02*
X161800000Y-121100000D01*
X155825000Y-116695000D02*
X157395000Y-116695000D01*
X176805000Y-122200000D02*
X176810000Y-122195000D01*
X161300000Y-122200000D02*
X176805000Y-122200000D01*
X158335000Y-119235000D02*
X161300000Y-122200000D01*
X155825000Y-119235000D02*
X158335000Y-119235000D01*
X159662458Y-106750000D02*
X159662458Y-108350000D01*
X159162458Y-103750000D02*
X159312458Y-103600000D01*
X159162458Y-104850000D02*
X159162458Y-103750000D01*
X159312458Y-102600000D02*
X159312458Y-103600000D01*
X159812458Y-102100000D02*
X159312458Y-102600000D01*
X157812458Y-101900000D02*
X157812458Y-101050000D01*
X159812458Y-101050000D02*
X159812458Y-102100000D01*
X158497458Y-103600000D02*
X158497458Y-102585000D01*
X158662458Y-103765000D02*
X158497458Y-103600000D01*
X158497458Y-102585000D02*
X157812458Y-101900000D01*
X158662458Y-104850000D02*
X158662458Y-103765000D01*
X158662458Y-106750000D02*
X158662458Y-109250000D01*
X158162458Y-106750000D02*
X158162458Y-109650000D01*
X165825000Y-104250000D02*
X166075000Y-104000000D01*
X165825000Y-105650000D02*
X165825000Y-104250000D01*
X166075000Y-105900000D02*
X165825000Y-105650000D01*
X167125000Y-105900000D02*
X166075000Y-105900000D01*
X166075000Y-104000000D02*
X167125000Y-104000000D01*
X165925000Y-108300000D02*
X167125000Y-108300000D01*
X165725000Y-110000000D02*
X165725000Y-108500000D01*
X165925000Y-110200000D02*
X165725000Y-110000000D01*
X167125000Y-110200000D02*
X165925000Y-110200000D01*
X165725000Y-108500000D02*
X165925000Y-108300000D01*
%TA.AperFunction,Conductor*%
G36*
X195776000Y-94716517D02*
G01*
X195790158Y-94717318D01*
X195818384Y-94720516D01*
X195818387Y-94720516D01*
X195827302Y-94721526D01*
X195836144Y-94719993D01*
X195843152Y-94718778D01*
X195867895Y-94716966D01*
X195975423Y-94719713D01*
X196079114Y-94722363D01*
X196095958Y-94723930D01*
X196330285Y-94761724D01*
X196346769Y-94765533D01*
X196573928Y-94834381D01*
X196589752Y-94840364D01*
X196619390Y-94853908D01*
X196805636Y-94939021D01*
X196820512Y-94947067D01*
X197021239Y-95073759D01*
X197034907Y-95083729D01*
X197190294Y-95213919D01*
X197229664Y-95272999D01*
X197230843Y-95343986D01*
X197193456Y-95404341D01*
X197129374Y-95434903D01*
X197109374Y-95436500D01*
X193691866Y-95436500D01*
X193629684Y-95443255D01*
X193493295Y-95494385D01*
X193376739Y-95581739D01*
X193289385Y-95698295D01*
X193238255Y-95834684D01*
X193231500Y-95896866D01*
X193231500Y-97693134D01*
X193238255Y-97755316D01*
X193289385Y-97891705D01*
X193294771Y-97898891D01*
X193362630Y-97989435D01*
X193387478Y-98055941D01*
X193372425Y-98125324D01*
X193362632Y-98140562D01*
X193289385Y-98238295D01*
X193238255Y-98374684D01*
X193237402Y-98382540D01*
X193234008Y-98413776D01*
X193206765Y-98479338D01*
X193148402Y-98519764D01*
X193077448Y-98522218D01*
X193057501Y-98515276D01*
X192947288Y-98466206D01*
X192825331Y-98440283D01*
X192766944Y-98427872D01*
X192766939Y-98427872D01*
X192760487Y-98426500D01*
X192569513Y-98426500D01*
X192563061Y-98427872D01*
X192563056Y-98427872D01*
X192504669Y-98440283D01*
X192382712Y-98466206D01*
X192376682Y-98468891D01*
X192376681Y-98468891D01*
X192214278Y-98541197D01*
X192214276Y-98541198D01*
X192208248Y-98543882D01*
X192202909Y-98547761D01*
X192202902Y-98547765D01*
X192196472Y-98552437D01*
X192122413Y-98576500D01*
X191990760Y-98576500D01*
X191916699Y-98552436D01*
X191862094Y-98512763D01*
X191862093Y-98512762D01*
X191856752Y-98508882D01*
X191850724Y-98506198D01*
X191850722Y-98506197D01*
X191688319Y-98433891D01*
X191688318Y-98433891D01*
X191682288Y-98431206D01*
X191588887Y-98411353D01*
X191501944Y-98392872D01*
X191501939Y-98392872D01*
X191495487Y-98391500D01*
X191304513Y-98391500D01*
X191298061Y-98392872D01*
X191298056Y-98392872D01*
X191211113Y-98411353D01*
X191117712Y-98431206D01*
X191111682Y-98433891D01*
X191111681Y-98433891D01*
X190949278Y-98506197D01*
X190949276Y-98506198D01*
X190943248Y-98508882D01*
X190937907Y-98512762D01*
X190937906Y-98512763D01*
X190898770Y-98541197D01*
X190788747Y-98621134D01*
X190784326Y-98626044D01*
X190784325Y-98626045D01*
X190706654Y-98712308D01*
X190660960Y-98763056D01*
X190565473Y-98928444D01*
X190506458Y-99110072D01*
X190486496Y-99300000D01*
X190506458Y-99489928D01*
X190565473Y-99671556D01*
X190568776Y-99677278D01*
X190568777Y-99677279D01*
X190579212Y-99695352D01*
X190660960Y-99836944D01*
X190665378Y-99841851D01*
X190665379Y-99841852D01*
X190758685Y-99945479D01*
X190788747Y-99978866D01*
X190943248Y-100091118D01*
X190949276Y-100093802D01*
X190949278Y-100093803D01*
X191111681Y-100166109D01*
X191117712Y-100168794D01*
X191211112Y-100188647D01*
X191298056Y-100207128D01*
X191298061Y-100207128D01*
X191304513Y-100208500D01*
X191495487Y-100208500D01*
X191501939Y-100207128D01*
X191501944Y-100207128D01*
X191588888Y-100188647D01*
X191682288Y-100168794D01*
X191713886Y-100154726D01*
X191826936Y-100104393D01*
X191878185Y-100093500D01*
X192122413Y-100093500D01*
X192196472Y-100117563D01*
X192202902Y-100122235D01*
X192202909Y-100122239D01*
X192208248Y-100126118D01*
X192214276Y-100128802D01*
X192214278Y-100128803D01*
X192318933Y-100175398D01*
X192382712Y-100203794D01*
X192476112Y-100223647D01*
X192563056Y-100242128D01*
X192563061Y-100242128D01*
X192569513Y-100243500D01*
X192760487Y-100243500D01*
X192766939Y-100242128D01*
X192766944Y-100242128D01*
X192853888Y-100223647D01*
X192947288Y-100203794D01*
X193057498Y-100154726D01*
X193127863Y-100145292D01*
X193192160Y-100175398D01*
X193229974Y-100235487D01*
X193234008Y-100256224D01*
X193238255Y-100295316D01*
X193289385Y-100431705D01*
X193314059Y-100464627D01*
X193362630Y-100529435D01*
X193387478Y-100595941D01*
X193372425Y-100665324D01*
X193362632Y-100680562D01*
X193289385Y-100778295D01*
X193238255Y-100914684D01*
X193231500Y-100976866D01*
X193231500Y-102773134D01*
X193238255Y-102835316D01*
X193289385Y-102971705D01*
X193356649Y-103061455D01*
X193362630Y-103069435D01*
X193387478Y-103135941D01*
X193372425Y-103205324D01*
X193362632Y-103220562D01*
X193289385Y-103318295D01*
X193238255Y-103454684D01*
X193231500Y-103516866D01*
X193231500Y-105313134D01*
X193238255Y-105375316D01*
X193289385Y-105511705D01*
X193361929Y-105608500D01*
X193362630Y-105609435D01*
X193387478Y-105675941D01*
X193372425Y-105745324D01*
X193362632Y-105760562D01*
X193289385Y-105858295D01*
X193238255Y-105994684D01*
X193231500Y-106056866D01*
X193231500Y-107853134D01*
X193238255Y-107915316D01*
X193289385Y-108051705D01*
X193342473Y-108122540D01*
X193362630Y-108149435D01*
X193387478Y-108215941D01*
X193372425Y-108285324D01*
X193362632Y-108300562D01*
X193289385Y-108398295D01*
X193238255Y-108534684D01*
X193231500Y-108596866D01*
X193231500Y-110393134D01*
X193238255Y-110455316D01*
X193289385Y-110591705D01*
X193339429Y-110658478D01*
X193362630Y-110689435D01*
X193387478Y-110755941D01*
X193372425Y-110825324D01*
X193362632Y-110840562D01*
X193289385Y-110938295D01*
X193238255Y-111074684D01*
X193231500Y-111136866D01*
X193231500Y-112933134D01*
X193238255Y-112995316D01*
X193289385Y-113131705D01*
X193294771Y-113138891D01*
X193362630Y-113229435D01*
X193387478Y-113295941D01*
X193372425Y-113365324D01*
X193362632Y-113380562D01*
X193289385Y-113478295D01*
X193238255Y-113614684D01*
X193231500Y-113676866D01*
X193231500Y-115473134D01*
X193238255Y-115535316D01*
X193289385Y-115671705D01*
X193357998Y-115763255D01*
X193362630Y-115769435D01*
X193387478Y-115835941D01*
X193372425Y-115905324D01*
X193362632Y-115920562D01*
X193289385Y-116018295D01*
X193238255Y-116154684D01*
X193231500Y-116216866D01*
X193231500Y-118013134D01*
X193238255Y-118075316D01*
X193289385Y-118211705D01*
X193362630Y-118309435D01*
X193387478Y-118375941D01*
X193372425Y-118445324D01*
X193362632Y-118460562D01*
X193289385Y-118558295D01*
X193238255Y-118694684D01*
X193231500Y-118756866D01*
X193231500Y-120553134D01*
X193238255Y-120615316D01*
X193289385Y-120751705D01*
X193362630Y-120849435D01*
X193387478Y-120915941D01*
X193372425Y-120985324D01*
X193362632Y-121000562D01*
X193289385Y-121098295D01*
X193238255Y-121234684D01*
X193231500Y-121296866D01*
X193231500Y-123093134D01*
X193238255Y-123155316D01*
X193289385Y-123291705D01*
X193362630Y-123389435D01*
X193387478Y-123455941D01*
X193372425Y-123525324D01*
X193362632Y-123540562D01*
X193289385Y-123638295D01*
X193238255Y-123774684D01*
X193231500Y-123836866D01*
X193231500Y-125633134D01*
X193238255Y-125695316D01*
X193289385Y-125831705D01*
X193345490Y-125906565D01*
X193362630Y-125929435D01*
X193387478Y-125995941D01*
X193372425Y-126065324D01*
X193362632Y-126080562D01*
X193289385Y-126178295D01*
X193238255Y-126314684D01*
X193231500Y-126376866D01*
X193231500Y-128173134D01*
X193238255Y-128235316D01*
X193289385Y-128371705D01*
X193362630Y-128469435D01*
X193387478Y-128535941D01*
X193372425Y-128605324D01*
X193362632Y-128620562D01*
X193289385Y-128718295D01*
X193238255Y-128854684D01*
X193231500Y-128916866D01*
X193231500Y-130713134D01*
X193238255Y-130775316D01*
X193289385Y-130911705D01*
X193294771Y-130918891D01*
X193362630Y-131009435D01*
X193387478Y-131075941D01*
X193372425Y-131145324D01*
X193362632Y-131160562D01*
X193289385Y-131258295D01*
X193238255Y-131394684D01*
X193231500Y-131456866D01*
X193231500Y-133253134D01*
X193238255Y-133315316D01*
X193289385Y-133451705D01*
X193309891Y-133479066D01*
X193362630Y-133549435D01*
X193387478Y-133615941D01*
X193372425Y-133685324D01*
X193362632Y-133700562D01*
X193289385Y-133798295D01*
X193238255Y-133934684D01*
X193231500Y-133996866D01*
X193231500Y-135793134D01*
X193238255Y-135855316D01*
X193289385Y-135991705D01*
X193362630Y-136089435D01*
X193387478Y-136155941D01*
X193372425Y-136225324D01*
X193362632Y-136240562D01*
X193289385Y-136338295D01*
X193238255Y-136474684D01*
X193231500Y-136536866D01*
X193231500Y-138333134D01*
X193238255Y-138395316D01*
X193289385Y-138531705D01*
X193294771Y-138538891D01*
X193362630Y-138629435D01*
X193387478Y-138695941D01*
X193372425Y-138765324D01*
X193362632Y-138780562D01*
X193289385Y-138878295D01*
X193238255Y-139014684D01*
X193231500Y-139076866D01*
X193231500Y-140873134D01*
X193238255Y-140935316D01*
X193289385Y-141071705D01*
X193357998Y-141163255D01*
X193362630Y-141169435D01*
X193387478Y-141235941D01*
X193372425Y-141305324D01*
X193362632Y-141320562D01*
X193289385Y-141418295D01*
X193238255Y-141554684D01*
X193231500Y-141616866D01*
X193231500Y-143413134D01*
X193238255Y-143475316D01*
X193289385Y-143611705D01*
X193294771Y-143618891D01*
X193362630Y-143709435D01*
X193387478Y-143775941D01*
X193372425Y-143845324D01*
X193362632Y-143860562D01*
X193289385Y-143958295D01*
X193238255Y-144094684D01*
X193231500Y-144156866D01*
X193231500Y-145953134D01*
X193238255Y-146015316D01*
X193289385Y-146151705D01*
X193376739Y-146268261D01*
X193493295Y-146355615D01*
X193499938Y-146358105D01*
X193549416Y-146407696D01*
X193564428Y-146477088D01*
X193539541Y-146543580D01*
X193482656Y-146586061D01*
X193438755Y-146593955D01*
X177962669Y-146593169D01*
X177894550Y-146573163D01*
X177848060Y-146519505D01*
X177837959Y-146449231D01*
X177867456Y-146384652D01*
X177900621Y-146357896D01*
X177906705Y-146355615D01*
X178023261Y-146268261D01*
X178110615Y-146151705D01*
X178161745Y-146015316D01*
X178168500Y-145953134D01*
X178168500Y-144156866D01*
X178161745Y-144094684D01*
X178110615Y-143958295D01*
X178037370Y-143860564D01*
X178012522Y-143794059D01*
X178027575Y-143724676D01*
X178037370Y-143709435D01*
X178105229Y-143618891D01*
X178110615Y-143611705D01*
X178161745Y-143475316D01*
X178168500Y-143413134D01*
X178168500Y-141616866D01*
X178161745Y-141554684D01*
X178110615Y-141418295D01*
X178040173Y-141324305D01*
X178037058Y-141320148D01*
X178012210Y-141253642D01*
X178027263Y-141184259D01*
X178037058Y-141169018D01*
X178104786Y-141078649D01*
X178113324Y-141063054D01*
X178158478Y-140942606D01*
X178162105Y-140927351D01*
X178167631Y-140876486D01*
X178168000Y-140869672D01*
X178168000Y-140247115D01*
X178163525Y-140231876D01*
X178162135Y-140230671D01*
X178154452Y-140229000D01*
X173670116Y-140229000D01*
X173654877Y-140233475D01*
X173653672Y-140234865D01*
X173652001Y-140242548D01*
X173652001Y-140869669D01*
X173652371Y-140876490D01*
X173657895Y-140927352D01*
X173661521Y-140942604D01*
X173706676Y-141063054D01*
X173715214Y-141078649D01*
X173782942Y-141169018D01*
X173807790Y-141235525D01*
X173792737Y-141304907D01*
X173782942Y-141320148D01*
X173779827Y-141324305D01*
X173709385Y-141418295D01*
X173658255Y-141554684D01*
X173651500Y-141616866D01*
X173651500Y-141755500D01*
X173631498Y-141823621D01*
X173577842Y-141870114D01*
X173525500Y-141881500D01*
X170929594Y-141881500D01*
X170861473Y-141861498D01*
X170840499Y-141844595D01*
X170482905Y-141487001D01*
X170454729Y-141435402D01*
X170954000Y-141435402D01*
X170957973Y-141448933D01*
X170967399Y-141450288D01*
X171056537Y-141428806D01*
X171067832Y-141424917D01*
X171249382Y-141342371D01*
X171259724Y-141336424D01*
X171422397Y-141221032D01*
X171431425Y-141213239D01*
X171569342Y-141069169D01*
X171576738Y-141059804D01*
X171684921Y-140892259D01*
X171690417Y-140881655D01*
X171764961Y-140696688D01*
X171768355Y-140685230D01*
X171806857Y-140488072D01*
X171807934Y-140479209D01*
X171808000Y-140476500D01*
X171808000Y-140372115D01*
X171803525Y-140356876D01*
X171802135Y-140355671D01*
X171794452Y-140354000D01*
X170972115Y-140354000D01*
X170956876Y-140358475D01*
X170955671Y-140359865D01*
X170954000Y-140367548D01*
X170954000Y-141435402D01*
X170454729Y-141435402D01*
X170448879Y-141424689D01*
X170446000Y-141397906D01*
X170446000Y-139827885D01*
X170954000Y-139827885D01*
X170958475Y-139843124D01*
X170959865Y-139844329D01*
X170967548Y-139846000D01*
X171789885Y-139846000D01*
X171805124Y-139841525D01*
X171806329Y-139840135D01*
X171808000Y-139832452D01*
X171808000Y-139775168D01*
X171807715Y-139769192D01*
X171793529Y-139620506D01*
X171791270Y-139608772D01*
X171735128Y-139417401D01*
X171730698Y-139406325D01*
X171639381Y-139229022D01*
X171632931Y-139218976D01*
X171509738Y-139062143D01*
X171501501Y-139053494D01*
X171350877Y-138922788D01*
X171341153Y-138915853D01*
X171168533Y-138815990D01*
X171157669Y-138811016D01*
X170969273Y-138745593D01*
X170968284Y-138745352D01*
X170957992Y-138746820D01*
X170954000Y-138760385D01*
X170954000Y-139827885D01*
X170446000Y-139827885D01*
X170446000Y-138764598D01*
X170442027Y-138751067D01*
X170432601Y-138749712D01*
X170343463Y-138771194D01*
X170332168Y-138775083D01*
X170150618Y-138857629D01*
X170140276Y-138863576D01*
X169977603Y-138978968D01*
X169968575Y-138986761D01*
X169830658Y-139130831D01*
X169823259Y-139140200D01*
X169805582Y-139167577D01*
X169751828Y-139213955D01*
X169681532Y-139223909D01*
X169617015Y-139194278D01*
X169600644Y-139177063D01*
X169593193Y-139167577D01*
X169506396Y-139057080D01*
X169501865Y-139053148D01*
X169501862Y-139053145D01*
X169351167Y-138922379D01*
X169346637Y-138918448D01*
X169341451Y-138915448D01*
X169341447Y-138915445D01*
X169168742Y-138815533D01*
X169163546Y-138812527D01*
X168963729Y-138743139D01*
X168957794Y-138742278D01*
X168957792Y-138742278D01*
X168760336Y-138713648D01*
X168760333Y-138713648D01*
X168754396Y-138712787D01*
X168543101Y-138722567D01*
X168430466Y-138749712D01*
X168343299Y-138770719D01*
X168343297Y-138770720D01*
X168337466Y-138772125D01*
X168332008Y-138774607D01*
X168332004Y-138774608D01*
X168240990Y-138815990D01*
X168144913Y-138859674D01*
X167972389Y-138982054D01*
X167968247Y-138986381D01*
X167968241Y-138986386D01*
X167881194Y-139077317D01*
X167819639Y-139112694D01*
X167748730Y-139109175D01*
X167690979Y-139067879D01*
X167683032Y-139056491D01*
X167648478Y-139000652D01*
X167523303Y-138875695D01*
X167515863Y-138871109D01*
X167378968Y-138786725D01*
X167378966Y-138786724D01*
X167372738Y-138782885D01*
X167264005Y-138746820D01*
X167211389Y-138729368D01*
X167211387Y-138729368D01*
X167204861Y-138727203D01*
X167198025Y-138726503D01*
X167198022Y-138726502D01*
X167154969Y-138722091D01*
X167100400Y-138716500D01*
X166299600Y-138716500D01*
X166296354Y-138716837D01*
X166296350Y-138716837D01*
X166200692Y-138726762D01*
X166200688Y-138726763D01*
X166193834Y-138727474D01*
X166187298Y-138729655D01*
X166187296Y-138729655D01*
X166082560Y-138764598D01*
X166026054Y-138783450D01*
X165875652Y-138876522D01*
X165750695Y-139001697D01*
X165746855Y-139007927D01*
X165746854Y-139007928D01*
X165702254Y-139080283D01*
X165657885Y-139152262D01*
X165602203Y-139320139D01*
X165591500Y-139424600D01*
X165591500Y-140775400D01*
X165591837Y-140778646D01*
X165591837Y-140778650D01*
X165601641Y-140873134D01*
X165602474Y-140881166D01*
X165604655Y-140887702D01*
X165604655Y-140887704D01*
X165617883Y-140927352D01*
X165658450Y-141048946D01*
X165751522Y-141199348D01*
X165876697Y-141324305D01*
X165882927Y-141328145D01*
X165882928Y-141328146D01*
X166020090Y-141412694D01*
X166027262Y-141417115D01*
X166063942Y-141429281D01*
X166188611Y-141470632D01*
X166188613Y-141470632D01*
X166195139Y-141472797D01*
X166201975Y-141473497D01*
X166201978Y-141473498D01*
X166240386Y-141477433D01*
X166299600Y-141483500D01*
X167100400Y-141483500D01*
X167103646Y-141483163D01*
X167103650Y-141483163D01*
X167199308Y-141473238D01*
X167199312Y-141473237D01*
X167206166Y-141472526D01*
X167212702Y-141470345D01*
X167212704Y-141470345D01*
X167348867Y-141424917D01*
X167373946Y-141416550D01*
X167524348Y-141323478D01*
X167649305Y-141198303D01*
X167681075Y-141146764D01*
X167733846Y-141099271D01*
X167803918Y-141087847D01*
X167869042Y-141116121D01*
X167887418Y-141135045D01*
X167893604Y-141142920D01*
X167898135Y-141146852D01*
X167898138Y-141146855D01*
X168021200Y-141253642D01*
X168053363Y-141281552D01*
X168058549Y-141284552D01*
X168058553Y-141284555D01*
X168154957Y-141340326D01*
X168236454Y-141387473D01*
X168436271Y-141456861D01*
X168442206Y-141457722D01*
X168442208Y-141457722D01*
X168639664Y-141486352D01*
X168639667Y-141486352D01*
X168645604Y-141487213D01*
X168646214Y-141487185D01*
X168711560Y-141509893D01*
X168727439Y-141523343D01*
X170111348Y-142907253D01*
X170118888Y-142915539D01*
X170123000Y-142922018D01*
X170128777Y-142927443D01*
X170172651Y-142968643D01*
X170175493Y-142971398D01*
X170195230Y-142991135D01*
X170198427Y-142993615D01*
X170207447Y-143001318D01*
X170239679Y-143031586D01*
X170246625Y-143035405D01*
X170246628Y-143035407D01*
X170257434Y-143041348D01*
X170273953Y-143052199D01*
X170289959Y-143064614D01*
X170297228Y-143067759D01*
X170297232Y-143067762D01*
X170330537Y-143082174D01*
X170341187Y-143087391D01*
X170379940Y-143108695D01*
X170387615Y-143110666D01*
X170387616Y-143110666D01*
X170399562Y-143113733D01*
X170418267Y-143120137D01*
X170436855Y-143128181D01*
X170444678Y-143129420D01*
X170444688Y-143129423D01*
X170480524Y-143135099D01*
X170492144Y-143137505D01*
X170527289Y-143146528D01*
X170534970Y-143148500D01*
X170555224Y-143148500D01*
X170574934Y-143150051D01*
X170594943Y-143153220D01*
X170602835Y-143152474D01*
X170638961Y-143149059D01*
X170650819Y-143148500D01*
X173525500Y-143148500D01*
X173593621Y-143168502D01*
X173640114Y-143222158D01*
X173651500Y-143274500D01*
X173651500Y-143413134D01*
X173658255Y-143475316D01*
X173709385Y-143611705D01*
X173714771Y-143618891D01*
X173782630Y-143709435D01*
X173807478Y-143775941D01*
X173792425Y-143845324D01*
X173782632Y-143860562D01*
X173709385Y-143958295D01*
X173658255Y-144094684D01*
X173651500Y-144156866D01*
X173651500Y-144295500D01*
X173631498Y-144363621D01*
X173577842Y-144410114D01*
X173525500Y-144421500D01*
X161269594Y-144421500D01*
X161201473Y-144401498D01*
X161180499Y-144384595D01*
X158489868Y-141693963D01*
X158455842Y-141631651D01*
X158460907Y-141560835D01*
X158503454Y-141504000D01*
X158569974Y-141479189D01*
X158597043Y-141480172D01*
X158639664Y-141486352D01*
X158639667Y-141486352D01*
X158645604Y-141487213D01*
X158856899Y-141477433D01*
X158988077Y-141445819D01*
X159056701Y-141429281D01*
X159056703Y-141429280D01*
X159062534Y-141427875D01*
X159067992Y-141425393D01*
X159067996Y-141425392D01*
X159183041Y-141373084D01*
X159255087Y-141340326D01*
X159427611Y-141217946D01*
X159573881Y-141065150D01*
X159577130Y-141060119D01*
X159577135Y-141060112D01*
X159595033Y-141032393D01*
X159648789Y-140986016D01*
X159719085Y-140976063D01*
X159783602Y-141005696D01*
X159799970Y-141022909D01*
X159890262Y-141137857D01*
X159898499Y-141146506D01*
X160049123Y-141277212D01*
X160058847Y-141284147D01*
X160231467Y-141384010D01*
X160242331Y-141388984D01*
X160430727Y-141454407D01*
X160431716Y-141454648D01*
X160442008Y-141453180D01*
X160446000Y-141439615D01*
X160446000Y-141435402D01*
X160954000Y-141435402D01*
X160957973Y-141448933D01*
X160967399Y-141450288D01*
X161056537Y-141428806D01*
X161067832Y-141424917D01*
X161249382Y-141342371D01*
X161259724Y-141336424D01*
X161422397Y-141221032D01*
X161431425Y-141213239D01*
X161569342Y-141069169D01*
X161576738Y-141059804D01*
X161684921Y-140892259D01*
X161690417Y-140881655D01*
X161764961Y-140696688D01*
X161768355Y-140685230D01*
X161806857Y-140488072D01*
X161807934Y-140479209D01*
X161808000Y-140476500D01*
X161808000Y-140372115D01*
X161803525Y-140356876D01*
X161802135Y-140355671D01*
X161794452Y-140354000D01*
X160972115Y-140354000D01*
X160956876Y-140358475D01*
X160955671Y-140359865D01*
X160954000Y-140367548D01*
X160954000Y-141435402D01*
X160446000Y-141435402D01*
X160446000Y-139827885D01*
X160954000Y-139827885D01*
X160958475Y-139843124D01*
X160959865Y-139844329D01*
X160967548Y-139846000D01*
X161789885Y-139846000D01*
X161805124Y-139841525D01*
X161806329Y-139840135D01*
X161808000Y-139832452D01*
X161808000Y-139775168D01*
X161807715Y-139769192D01*
X161793529Y-139620506D01*
X161791270Y-139608772D01*
X161735128Y-139417401D01*
X161730698Y-139406325D01*
X161639381Y-139229022D01*
X161632931Y-139218976D01*
X161509738Y-139062143D01*
X161501501Y-139053494D01*
X161350877Y-138922788D01*
X161341153Y-138915853D01*
X161168533Y-138815990D01*
X161157669Y-138811016D01*
X160969273Y-138745593D01*
X160968284Y-138745352D01*
X160957992Y-138746820D01*
X160954000Y-138760385D01*
X160954000Y-139827885D01*
X160446000Y-139827885D01*
X160446000Y-138764598D01*
X160442027Y-138751067D01*
X160432601Y-138749712D01*
X160343463Y-138771194D01*
X160332168Y-138775083D01*
X160150618Y-138857629D01*
X160140276Y-138863576D01*
X159977603Y-138978968D01*
X159968575Y-138986761D01*
X159830658Y-139130831D01*
X159823259Y-139140200D01*
X159805582Y-139167577D01*
X159751828Y-139213955D01*
X159681532Y-139223909D01*
X159617015Y-139194278D01*
X159600644Y-139177063D01*
X159593193Y-139167577D01*
X159506396Y-139057080D01*
X159501865Y-139053148D01*
X159501862Y-139053145D01*
X159351167Y-138922379D01*
X159346637Y-138918448D01*
X159341451Y-138915448D01*
X159341447Y-138915445D01*
X159168742Y-138815533D01*
X159163546Y-138812527D01*
X158963729Y-138743139D01*
X158957794Y-138742278D01*
X158957792Y-138742278D01*
X158760336Y-138713648D01*
X158760333Y-138713648D01*
X158754396Y-138712787D01*
X158543101Y-138722567D01*
X158430466Y-138749712D01*
X158343299Y-138770719D01*
X158343297Y-138770720D01*
X158337466Y-138772125D01*
X158332008Y-138774607D01*
X158332004Y-138774608D01*
X158240990Y-138815990D01*
X158144913Y-138859674D01*
X157972389Y-138982054D01*
X157968247Y-138986381D01*
X157968241Y-138986386D01*
X157881194Y-139077317D01*
X157819639Y-139112694D01*
X157748730Y-139109175D01*
X157690979Y-139067879D01*
X157683032Y-139056491D01*
X157648478Y-139000652D01*
X157523303Y-138875695D01*
X157515863Y-138871109D01*
X157378968Y-138786725D01*
X157378966Y-138786724D01*
X157372738Y-138782885D01*
X157264005Y-138746820D01*
X157211389Y-138729368D01*
X157211387Y-138729368D01*
X157204861Y-138727203D01*
X157198025Y-138726503D01*
X157198022Y-138726502D01*
X157154969Y-138722091D01*
X157100400Y-138716500D01*
X156299600Y-138716500D01*
X156296354Y-138716837D01*
X156296350Y-138716837D01*
X156200692Y-138726762D01*
X156200688Y-138726763D01*
X156193834Y-138727474D01*
X156187298Y-138729655D01*
X156187296Y-138729655D01*
X156082560Y-138764598D01*
X156026054Y-138783450D01*
X155875652Y-138876522D01*
X155750695Y-139001697D01*
X155746855Y-139007927D01*
X155746854Y-139007928D01*
X155702254Y-139080283D01*
X155657885Y-139152262D01*
X155602203Y-139320139D01*
X155591500Y-139424600D01*
X155591500Y-140775400D01*
X155591837Y-140778646D01*
X155591837Y-140778650D01*
X155601641Y-140873134D01*
X155602474Y-140881166D01*
X155604655Y-140887702D01*
X155604655Y-140887704D01*
X155617883Y-140927352D01*
X155658450Y-141048946D01*
X155751522Y-141199348D01*
X155876697Y-141324305D01*
X155882927Y-141328145D01*
X155882928Y-141328146D01*
X156020090Y-141412694D01*
X156027262Y-141417115D01*
X156063942Y-141429281D01*
X156188611Y-141470632D01*
X156188613Y-141470632D01*
X156195139Y-141472797D01*
X156201975Y-141473497D01*
X156201978Y-141473498D01*
X156240386Y-141477433D01*
X156299600Y-141483500D01*
X156435406Y-141483500D01*
X156503527Y-141503502D01*
X156524501Y-141520405D01*
X160451343Y-145447247D01*
X160458887Y-145455537D01*
X160463000Y-145462018D01*
X160468777Y-145467443D01*
X160512667Y-145508658D01*
X160515509Y-145511413D01*
X160535231Y-145531135D01*
X160538373Y-145533572D01*
X160538433Y-145533619D01*
X160547445Y-145541317D01*
X160573036Y-145565347D01*
X160579679Y-145571586D01*
X160586622Y-145575403D01*
X160597431Y-145581345D01*
X160613953Y-145592198D01*
X160629959Y-145604614D01*
X160637237Y-145607764D01*
X160637238Y-145607764D01*
X160670537Y-145622174D01*
X160681187Y-145627391D01*
X160719940Y-145648695D01*
X160727615Y-145650666D01*
X160727616Y-145650666D01*
X160739562Y-145653733D01*
X160758267Y-145660137D01*
X160776855Y-145668181D01*
X160784678Y-145669420D01*
X160784688Y-145669423D01*
X160820524Y-145675099D01*
X160832144Y-145677505D01*
X160867289Y-145686528D01*
X160874970Y-145688500D01*
X160895224Y-145688500D01*
X160914934Y-145690051D01*
X160934943Y-145693220D01*
X160942835Y-145692474D01*
X160978961Y-145689059D01*
X160990819Y-145688500D01*
X173525500Y-145688500D01*
X173593621Y-145708502D01*
X173640114Y-145762158D01*
X173651500Y-145814500D01*
X173651500Y-145953134D01*
X173658255Y-146015316D01*
X173709385Y-146151705D01*
X173796739Y-146268261D01*
X173913295Y-146355615D01*
X173918621Y-146357612D01*
X173967598Y-146406698D01*
X173982612Y-146476089D01*
X173957727Y-146542582D01*
X173900843Y-146585065D01*
X173856937Y-146592960D01*
X154936173Y-146591999D01*
X154921996Y-146591198D01*
X154893820Y-146588006D01*
X154893818Y-146588006D01*
X154884902Y-146586996D01*
X154876060Y-146588529D01*
X154869052Y-146589744D01*
X154844309Y-146591556D01*
X154736781Y-146588809D01*
X154633090Y-146586159D01*
X154616246Y-146584592D01*
X154381919Y-146546798D01*
X154365435Y-146542989D01*
X154138276Y-146474141D01*
X154122452Y-146468158D01*
X153939721Y-146384652D01*
X153906568Y-146369501D01*
X153891690Y-146361454D01*
X153732663Y-146261081D01*
X153690963Y-146234762D01*
X153677297Y-146224793D01*
X153495356Y-146072355D01*
X153483152Y-146060650D01*
X153323258Y-145885197D01*
X153312745Y-145871978D01*
X153177801Y-145676690D01*
X153169143Y-145662164D01*
X153061579Y-145450564D01*
X153054943Y-145435002D01*
X152976700Y-145210913D01*
X152972208Y-145194602D01*
X152924691Y-144962052D01*
X152922424Y-144945287D01*
X152908720Y-144741625D01*
X152909665Y-144719989D01*
X152909724Y-144715142D01*
X152911106Y-144706268D01*
X152906984Y-144674751D01*
X152905921Y-144658415D01*
X152905924Y-144604110D01*
X152906344Y-134884548D01*
X152906409Y-133395572D01*
X152926414Y-133327452D01*
X152980072Y-133280961D01*
X153050346Y-133270860D01*
X153114926Y-133300356D01*
X153139920Y-133331283D01*
X153140448Y-133332617D01*
X153145108Y-133339031D01*
X153166436Y-133368387D01*
X153172952Y-133378307D01*
X153183163Y-133395572D01*
X153195458Y-133416362D01*
X153209779Y-133430683D01*
X153222619Y-133445716D01*
X153234528Y-133462107D01*
X153240634Y-133467158D01*
X153268605Y-133490298D01*
X153277384Y-133498288D01*
X153942095Y-134162999D01*
X153976121Y-134225311D01*
X153979000Y-134252094D01*
X153979000Y-134587072D01*
X153979337Y-134590318D01*
X153979337Y-134590322D01*
X153988801Y-134681531D01*
X153989793Y-134691093D01*
X153991974Y-134697629D01*
X153991974Y-134697631D01*
X154036268Y-134830395D01*
X154044846Y-134856107D01*
X154136384Y-135004031D01*
X154141566Y-135009204D01*
X154254316Y-135121758D01*
X154254321Y-135121762D01*
X154259497Y-135126929D01*
X154265727Y-135130769D01*
X154265728Y-135130770D01*
X154310718Y-135158502D01*
X154407580Y-135218209D01*
X154572691Y-135272974D01*
X154579527Y-135273674D01*
X154579530Y-135273675D01*
X154631026Y-135278951D01*
X154675428Y-135283500D01*
X155274572Y-135283500D01*
X155277818Y-135283163D01*
X155277822Y-135283163D01*
X155371735Y-135273419D01*
X155371739Y-135273418D01*
X155378593Y-135272707D01*
X155385129Y-135270526D01*
X155385131Y-135270526D01*
X155517895Y-135226232D01*
X155543607Y-135217654D01*
X155691531Y-135126116D01*
X155742329Y-135075229D01*
X155798247Y-135019214D01*
X155860530Y-134985135D01*
X155931350Y-134990138D01*
X155976437Y-135019059D01*
X156079312Y-135121754D01*
X156079317Y-135121758D01*
X156084497Y-135126929D01*
X156090727Y-135130769D01*
X156090728Y-135130770D01*
X156135718Y-135158502D01*
X156232580Y-135218209D01*
X156397691Y-135272974D01*
X156404527Y-135273674D01*
X156404530Y-135273675D01*
X156456026Y-135278951D01*
X156500428Y-135283500D01*
X157099572Y-135283500D01*
X157102818Y-135283163D01*
X157102822Y-135283163D01*
X157196735Y-135273419D01*
X157196739Y-135273418D01*
X157203593Y-135272707D01*
X157210129Y-135270526D01*
X157210131Y-135270526D01*
X157342895Y-135226232D01*
X157368607Y-135217654D01*
X157516531Y-135126116D01*
X157561953Y-135080615D01*
X157634258Y-135008184D01*
X157634262Y-135008179D01*
X157639429Y-135003003D01*
X157712851Y-134883891D01*
X157726869Y-134861150D01*
X157726870Y-134861148D01*
X157730709Y-134854920D01*
X157785474Y-134689809D01*
X157787021Y-134674717D01*
X157795672Y-134590271D01*
X157796000Y-134587072D01*
X157796000Y-134016739D01*
X157816002Y-133948618D01*
X157832905Y-133927644D01*
X158576405Y-133184144D01*
X158638717Y-133150118D01*
X158709532Y-133155183D01*
X158766368Y-133197730D01*
X158791179Y-133264250D01*
X158791500Y-133273239D01*
X158791500Y-134678134D01*
X158798255Y-134740316D01*
X158849385Y-134876705D01*
X158936739Y-134993261D01*
X159053295Y-135080615D01*
X159189684Y-135131745D01*
X159251866Y-135138500D01*
X159688781Y-135138500D01*
X159756902Y-135158502D01*
X159803395Y-135212158D01*
X159813499Y-135282432D01*
X159808613Y-135303439D01*
X159806458Y-135310072D01*
X159786496Y-135500000D01*
X159806458Y-135689928D01*
X159865473Y-135871556D01*
X159960960Y-136036944D01*
X160088747Y-136178866D01*
X160243248Y-136291118D01*
X160249276Y-136293802D01*
X160249278Y-136293803D01*
X160411681Y-136366109D01*
X160417712Y-136368794D01*
X160511112Y-136388647D01*
X160598056Y-136407128D01*
X160598061Y-136407128D01*
X160604513Y-136408500D01*
X160795487Y-136408500D01*
X160801939Y-136407128D01*
X160801944Y-136407128D01*
X160888888Y-136388647D01*
X160982288Y-136368794D01*
X160988319Y-136366109D01*
X161150722Y-136293803D01*
X161150724Y-136293802D01*
X161156752Y-136291118D01*
X161311253Y-136178866D01*
X161439040Y-136036944D01*
X161534527Y-135871556D01*
X161593542Y-135689928D01*
X161613504Y-135500000D01*
X161593542Y-135310072D01*
X161591387Y-135303439D01*
X161591381Y-135303226D01*
X161590128Y-135297332D01*
X161591206Y-135297103D01*
X161589358Y-135232471D01*
X161626019Y-135171672D01*
X161689731Y-135140346D01*
X161711219Y-135138500D01*
X162148134Y-135138500D01*
X162210316Y-135131745D01*
X162346705Y-135080615D01*
X162463261Y-134993261D01*
X162550615Y-134876705D01*
X162601745Y-134740316D01*
X162608500Y-134678134D01*
X162608500Y-132431866D01*
X162601745Y-132369684D01*
X162550615Y-132233295D01*
X162533205Y-132210065D01*
X162508357Y-132143559D01*
X162523410Y-132074176D01*
X162573584Y-132023946D01*
X162634031Y-132008500D01*
X172695760Y-132008500D01*
X172763881Y-132028502D01*
X172784855Y-132045404D01*
X173490681Y-132751229D01*
X173501549Y-132763621D01*
X173521013Y-132788987D01*
X173527559Y-132794010D01*
X173527562Y-132794013D01*
X173552927Y-132813476D01*
X173602203Y-132851287D01*
X173644071Y-132908625D01*
X173651500Y-132951250D01*
X173651500Y-133253134D01*
X173658255Y-133315316D01*
X173709385Y-133451705D01*
X173729891Y-133479066D01*
X173782630Y-133549435D01*
X173807478Y-133615941D01*
X173792425Y-133685324D01*
X173782632Y-133700562D01*
X173709385Y-133798295D01*
X173658255Y-133934684D01*
X173651500Y-133996866D01*
X173651500Y-135793134D01*
X173658255Y-135855316D01*
X173709385Y-135991705D01*
X173782630Y-136089435D01*
X173807478Y-136155941D01*
X173792425Y-136225324D01*
X173782632Y-136240562D01*
X173709385Y-136338295D01*
X173658255Y-136474684D01*
X173651500Y-136536866D01*
X173651500Y-138333134D01*
X173658255Y-138395316D01*
X173709385Y-138531705D01*
X173714771Y-138538891D01*
X173782942Y-138629852D01*
X173807790Y-138696358D01*
X173792737Y-138765741D01*
X173782942Y-138780982D01*
X173715214Y-138871351D01*
X173706676Y-138886946D01*
X173661522Y-139007394D01*
X173657895Y-139022649D01*
X173652369Y-139073514D01*
X173652000Y-139080328D01*
X173652000Y-139702885D01*
X173656475Y-139718124D01*
X173657865Y-139719329D01*
X173665548Y-139721000D01*
X178149884Y-139721000D01*
X178165123Y-139716525D01*
X178166328Y-139715135D01*
X178167999Y-139707452D01*
X178167999Y-139080331D01*
X178167629Y-139073510D01*
X178162105Y-139022648D01*
X178158479Y-139007396D01*
X178113324Y-138886946D01*
X178104786Y-138871351D01*
X178037058Y-138780982D01*
X178012210Y-138714475D01*
X178027263Y-138645093D01*
X178037058Y-138629852D01*
X178105229Y-138538891D01*
X178110615Y-138531705D01*
X178161745Y-138395316D01*
X178168500Y-138333134D01*
X178168500Y-136536866D01*
X178161745Y-136474684D01*
X178110615Y-136338295D01*
X178037370Y-136240564D01*
X178012522Y-136174059D01*
X178027575Y-136104676D01*
X178037370Y-136089435D01*
X178110615Y-135991705D01*
X178161745Y-135855316D01*
X178168500Y-135793134D01*
X178168500Y-133996866D01*
X178161745Y-133934684D01*
X178110615Y-133798295D01*
X178037370Y-133700564D01*
X178012522Y-133634059D01*
X178027575Y-133564676D01*
X178037370Y-133549435D01*
X178090109Y-133479066D01*
X178110615Y-133451705D01*
X178161745Y-133315316D01*
X178168500Y-133253134D01*
X178168500Y-131456866D01*
X178161745Y-131394684D01*
X178110615Y-131258295D01*
X178037370Y-131160564D01*
X178012522Y-131094059D01*
X178027575Y-131024676D01*
X178037370Y-131009435D01*
X178105229Y-130918891D01*
X178110615Y-130911705D01*
X178161745Y-130775316D01*
X178168500Y-130713134D01*
X178168500Y-128916866D01*
X178161745Y-128854684D01*
X178110615Y-128718295D01*
X178037370Y-128620564D01*
X178012522Y-128554059D01*
X178027575Y-128484676D01*
X178037370Y-128469435D01*
X178110615Y-128371705D01*
X178161745Y-128235316D01*
X178168500Y-128173134D01*
X178168500Y-126376866D01*
X178161745Y-126314684D01*
X178110615Y-126178295D01*
X178037370Y-126080564D01*
X178012522Y-126014059D01*
X178027575Y-125944676D01*
X178037370Y-125929435D01*
X178054510Y-125906565D01*
X178110615Y-125831705D01*
X178161745Y-125695316D01*
X178168500Y-125633134D01*
X178168500Y-123836866D01*
X178161745Y-123774684D01*
X178110615Y-123638295D01*
X178037370Y-123540564D01*
X178012522Y-123474059D01*
X178027575Y-123404676D01*
X178037370Y-123389435D01*
X178110615Y-123291705D01*
X178161745Y-123155316D01*
X178168500Y-123093134D01*
X178168500Y-121296866D01*
X178161745Y-121234684D01*
X178110615Y-121098295D01*
X178037370Y-121000564D01*
X178012522Y-120934059D01*
X178027575Y-120864676D01*
X178037370Y-120849435D01*
X178110615Y-120751705D01*
X178161745Y-120615316D01*
X178168500Y-120553134D01*
X178168500Y-118756866D01*
X178161745Y-118694684D01*
X178110615Y-118558295D01*
X178037370Y-118460564D01*
X178012522Y-118394059D01*
X178027575Y-118324676D01*
X178037370Y-118309435D01*
X178110615Y-118211705D01*
X178161745Y-118075316D01*
X178168500Y-118013134D01*
X178168500Y-116216866D01*
X178161745Y-116154684D01*
X178110615Y-116018295D01*
X178060422Y-115951323D01*
X178037058Y-115920148D01*
X178012210Y-115853642D01*
X178027263Y-115784259D01*
X178037058Y-115769018D01*
X178104786Y-115678649D01*
X178113324Y-115663054D01*
X178158478Y-115542606D01*
X178162105Y-115527351D01*
X178167631Y-115476486D01*
X178168000Y-115469672D01*
X178168000Y-114847115D01*
X178163525Y-114831876D01*
X178162135Y-114830671D01*
X178154452Y-114829000D01*
X173670116Y-114829000D01*
X173654877Y-114833475D01*
X173653672Y-114834865D01*
X173652001Y-114842548D01*
X173652001Y-115469669D01*
X173652371Y-115476490D01*
X173657895Y-115527352D01*
X173661521Y-115542604D01*
X173706676Y-115663054D01*
X173715214Y-115678649D01*
X173782942Y-115769018D01*
X173807790Y-115835525D01*
X173792737Y-115904907D01*
X173782942Y-115920148D01*
X173759578Y-115951323D01*
X173709385Y-116018295D01*
X173658255Y-116154684D01*
X173651500Y-116216866D01*
X173651500Y-116380500D01*
X173631498Y-116448621D01*
X173577842Y-116495114D01*
X173525500Y-116506500D01*
X166819239Y-116506500D01*
X166751118Y-116486498D01*
X166730144Y-116469595D01*
X163193683Y-112933134D01*
X173651500Y-112933134D01*
X173658255Y-112995316D01*
X173709385Y-113131705D01*
X173714771Y-113138891D01*
X173782942Y-113229852D01*
X173807790Y-113296358D01*
X173792737Y-113365741D01*
X173782942Y-113380982D01*
X173715214Y-113471351D01*
X173706676Y-113486946D01*
X173661522Y-113607394D01*
X173657895Y-113622649D01*
X173652369Y-113673514D01*
X173652000Y-113680328D01*
X173652000Y-114302885D01*
X173656475Y-114318124D01*
X173657865Y-114319329D01*
X173665548Y-114321000D01*
X178149884Y-114321000D01*
X178165123Y-114316525D01*
X178166328Y-114315135D01*
X178167999Y-114307452D01*
X178167999Y-113680331D01*
X178167629Y-113673510D01*
X178162105Y-113622648D01*
X178158479Y-113607396D01*
X178113324Y-113486946D01*
X178104786Y-113471351D01*
X178037058Y-113380982D01*
X178012210Y-113314475D01*
X178027263Y-113245093D01*
X178037058Y-113229852D01*
X178105229Y-113138891D01*
X178110615Y-113131705D01*
X178161745Y-112995316D01*
X178168500Y-112933134D01*
X178168500Y-111136866D01*
X178161745Y-111074684D01*
X178110615Y-110938295D01*
X178037370Y-110840564D01*
X178012522Y-110774059D01*
X178027575Y-110704676D01*
X178037370Y-110689435D01*
X178060571Y-110658478D01*
X178110615Y-110591705D01*
X178161745Y-110455316D01*
X178168500Y-110393134D01*
X178168500Y-108596866D01*
X178161745Y-108534684D01*
X178110615Y-108398295D01*
X178037370Y-108300564D01*
X178012522Y-108234059D01*
X178027575Y-108164676D01*
X178037370Y-108149435D01*
X178057527Y-108122540D01*
X178110615Y-108051705D01*
X178161745Y-107915316D01*
X178168500Y-107853134D01*
X178168500Y-106056866D01*
X178161745Y-105994684D01*
X178110615Y-105858295D01*
X178037370Y-105760564D01*
X178012522Y-105694059D01*
X178027575Y-105624676D01*
X178037370Y-105609435D01*
X178038071Y-105608500D01*
X178110615Y-105511705D01*
X178161745Y-105375316D01*
X178168500Y-105313134D01*
X178168500Y-103516866D01*
X178161745Y-103454684D01*
X178110615Y-103318295D01*
X178044852Y-103230548D01*
X178037058Y-103220148D01*
X178012210Y-103153642D01*
X178027263Y-103084259D01*
X178037058Y-103069018D01*
X178104786Y-102978649D01*
X178113324Y-102963054D01*
X178158478Y-102842606D01*
X178162105Y-102827351D01*
X178167631Y-102776486D01*
X178168000Y-102769672D01*
X178168000Y-102147115D01*
X178163525Y-102131876D01*
X178162135Y-102130671D01*
X178154452Y-102129000D01*
X173670116Y-102129000D01*
X173654877Y-102133475D01*
X173653672Y-102134865D01*
X173652001Y-102142548D01*
X173652001Y-102769669D01*
X173652371Y-102776490D01*
X173657895Y-102827352D01*
X173661521Y-102842604D01*
X173706676Y-102963054D01*
X173715214Y-102978649D01*
X173782942Y-103069018D01*
X173807790Y-103135525D01*
X173792737Y-103204907D01*
X173782942Y-103220148D01*
X173775148Y-103230548D01*
X173709385Y-103318295D01*
X173658255Y-103454684D01*
X173651500Y-103516866D01*
X173651500Y-105313134D01*
X173658255Y-105375316D01*
X173709385Y-105511705D01*
X173781929Y-105608500D01*
X173782630Y-105609435D01*
X173807478Y-105675941D01*
X173792425Y-105745324D01*
X173782632Y-105760562D01*
X173709385Y-105858295D01*
X173658255Y-105994684D01*
X173651500Y-106056866D01*
X173651500Y-107853134D01*
X173658255Y-107915316D01*
X173709385Y-108051705D01*
X173762473Y-108122540D01*
X173782630Y-108149435D01*
X173807478Y-108215941D01*
X173792425Y-108285324D01*
X173782632Y-108300562D01*
X173709385Y-108398295D01*
X173658255Y-108534684D01*
X173651500Y-108596866D01*
X173651500Y-110393134D01*
X173658255Y-110455316D01*
X173709385Y-110591705D01*
X173759429Y-110658478D01*
X173782630Y-110689435D01*
X173807478Y-110755941D01*
X173792425Y-110825324D01*
X173782632Y-110840562D01*
X173709385Y-110938295D01*
X173658255Y-111074684D01*
X173651500Y-111136866D01*
X173651500Y-112933134D01*
X163193683Y-112933134D01*
X161660155Y-111399606D01*
X161626129Y-111337294D01*
X161631194Y-111266479D01*
X161673741Y-111209643D01*
X161740261Y-111184832D01*
X161788914Y-111190917D01*
X161810191Y-111197974D01*
X161817027Y-111198674D01*
X161817030Y-111198675D01*
X161866947Y-111203789D01*
X161912928Y-111208500D01*
X162487072Y-111208500D01*
X162490318Y-111208163D01*
X162490322Y-111208163D01*
X162584235Y-111198419D01*
X162584239Y-111198418D01*
X162591093Y-111197707D01*
X162597629Y-111195526D01*
X162597631Y-111195526D01*
X162749159Y-111144972D01*
X162756107Y-111142654D01*
X162904031Y-111051116D01*
X162927508Y-111027598D01*
X163021758Y-110933184D01*
X163021762Y-110933179D01*
X163026929Y-110928003D01*
X163058261Y-110877173D01*
X163111033Y-110829680D01*
X163181105Y-110818256D01*
X163246229Y-110846530D01*
X163266346Y-110867723D01*
X163273429Y-110877173D01*
X163281739Y-110888261D01*
X163398295Y-110975615D01*
X163406704Y-110978767D01*
X163406705Y-110978768D01*
X163449777Y-110994915D01*
X163506542Y-111037556D01*
X163531242Y-111104118D01*
X163525381Y-111151834D01*
X163506458Y-111210072D01*
X163505768Y-111216635D01*
X163505767Y-111216642D01*
X163491269Y-111354588D01*
X163486496Y-111400000D01*
X163487186Y-111406565D01*
X163505593Y-111581695D01*
X163506458Y-111589928D01*
X163565473Y-111771556D01*
X163660960Y-111936944D01*
X163788747Y-112078866D01*
X163943248Y-112191118D01*
X163949276Y-112193802D01*
X163949278Y-112193803D01*
X164111681Y-112266109D01*
X164117712Y-112268794D01*
X164211112Y-112288647D01*
X164298056Y-112307128D01*
X164298061Y-112307128D01*
X164304513Y-112308500D01*
X164495487Y-112308500D01*
X164501939Y-112307128D01*
X164501944Y-112307128D01*
X164588888Y-112288647D01*
X164682288Y-112268794D01*
X164688319Y-112266109D01*
X164850722Y-112193803D01*
X164850724Y-112193802D01*
X164856752Y-112191118D01*
X165011253Y-112078866D01*
X165139040Y-111936944D01*
X165234527Y-111771556D01*
X165293542Y-111589928D01*
X165294408Y-111581695D01*
X165312814Y-111406565D01*
X165313504Y-111400000D01*
X165293542Y-111210072D01*
X165280048Y-111168542D01*
X165278020Y-111097575D01*
X165314683Y-111036777D01*
X165355652Y-111011624D01*
X165443295Y-110978768D01*
X165443296Y-110978767D01*
X165451705Y-110975615D01*
X165568261Y-110888261D01*
X165576571Y-110877173D01*
X165611048Y-110831172D01*
X165667907Y-110788657D01*
X165738726Y-110783633D01*
X165755036Y-110788744D01*
X165758517Y-110789677D01*
X165766149Y-110792838D01*
X165774337Y-110793916D01*
X165873417Y-110806960D01*
X165938344Y-110835682D01*
X165957796Y-110856316D01*
X165976352Y-110881075D01*
X165976356Y-110881079D01*
X165981739Y-110888261D01*
X165988919Y-110893642D01*
X165988922Y-110893645D01*
X166047306Y-110937401D01*
X166098295Y-110975615D01*
X166234684Y-111026745D01*
X166296866Y-111033500D01*
X167953134Y-111033500D01*
X168015316Y-111026745D01*
X168151705Y-110975615D01*
X168154842Y-110973264D01*
X168212550Y-110958500D01*
X169057930Y-110958500D01*
X169076880Y-110959933D01*
X169091115Y-110962099D01*
X169091119Y-110962099D01*
X169098349Y-110963199D01*
X169105641Y-110962606D01*
X169105644Y-110962606D01*
X169151018Y-110958915D01*
X169161233Y-110958500D01*
X169169293Y-110958500D01*
X169182583Y-110956951D01*
X169197507Y-110955211D01*
X169201882Y-110954778D01*
X169267339Y-110949454D01*
X169267342Y-110949453D01*
X169274637Y-110948860D01*
X169281601Y-110946604D01*
X169287560Y-110945413D01*
X169293415Y-110944029D01*
X169300681Y-110943182D01*
X169369327Y-110918265D01*
X169373455Y-110916848D01*
X169435936Y-110896607D01*
X169435938Y-110896606D01*
X169442899Y-110894351D01*
X169449154Y-110890555D01*
X169454628Y-110888049D01*
X169460058Y-110885330D01*
X169466937Y-110882833D01*
X169475570Y-110877173D01*
X169527976Y-110842814D01*
X169531680Y-110840477D01*
X169594107Y-110802595D01*
X169602484Y-110795197D01*
X169602508Y-110795224D01*
X169605500Y-110792571D01*
X169608733Y-110789868D01*
X169614852Y-110785856D01*
X169668128Y-110729617D01*
X169670506Y-110727175D01*
X170181331Y-110216350D01*
X170244228Y-110182199D01*
X170300824Y-110170169D01*
X170300833Y-110170166D01*
X170307288Y-110168794D01*
X170457149Y-110102072D01*
X170475722Y-110093803D01*
X170475724Y-110093802D01*
X170481752Y-110091118D01*
X170636253Y-109978866D01*
X170644491Y-109969717D01*
X170759621Y-109841852D01*
X170759622Y-109841851D01*
X170764040Y-109836944D01*
X170859527Y-109671556D01*
X170918542Y-109489928D01*
X170938504Y-109300000D01*
X170930683Y-109225590D01*
X170919232Y-109116635D01*
X170919232Y-109116633D01*
X170918542Y-109110072D01*
X170864667Y-108944263D01*
X170858500Y-108905327D01*
X170858500Y-108622032D01*
X170878502Y-108553911D01*
X170903219Y-108526618D01*
X170904031Y-108526116D01*
X170911274Y-108518861D01*
X170913040Y-108517894D01*
X170914944Y-108516385D01*
X170915202Y-108516711D01*
X170973554Y-108484781D01*
X171044375Y-108489782D01*
X171089470Y-108518708D01*
X171092131Y-108521364D01*
X171103540Y-108530375D01*
X171239063Y-108613912D01*
X171252241Y-108620056D01*
X171403766Y-108670315D01*
X171417132Y-108673181D01*
X171509770Y-108682672D01*
X171516185Y-108683000D01*
X171590385Y-108683000D01*
X171605624Y-108678525D01*
X171606829Y-108677135D01*
X171608500Y-108669452D01*
X171608500Y-108664885D01*
X172116500Y-108664885D01*
X172120975Y-108680124D01*
X172122365Y-108681329D01*
X172130048Y-108683000D01*
X172208766Y-108683000D01*
X172215282Y-108682663D01*
X172309132Y-108672925D01*
X172322528Y-108670032D01*
X172473953Y-108619512D01*
X172487115Y-108613347D01*
X172622492Y-108529574D01*
X172633890Y-108520540D01*
X172746363Y-108407871D01*
X172755375Y-108396460D01*
X172838912Y-108260937D01*
X172845056Y-108247759D01*
X172895315Y-108096234D01*
X172898181Y-108082868D01*
X172907672Y-107990230D01*
X172908000Y-107983815D01*
X172908000Y-107972115D01*
X172903525Y-107956876D01*
X172902135Y-107955671D01*
X172894452Y-107954000D01*
X172134615Y-107954000D01*
X172119376Y-107958475D01*
X172118171Y-107959865D01*
X172116500Y-107967548D01*
X172116500Y-108664885D01*
X171608500Y-108664885D01*
X171608500Y-107427885D01*
X172116500Y-107427885D01*
X172120975Y-107443124D01*
X172122365Y-107444329D01*
X172130048Y-107446000D01*
X172889885Y-107446000D01*
X172905124Y-107441525D01*
X172906329Y-107440135D01*
X172908000Y-107432452D01*
X172908000Y-107416234D01*
X172907663Y-107409718D01*
X172897925Y-107315868D01*
X172895032Y-107302472D01*
X172844512Y-107151047D01*
X172838347Y-107137885D01*
X172754574Y-107002508D01*
X172745540Y-106991110D01*
X172632871Y-106878637D01*
X172621460Y-106869625D01*
X172485937Y-106786088D01*
X172472759Y-106779944D01*
X172321234Y-106729685D01*
X172307868Y-106726819D01*
X172215230Y-106717328D01*
X172208815Y-106717000D01*
X172134615Y-106717000D01*
X172119376Y-106721475D01*
X172118171Y-106722865D01*
X172116500Y-106730548D01*
X172116500Y-107427885D01*
X171608500Y-107427885D01*
X171608500Y-106735115D01*
X171604025Y-106719876D01*
X171602635Y-106718671D01*
X171594952Y-106717000D01*
X171516234Y-106717000D01*
X171509718Y-106717337D01*
X171415868Y-106727075D01*
X171402472Y-106729968D01*
X171251047Y-106780488D01*
X171237885Y-106786653D01*
X171102508Y-106870426D01*
X171091106Y-106879464D01*
X171089433Y-106881139D01*
X171088007Y-106881919D01*
X171085373Y-106884007D01*
X171085016Y-106883556D01*
X171027151Y-106915219D01*
X170956331Y-106910216D01*
X170911246Y-106881299D01*
X170908182Y-106878241D01*
X170903007Y-106873075D01*
X170903435Y-106872647D01*
X170865344Y-106818920D01*
X170858500Y-106777958D01*
X170858500Y-106336999D01*
X170875381Y-106273999D01*
X170882483Y-106261699D01*
X170905553Y-106221740D01*
X170931223Y-106177279D01*
X170931224Y-106177278D01*
X170934527Y-106171556D01*
X170993542Y-105989928D01*
X171013504Y-105800000D01*
X171004696Y-105716194D01*
X170994232Y-105616635D01*
X170994232Y-105616633D01*
X170993542Y-105610072D01*
X170934527Y-105428444D01*
X170912881Y-105390952D01*
X170896000Y-105327952D01*
X170896000Y-105026534D01*
X170916002Y-104958413D01*
X170969658Y-104911920D01*
X171039932Y-104901816D01*
X171100091Y-104927651D01*
X171103540Y-104930375D01*
X171239063Y-105013912D01*
X171252241Y-105020056D01*
X171403766Y-105070315D01*
X171417132Y-105073181D01*
X171509770Y-105082672D01*
X171516185Y-105083000D01*
X171590385Y-105083000D01*
X171605624Y-105078525D01*
X171606829Y-105077135D01*
X171608500Y-105069452D01*
X171608500Y-105064885D01*
X172116500Y-105064885D01*
X172120975Y-105080124D01*
X172122365Y-105081329D01*
X172130048Y-105083000D01*
X172208766Y-105083000D01*
X172215282Y-105082663D01*
X172309132Y-105072925D01*
X172322528Y-105070032D01*
X172473953Y-105019512D01*
X172487115Y-105013347D01*
X172622492Y-104929574D01*
X172633890Y-104920540D01*
X172746363Y-104807871D01*
X172755375Y-104796460D01*
X172838912Y-104660937D01*
X172845056Y-104647759D01*
X172895315Y-104496234D01*
X172898181Y-104482868D01*
X172907672Y-104390230D01*
X172908000Y-104383815D01*
X172908000Y-104372115D01*
X172903525Y-104356876D01*
X172902135Y-104355671D01*
X172894452Y-104354000D01*
X172134615Y-104354000D01*
X172119376Y-104358475D01*
X172118171Y-104359865D01*
X172116500Y-104367548D01*
X172116500Y-105064885D01*
X171608500Y-105064885D01*
X171608500Y-103827885D01*
X172116500Y-103827885D01*
X172120975Y-103843124D01*
X172122365Y-103844329D01*
X172130048Y-103846000D01*
X172889885Y-103846000D01*
X172905124Y-103841525D01*
X172906329Y-103840135D01*
X172908000Y-103832452D01*
X172908000Y-103816234D01*
X172907663Y-103809718D01*
X172897925Y-103715868D01*
X172895032Y-103702472D01*
X172844512Y-103551047D01*
X172838347Y-103537885D01*
X172754574Y-103402508D01*
X172745540Y-103391110D01*
X172632871Y-103278637D01*
X172621460Y-103269625D01*
X172485937Y-103186088D01*
X172472759Y-103179944D01*
X172321234Y-103129685D01*
X172307868Y-103126819D01*
X172215230Y-103117328D01*
X172208815Y-103117000D01*
X172134615Y-103117000D01*
X172119376Y-103121475D01*
X172118171Y-103122865D01*
X172116500Y-103130548D01*
X172116500Y-103827885D01*
X171608500Y-103827885D01*
X171608500Y-103135115D01*
X171604025Y-103119876D01*
X171602635Y-103118671D01*
X171594952Y-103117000D01*
X171516234Y-103117000D01*
X171509718Y-103117337D01*
X171415868Y-103127075D01*
X171402472Y-103129968D01*
X171251047Y-103180488D01*
X171237885Y-103186653D01*
X171102512Y-103270424D01*
X171100266Y-103272204D01*
X171098442Y-103272942D01*
X171096282Y-103274279D01*
X171096053Y-103273909D01*
X171034456Y-103298842D01*
X170964691Y-103285672D01*
X170913122Y-103236875D01*
X170896000Y-103173459D01*
X170896000Y-103104569D01*
X170897433Y-103085618D01*
X170899599Y-103071383D01*
X170899599Y-103071381D01*
X170900699Y-103064151D01*
X170898168Y-103033027D01*
X170896415Y-103011482D01*
X170896000Y-103001267D01*
X170896000Y-102993207D01*
X170893570Y-102972360D01*
X170892711Y-102964993D01*
X170892278Y-102960618D01*
X170886954Y-102895161D01*
X170886953Y-102895158D01*
X170886360Y-102887863D01*
X170884104Y-102880899D01*
X170882913Y-102874940D01*
X170881529Y-102869085D01*
X170880682Y-102861819D01*
X170855765Y-102793173D01*
X170854348Y-102789045D01*
X170834107Y-102726564D01*
X170834106Y-102726562D01*
X170831851Y-102719601D01*
X170828055Y-102713346D01*
X170825549Y-102707872D01*
X170822830Y-102702442D01*
X170820333Y-102695563D01*
X170785805Y-102642899D01*
X170780314Y-102634524D01*
X170777967Y-102630805D01*
X170740095Y-102568393D01*
X170732697Y-102560016D01*
X170732724Y-102559992D01*
X170730071Y-102557000D01*
X170727368Y-102553767D01*
X170723356Y-102547648D01*
X170667117Y-102494372D01*
X170664675Y-102491994D01*
X170424398Y-102251717D01*
X170390372Y-102189405D01*
X170395437Y-102118590D01*
X170406233Y-102096506D01*
X170408351Y-102093071D01*
X170467115Y-101997738D01*
X170522797Y-101829861D01*
X170533500Y-101725400D01*
X170533500Y-100374600D01*
X170533163Y-100371350D01*
X170523238Y-100275692D01*
X170523237Y-100275688D01*
X170522526Y-100268834D01*
X170518749Y-100257511D01*
X170510616Y-100233134D01*
X173651500Y-100233134D01*
X173658255Y-100295316D01*
X173709385Y-100431705D01*
X173734059Y-100464627D01*
X173782942Y-100529852D01*
X173807790Y-100596358D01*
X173792737Y-100665741D01*
X173782942Y-100680982D01*
X173715214Y-100771351D01*
X173706676Y-100786946D01*
X173661522Y-100907394D01*
X173657895Y-100922649D01*
X173652369Y-100973514D01*
X173652000Y-100980328D01*
X173652000Y-101602885D01*
X173656475Y-101618124D01*
X173657865Y-101619329D01*
X173665548Y-101621000D01*
X178149884Y-101621000D01*
X178165123Y-101616525D01*
X178166328Y-101615135D01*
X178167999Y-101607452D01*
X178167999Y-100980331D01*
X178167629Y-100973510D01*
X178162105Y-100922648D01*
X178158479Y-100907396D01*
X178113324Y-100786946D01*
X178104786Y-100771351D01*
X178037058Y-100680982D01*
X178012210Y-100614475D01*
X178027263Y-100545093D01*
X178037058Y-100529852D01*
X178085941Y-100464627D01*
X178110615Y-100431705D01*
X178161745Y-100295316D01*
X178168500Y-100233134D01*
X178168500Y-99955000D01*
X182011693Y-99955000D01*
X182030885Y-100174371D01*
X182087880Y-100387076D01*
X182090205Y-100392061D01*
X182178618Y-100581666D01*
X182178621Y-100581671D01*
X182180944Y-100586653D01*
X182184100Y-100591160D01*
X182184101Y-100591162D01*
X182241721Y-100673451D01*
X182307251Y-100767038D01*
X182462962Y-100922749D01*
X182643346Y-101049056D01*
X182842924Y-101142120D01*
X183055629Y-101199115D01*
X183275000Y-101218307D01*
X183494371Y-101199115D01*
X183707076Y-101142120D01*
X183906654Y-101049056D01*
X184087038Y-100922749D01*
X184242749Y-100767038D01*
X184308280Y-100673451D01*
X184365899Y-100591162D01*
X184365900Y-100591160D01*
X184369056Y-100586653D01*
X184371379Y-100581671D01*
X184371382Y-100581666D01*
X184459795Y-100392061D01*
X184462120Y-100387076D01*
X184519115Y-100174371D01*
X184538307Y-99955000D01*
X186861693Y-99955000D01*
X186880885Y-100174371D01*
X186937880Y-100387076D01*
X186940205Y-100392061D01*
X187028618Y-100581666D01*
X187028621Y-100581671D01*
X187030944Y-100586653D01*
X187034100Y-100591160D01*
X187034101Y-100591162D01*
X187091721Y-100673451D01*
X187157251Y-100767038D01*
X187312962Y-100922749D01*
X187493346Y-101049056D01*
X187692924Y-101142120D01*
X187905629Y-101199115D01*
X188125000Y-101218307D01*
X188344371Y-101199115D01*
X188557076Y-101142120D01*
X188756654Y-101049056D01*
X188937038Y-100922749D01*
X189092749Y-100767038D01*
X189158280Y-100673451D01*
X189215899Y-100591162D01*
X189215900Y-100591160D01*
X189219056Y-100586653D01*
X189221379Y-100581671D01*
X189221382Y-100581666D01*
X189309795Y-100392061D01*
X189312120Y-100387076D01*
X189369115Y-100174371D01*
X189388307Y-99955000D01*
X189369115Y-99735629D01*
X189312120Y-99522924D01*
X189268585Y-99429562D01*
X189221382Y-99328334D01*
X189221379Y-99328329D01*
X189219056Y-99323347D01*
X189202708Y-99300000D01*
X189095908Y-99147473D01*
X189095906Y-99147470D01*
X189092749Y-99142962D01*
X188937038Y-98987251D01*
X188756654Y-98860944D01*
X188557076Y-98767880D01*
X188344371Y-98710885D01*
X188125000Y-98691693D01*
X187905629Y-98710885D01*
X187692924Y-98767880D01*
X187599562Y-98811415D01*
X187498334Y-98858618D01*
X187498329Y-98858621D01*
X187493347Y-98860944D01*
X187488840Y-98864100D01*
X187488838Y-98864101D01*
X187317473Y-98984092D01*
X187317470Y-98984094D01*
X187312962Y-98987251D01*
X187157251Y-99142962D01*
X187154094Y-99147470D01*
X187154092Y-99147473D01*
X187047292Y-99300000D01*
X187030944Y-99323347D01*
X187028621Y-99328329D01*
X187028618Y-99328334D01*
X186981415Y-99429562D01*
X186937880Y-99522924D01*
X186880885Y-99735629D01*
X186861693Y-99955000D01*
X184538307Y-99955000D01*
X184519115Y-99735629D01*
X184462120Y-99522924D01*
X184418585Y-99429562D01*
X184371382Y-99328334D01*
X184371379Y-99328329D01*
X184369056Y-99323347D01*
X184352708Y-99300000D01*
X184245908Y-99147473D01*
X184245906Y-99147470D01*
X184242749Y-99142962D01*
X184087038Y-98987251D01*
X183906654Y-98860944D01*
X183707076Y-98767880D01*
X183494371Y-98710885D01*
X183275000Y-98691693D01*
X183055629Y-98710885D01*
X182842924Y-98767880D01*
X182749562Y-98811415D01*
X182648334Y-98858618D01*
X182648329Y-98858621D01*
X182643347Y-98860944D01*
X182638840Y-98864100D01*
X182638838Y-98864101D01*
X182467473Y-98984092D01*
X182467470Y-98984094D01*
X182462962Y-98987251D01*
X182307251Y-99142962D01*
X182304094Y-99147470D01*
X182304092Y-99147473D01*
X182197292Y-99300000D01*
X182180944Y-99323347D01*
X182178621Y-99328329D01*
X182178618Y-99328334D01*
X182131415Y-99429562D01*
X182087880Y-99522924D01*
X182030885Y-99735629D01*
X182011693Y-99955000D01*
X178168500Y-99955000D01*
X178168500Y-98436866D01*
X178161745Y-98374684D01*
X178110615Y-98238295D01*
X178037370Y-98140564D01*
X178012522Y-98074059D01*
X178027575Y-98004676D01*
X178037370Y-97989435D01*
X178105229Y-97898891D01*
X178110615Y-97891705D01*
X178161745Y-97755316D01*
X178168500Y-97693134D01*
X178168500Y-96890469D01*
X181562095Y-96890469D01*
X181562392Y-96895622D01*
X181562392Y-96895625D01*
X181568067Y-96994041D01*
X181575427Y-97121697D01*
X181576564Y-97126743D01*
X181576565Y-97126749D01*
X181608741Y-97269523D01*
X181626346Y-97347642D01*
X181628288Y-97352424D01*
X181628289Y-97352428D01*
X181711540Y-97557450D01*
X181713484Y-97562237D01*
X181834501Y-97759719D01*
X181986147Y-97934784D01*
X182164349Y-98082730D01*
X182364322Y-98199584D01*
X182580694Y-98282209D01*
X182585760Y-98283240D01*
X182585761Y-98283240D01*
X182638846Y-98294040D01*
X182807656Y-98328385D01*
X182938324Y-98333176D01*
X183033949Y-98336683D01*
X183033953Y-98336683D01*
X183039113Y-98336872D01*
X183044233Y-98336216D01*
X183044235Y-98336216D01*
X183117270Y-98326860D01*
X183268847Y-98307442D01*
X183273795Y-98305957D01*
X183273802Y-98305956D01*
X183485747Y-98242369D01*
X183490690Y-98240886D01*
X183495979Y-98238295D01*
X183694049Y-98141262D01*
X183694052Y-98141260D01*
X183698684Y-98138991D01*
X183887243Y-98004494D01*
X184051303Y-97841005D01*
X184186458Y-97652917D01*
X184233641Y-97557450D01*
X184286784Y-97449922D01*
X184286785Y-97449920D01*
X184289078Y-97445280D01*
X184356408Y-97223671D01*
X184386640Y-96994041D01*
X184388327Y-96925000D01*
X184385488Y-96890469D01*
X187012095Y-96890469D01*
X187012392Y-96895622D01*
X187012392Y-96895625D01*
X187018067Y-96994041D01*
X187025427Y-97121697D01*
X187026564Y-97126743D01*
X187026565Y-97126749D01*
X187058741Y-97269523D01*
X187076346Y-97347642D01*
X187078288Y-97352424D01*
X187078289Y-97352428D01*
X187161540Y-97557450D01*
X187163484Y-97562237D01*
X187284501Y-97759719D01*
X187436147Y-97934784D01*
X187614349Y-98082730D01*
X187814322Y-98199584D01*
X188030694Y-98282209D01*
X188035760Y-98283240D01*
X188035761Y-98283240D01*
X188088846Y-98294040D01*
X188257656Y-98328385D01*
X188388324Y-98333176D01*
X188483949Y-98336683D01*
X188483953Y-98336683D01*
X188489113Y-98336872D01*
X188494233Y-98336216D01*
X188494235Y-98336216D01*
X188567270Y-98326860D01*
X188718847Y-98307442D01*
X188723795Y-98305957D01*
X188723802Y-98305956D01*
X188935747Y-98242369D01*
X188940690Y-98240886D01*
X188945979Y-98238295D01*
X189144049Y-98141262D01*
X189144052Y-98141260D01*
X189148684Y-98138991D01*
X189337243Y-98004494D01*
X189501303Y-97841005D01*
X189636458Y-97652917D01*
X189683641Y-97557450D01*
X189736784Y-97449922D01*
X189736785Y-97449920D01*
X189739078Y-97445280D01*
X189806408Y-97223671D01*
X189836640Y-96994041D01*
X189838327Y-96925000D01*
X189832032Y-96848434D01*
X189819773Y-96699318D01*
X189819772Y-96699312D01*
X189819349Y-96694167D01*
X189762925Y-96469533D01*
X189760866Y-96464797D01*
X189672630Y-96261868D01*
X189672628Y-96261865D01*
X189670570Y-96257131D01*
X189544764Y-96062665D01*
X189388887Y-95891358D01*
X189384836Y-95888159D01*
X189384832Y-95888155D01*
X189211177Y-95751011D01*
X189211172Y-95751008D01*
X189207123Y-95747810D01*
X189202607Y-95745317D01*
X189202604Y-95745315D01*
X189008879Y-95638373D01*
X189008875Y-95638371D01*
X189004355Y-95635876D01*
X188999486Y-95634152D01*
X188999482Y-95634150D01*
X188790903Y-95560288D01*
X188790899Y-95560287D01*
X188786028Y-95558562D01*
X188780935Y-95557655D01*
X188780932Y-95557654D01*
X188563095Y-95518851D01*
X188563089Y-95518850D01*
X188558006Y-95517945D01*
X188485096Y-95517054D01*
X188331581Y-95515179D01*
X188331579Y-95515179D01*
X188326411Y-95515116D01*
X188097464Y-95550150D01*
X187877314Y-95622106D01*
X187872726Y-95624494D01*
X187872722Y-95624496D01*
X187714804Y-95706703D01*
X187671872Y-95729052D01*
X187667739Y-95732155D01*
X187667736Y-95732157D01*
X187520720Y-95842540D01*
X187486655Y-95868117D01*
X187326639Y-96035564D01*
X187323725Y-96039836D01*
X187323724Y-96039837D01*
X187308152Y-96062665D01*
X187196119Y-96226899D01*
X187098602Y-96436981D01*
X187036707Y-96660169D01*
X187012095Y-96890469D01*
X184385488Y-96890469D01*
X184382032Y-96848434D01*
X184369773Y-96699318D01*
X184369772Y-96699312D01*
X184369349Y-96694167D01*
X184312925Y-96469533D01*
X184310866Y-96464797D01*
X184222630Y-96261868D01*
X184222628Y-96261865D01*
X184220570Y-96257131D01*
X184094764Y-96062665D01*
X183938887Y-95891358D01*
X183934836Y-95888159D01*
X183934832Y-95888155D01*
X183761177Y-95751011D01*
X183761172Y-95751008D01*
X183757123Y-95747810D01*
X183752607Y-95745317D01*
X183752604Y-95745315D01*
X183558879Y-95638373D01*
X183558875Y-95638371D01*
X183554355Y-95635876D01*
X183549486Y-95634152D01*
X183549482Y-95634150D01*
X183340903Y-95560288D01*
X183340899Y-95560287D01*
X183336028Y-95558562D01*
X183330935Y-95557655D01*
X183330932Y-95557654D01*
X183113095Y-95518851D01*
X183113089Y-95518850D01*
X183108006Y-95517945D01*
X183035096Y-95517054D01*
X182881581Y-95515179D01*
X182881579Y-95515179D01*
X182876411Y-95515116D01*
X182647464Y-95550150D01*
X182427314Y-95622106D01*
X182422726Y-95624494D01*
X182422722Y-95624496D01*
X182264804Y-95706703D01*
X182221872Y-95729052D01*
X182217739Y-95732155D01*
X182217736Y-95732157D01*
X182070720Y-95842540D01*
X182036655Y-95868117D01*
X181876639Y-96035564D01*
X181873725Y-96039836D01*
X181873724Y-96039837D01*
X181858152Y-96062665D01*
X181746119Y-96226899D01*
X181648602Y-96436981D01*
X181586707Y-96660169D01*
X181562095Y-96890469D01*
X178168500Y-96890469D01*
X178168500Y-95896866D01*
X178161745Y-95834684D01*
X178110615Y-95698295D01*
X178023261Y-95581739D01*
X177906705Y-95494385D01*
X177770316Y-95443255D01*
X177708134Y-95436500D01*
X174111866Y-95436500D01*
X174049684Y-95443255D01*
X173913295Y-95494385D01*
X173796739Y-95581739D01*
X173709385Y-95698295D01*
X173658255Y-95834684D01*
X173651500Y-95896866D01*
X173651500Y-97693134D01*
X173658255Y-97755316D01*
X173709385Y-97891705D01*
X173714771Y-97898891D01*
X173782630Y-97989435D01*
X173807478Y-98055941D01*
X173792425Y-98125324D01*
X173782632Y-98140562D01*
X173709385Y-98238295D01*
X173658255Y-98374684D01*
X173651500Y-98436866D01*
X173651500Y-100233134D01*
X170510616Y-100233134D01*
X170468868Y-100108002D01*
X170466550Y-100101054D01*
X170373478Y-99950652D01*
X170248303Y-99825695D01*
X170242072Y-99821854D01*
X170103968Y-99736725D01*
X170103966Y-99736724D01*
X170097738Y-99732885D01*
X169989005Y-99696820D01*
X169936389Y-99679368D01*
X169936387Y-99679368D01*
X169929861Y-99677203D01*
X169923025Y-99676503D01*
X169923022Y-99676502D01*
X169874746Y-99671556D01*
X169825400Y-99666500D01*
X169024600Y-99666500D01*
X169021354Y-99666837D01*
X169021350Y-99666837D01*
X168925692Y-99676762D01*
X168925688Y-99676763D01*
X168918834Y-99677474D01*
X168912298Y-99679655D01*
X168912296Y-99679655D01*
X168848117Y-99701067D01*
X168751054Y-99733450D01*
X168600652Y-99826522D01*
X168475695Y-99951697D01*
X168471854Y-99957928D01*
X168471852Y-99957931D01*
X168443645Y-100003690D01*
X168390873Y-100051183D01*
X168320801Y-100062605D01*
X168255677Y-100034331D01*
X168237298Y-100015403D01*
X168234738Y-100012144D01*
X168226501Y-100003494D01*
X168075877Y-99872788D01*
X168066153Y-99865853D01*
X167893533Y-99765990D01*
X167882669Y-99761016D01*
X167694273Y-99695593D01*
X167693284Y-99695352D01*
X167682992Y-99696820D01*
X167679000Y-99710385D01*
X167679000Y-102385402D01*
X167682973Y-102398933D01*
X167692399Y-102400288D01*
X167781537Y-102378806D01*
X167792832Y-102374917D01*
X167974382Y-102292371D01*
X167984724Y-102286424D01*
X168147397Y-102171032D01*
X168156425Y-102163239D01*
X168243535Y-102072243D01*
X168305090Y-102036867D01*
X168376000Y-102040386D01*
X168433750Y-102081683D01*
X168441685Y-102093053D01*
X168476522Y-102149348D01*
X168601697Y-102274305D01*
X168607928Y-102278146D01*
X168613673Y-102282683D01*
X168612831Y-102283749D01*
X168655110Y-102330722D01*
X168666655Y-102370624D01*
X168669789Y-102397506D01*
X168670222Y-102401882D01*
X168670428Y-102404407D01*
X168676140Y-102474637D01*
X168678396Y-102481601D01*
X168679587Y-102487560D01*
X168680971Y-102493415D01*
X168681818Y-102500681D01*
X168706735Y-102569327D01*
X168708152Y-102573455D01*
X168730649Y-102642899D01*
X168734445Y-102649154D01*
X168736951Y-102654628D01*
X168739670Y-102660058D01*
X168742167Y-102666937D01*
X168746180Y-102673057D01*
X168746180Y-102673058D01*
X168782186Y-102727976D01*
X168784523Y-102731680D01*
X168822405Y-102794107D01*
X168826121Y-102798315D01*
X168826122Y-102798316D01*
X168829803Y-102802484D01*
X168829776Y-102802508D01*
X168832429Y-102805500D01*
X168835132Y-102808733D01*
X168839144Y-102814852D01*
X168868442Y-102842606D01*
X168895383Y-102868128D01*
X168897825Y-102870506D01*
X169247203Y-103219884D01*
X169281229Y-103282196D01*
X169276164Y-103353011D01*
X169256990Y-103387071D01*
X169253242Y-103391817D01*
X169248071Y-103396997D01*
X169244231Y-103403227D01*
X169244230Y-103403228D01*
X169183225Y-103502197D01*
X169156791Y-103545080D01*
X169102026Y-103710191D01*
X169101326Y-103717027D01*
X169101325Y-103717030D01*
X169099406Y-103735761D01*
X169091500Y-103812928D01*
X169091500Y-104387072D01*
X169091837Y-104390318D01*
X169091837Y-104390322D01*
X169101440Y-104482868D01*
X169102293Y-104491093D01*
X169104474Y-104497629D01*
X169104474Y-104497631D01*
X169148768Y-104630395D01*
X169157346Y-104656107D01*
X169248884Y-104804031D01*
X169254066Y-104809204D01*
X169254070Y-104809209D01*
X169342017Y-104897002D01*
X169376097Y-104959284D01*
X169379000Y-104986175D01*
X169379000Y-105015500D01*
X169358998Y-105083621D01*
X169305342Y-105130114D01*
X169253000Y-105141500D01*
X168212550Y-105141500D01*
X168154842Y-105126736D01*
X168151705Y-105124385D01*
X168015316Y-105073255D01*
X168008010Y-105072461D01*
X167946576Y-105037365D01*
X167913756Y-104974410D01*
X167920182Y-104903705D01*
X167963814Y-104847698D01*
X168007940Y-104827546D01*
X168015316Y-104826745D01*
X168151705Y-104775615D01*
X168224346Y-104721174D01*
X168290851Y-104696326D01*
X168299910Y-104696000D01*
X168394884Y-104696000D01*
X168410123Y-104691525D01*
X168411328Y-104690135D01*
X168412999Y-104682452D01*
X168412999Y-104580331D01*
X168412629Y-104573510D01*
X168407105Y-104522651D01*
X168402965Y-104505236D01*
X168402966Y-104446942D01*
X168403971Y-104442716D01*
X168406745Y-104435316D01*
X168413500Y-104373134D01*
X168413500Y-103626866D01*
X168406745Y-103564684D01*
X168355615Y-103428295D01*
X168268261Y-103311739D01*
X168151705Y-103224385D01*
X168015316Y-103173255D01*
X167953134Y-103166500D01*
X166296866Y-103166500D01*
X166234684Y-103173255D01*
X166098295Y-103224385D01*
X165981739Y-103311739D01*
X165928263Y-103383092D01*
X165875656Y-103423935D01*
X165795625Y-103457085D01*
X165725036Y-103464674D01*
X165661549Y-103432895D01*
X165646581Y-103416241D01*
X165614227Y-103373071D01*
X165568261Y-103311739D01*
X165451705Y-103224385D01*
X165315316Y-103173255D01*
X165253134Y-103166500D01*
X163596866Y-103166500D01*
X163534684Y-103173255D01*
X163398295Y-103224385D01*
X163281739Y-103311739D01*
X163194385Y-103428295D01*
X163143255Y-103564684D01*
X163136500Y-103626866D01*
X163136500Y-103640551D01*
X163116498Y-103708672D01*
X163062842Y-103755165D01*
X162992568Y-103765269D01*
X162927988Y-103735775D01*
X162921483Y-103729725D01*
X162907872Y-103716138D01*
X162896460Y-103707125D01*
X162760937Y-103623588D01*
X162747759Y-103617444D01*
X162596234Y-103567185D01*
X162582868Y-103564319D01*
X162490230Y-103554828D01*
X162483815Y-103554500D01*
X162472115Y-103554500D01*
X162456876Y-103558975D01*
X162455671Y-103560365D01*
X162454000Y-103568048D01*
X162454000Y-104728000D01*
X162433998Y-104796121D01*
X162380342Y-104842614D01*
X162328000Y-104854000D01*
X162072000Y-104854000D01*
X162003879Y-104833998D01*
X161957386Y-104780342D01*
X161946000Y-104728000D01*
X161946000Y-103572615D01*
X161941525Y-103557376D01*
X161940135Y-103556171D01*
X161932452Y-103554500D01*
X161916234Y-103554500D01*
X161909718Y-103554837D01*
X161815868Y-103564575D01*
X161802472Y-103567468D01*
X161651047Y-103617988D01*
X161637885Y-103624153D01*
X161502508Y-103707926D01*
X161491110Y-103716960D01*
X161378637Y-103829629D01*
X161369623Y-103841043D01*
X161321968Y-103918354D01*
X161269196Y-103965848D01*
X161199125Y-103977272D01*
X161163462Y-103967347D01*
X161082288Y-103931206D01*
X160981007Y-103909678D01*
X160901944Y-103892872D01*
X160901939Y-103892872D01*
X160895487Y-103891500D01*
X160704513Y-103891500D01*
X160698061Y-103892872D01*
X160698056Y-103892872D01*
X160618993Y-103909678D01*
X160517712Y-103931206D01*
X160511682Y-103933891D01*
X160511681Y-103933891D01*
X160349278Y-104006197D01*
X160349276Y-104006198D01*
X160343248Y-104008882D01*
X160327774Y-104020125D01*
X160300432Y-104039990D01*
X160233564Y-104063849D01*
X160164413Y-104047770D01*
X160114932Y-103996856D01*
X160100832Y-103927274D01*
X160109961Y-103889838D01*
X160119635Y-103866483D01*
X160119636Y-103866478D01*
X160122796Y-103858850D01*
X160126873Y-103827885D01*
X160137920Y-103743972D01*
X160137920Y-103743971D01*
X160138458Y-103739885D01*
X160138457Y-103460116D01*
X160131889Y-103410218D01*
X160123874Y-103349337D01*
X160123874Y-103349335D01*
X160122796Y-103341150D01*
X160078875Y-103235115D01*
X160064642Y-103200752D01*
X160064641Y-103200750D01*
X160061482Y-103193124D01*
X160051369Y-103179944D01*
X159968968Y-103072559D01*
X159963945Y-103066013D01*
X159957762Y-103061268D01*
X159923837Y-102999142D01*
X159920958Y-102972359D01*
X159920958Y-102904239D01*
X159940960Y-102836118D01*
X159957863Y-102815144D01*
X160208692Y-102564315D01*
X160221083Y-102553448D01*
X160239895Y-102539013D01*
X160246445Y-102533987D01*
X160270932Y-102502075D01*
X160270936Y-102502071D01*
X160313081Y-102447147D01*
X160373165Y-102404330D01*
X160479460Y-102368867D01*
X160479462Y-102368866D01*
X160486404Y-102366550D01*
X160513928Y-102349518D01*
X160630578Y-102277332D01*
X160636806Y-102273478D01*
X160761763Y-102148303D01*
X160773662Y-102129000D01*
X160850733Y-102003968D01*
X160850734Y-102003966D01*
X160854573Y-101997738D01*
X160910255Y-101829861D01*
X160920958Y-101725400D01*
X160920958Y-101374832D01*
X166317000Y-101374832D01*
X166317285Y-101380808D01*
X166331471Y-101529494D01*
X166333730Y-101541228D01*
X166389872Y-101732599D01*
X166394302Y-101743675D01*
X166485619Y-101920978D01*
X166492069Y-101931024D01*
X166615262Y-102087857D01*
X166623499Y-102096506D01*
X166774123Y-102227212D01*
X166783847Y-102234147D01*
X166956467Y-102334010D01*
X166967331Y-102338984D01*
X167155727Y-102404407D01*
X167156716Y-102404648D01*
X167167008Y-102403180D01*
X167171000Y-102389615D01*
X167171000Y-101322115D01*
X167166525Y-101306876D01*
X167165135Y-101305671D01*
X167157452Y-101304000D01*
X166335115Y-101304000D01*
X166319876Y-101308475D01*
X166318671Y-101309865D01*
X166317000Y-101317548D01*
X166317000Y-101374832D01*
X160920958Y-101374832D01*
X160920958Y-100777885D01*
X166317000Y-100777885D01*
X166321475Y-100793124D01*
X166322865Y-100794329D01*
X166330548Y-100796000D01*
X167152885Y-100796000D01*
X167168124Y-100791525D01*
X167169329Y-100790135D01*
X167171000Y-100782452D01*
X167171000Y-99714598D01*
X167167027Y-99701067D01*
X167157601Y-99699712D01*
X167068463Y-99721194D01*
X167057168Y-99725083D01*
X166875618Y-99807629D01*
X166865276Y-99813576D01*
X166702603Y-99928968D01*
X166693575Y-99936761D01*
X166555658Y-100080831D01*
X166548262Y-100090196D01*
X166440079Y-100257741D01*
X166434583Y-100268345D01*
X166360039Y-100453312D01*
X166356645Y-100464770D01*
X166318143Y-100661928D01*
X166317066Y-100670791D01*
X166317000Y-100673500D01*
X166317000Y-100777885D01*
X160920958Y-100777885D01*
X160920958Y-100374600D01*
X160920621Y-100371350D01*
X160910696Y-100275692D01*
X160910695Y-100275688D01*
X160909984Y-100268834D01*
X160906207Y-100257511D01*
X160856326Y-100108002D01*
X160854008Y-100101054D01*
X160760936Y-99950652D01*
X160635761Y-99825695D01*
X160629530Y-99821854D01*
X160491426Y-99736725D01*
X160491424Y-99736724D01*
X160485196Y-99732885D01*
X160376463Y-99696820D01*
X160323847Y-99679368D01*
X160323845Y-99679368D01*
X160317319Y-99677203D01*
X160310483Y-99676503D01*
X160310480Y-99676502D01*
X160262204Y-99671556D01*
X160212858Y-99666500D01*
X159412058Y-99666500D01*
X159408812Y-99666837D01*
X159408808Y-99666837D01*
X159313150Y-99676762D01*
X159313146Y-99676763D01*
X159306292Y-99677474D01*
X159299756Y-99679655D01*
X159299754Y-99679655D01*
X159235575Y-99701067D01*
X159138512Y-99733450D01*
X158988110Y-99826522D01*
X158863153Y-99951697D01*
X158859313Y-99957927D01*
X158859312Y-99957928D01*
X158831384Y-100003236D01*
X158778612Y-100050729D01*
X158708540Y-100062153D01*
X158643416Y-100033879D01*
X158625040Y-100014955D01*
X158618854Y-100007080D01*
X158614323Y-100003148D01*
X158614320Y-100003145D01*
X158463625Y-99872379D01*
X158459095Y-99868448D01*
X158453909Y-99865448D01*
X158453905Y-99865445D01*
X158281200Y-99765533D01*
X158276004Y-99762527D01*
X158076187Y-99693139D01*
X158070252Y-99692278D01*
X158070250Y-99692278D01*
X157872794Y-99663648D01*
X157872791Y-99663648D01*
X157866854Y-99662787D01*
X157655559Y-99672567D01*
X157542924Y-99699712D01*
X157455757Y-99720719D01*
X157455755Y-99720720D01*
X157449924Y-99722125D01*
X157444466Y-99724607D01*
X157444462Y-99724608D01*
X157353448Y-99765990D01*
X157257371Y-99809674D01*
X157084847Y-99932054D01*
X156938577Y-100084850D01*
X156823838Y-100262548D01*
X156821595Y-100268114D01*
X156759055Y-100423297D01*
X156744772Y-100458737D01*
X156704230Y-100666337D01*
X156703958Y-100671899D01*
X156703958Y-101377846D01*
X156719006Y-101535566D01*
X156778550Y-101738534D01*
X156781294Y-101743861D01*
X156781294Y-101743862D01*
X156872515Y-101920978D01*
X156875400Y-101926580D01*
X157006062Y-102092920D01*
X157010593Y-102096852D01*
X157010596Y-102096855D01*
X157117251Y-102189405D01*
X157165821Y-102231552D01*
X157171007Y-102234552D01*
X157171011Y-102234555D01*
X157270950Y-102292371D01*
X157348912Y-102337473D01*
X157382858Y-102349261D01*
X157383598Y-102349518D01*
X157431360Y-102379451D01*
X157852053Y-102800144D01*
X157886079Y-102862456D01*
X157888958Y-102889239D01*
X157888958Y-102972360D01*
X157868956Y-103040481D01*
X157852283Y-103061169D01*
X157845971Y-103066013D01*
X157748434Y-103193125D01*
X157687120Y-103341150D01*
X157686042Y-103349337D01*
X157686042Y-103349338D01*
X157682918Y-103373071D01*
X157671458Y-103460115D01*
X157671459Y-103739884D01*
X157671997Y-103743969D01*
X157671997Y-103743973D01*
X157683273Y-103829629D01*
X157687120Y-103858850D01*
X157748434Y-104006876D01*
X157756037Y-104016784D01*
X157757328Y-104020125D01*
X157757590Y-104020578D01*
X157757519Y-104020619D01*
X157781637Y-104083003D01*
X157767373Y-104152551D01*
X157731639Y-104194313D01*
X157681735Y-104231714D01*
X157669173Y-104244276D01*
X157592672Y-104346351D01*
X157584134Y-104361946D01*
X157538980Y-104482394D01*
X157535353Y-104497649D01*
X157529827Y-104548514D01*
X157529458Y-104555328D01*
X157529459Y-105144669D01*
X157529829Y-105151490D01*
X157535353Y-105202352D01*
X157538979Y-105217604D01*
X157584135Y-105338058D01*
X157588978Y-105346903D01*
X157604458Y-105407412D01*
X157604458Y-105527885D01*
X157608933Y-105543124D01*
X157610323Y-105544329D01*
X157618006Y-105546000D01*
X158255600Y-105546000D01*
X158299829Y-105554018D01*
X158419740Y-105598971D01*
X158419746Y-105598973D01*
X158427142Y-105601745D01*
X158489324Y-105608500D01*
X158835592Y-105608500D01*
X158897774Y-105601745D01*
X158898038Y-105604174D01*
X158926878Y-105604174D01*
X158927142Y-105601745D01*
X158989324Y-105608500D01*
X159335592Y-105608500D01*
X159397774Y-105601745D01*
X159398038Y-105604174D01*
X159426878Y-105604174D01*
X159427142Y-105601745D01*
X159489324Y-105608500D01*
X160355506Y-105608500D01*
X160406755Y-105619393D01*
X160510570Y-105665614D01*
X160517712Y-105668794D01*
X160593955Y-105685000D01*
X160698056Y-105707128D01*
X160698061Y-105707128D01*
X160704513Y-105708500D01*
X160895487Y-105708500D01*
X160901939Y-105707128D01*
X160901944Y-105707128D01*
X161075835Y-105670166D01*
X161075838Y-105670165D01*
X161082288Y-105668794D01*
X161084965Y-105667602D01*
X161154573Y-105665614D01*
X161215371Y-105702276D01*
X161246696Y-105765989D01*
X161242134Y-105827141D01*
X161227026Y-105872691D01*
X161216500Y-105975428D01*
X161216500Y-106058629D01*
X161196498Y-106126750D01*
X161179595Y-106147724D01*
X160511053Y-106816266D01*
X160448741Y-106850292D01*
X160377926Y-106845227D01*
X160321090Y-106802680D01*
X160296279Y-106736160D01*
X160295958Y-106727171D01*
X160295958Y-106451866D01*
X160289203Y-106389684D01*
X160251935Y-106290271D01*
X160241224Y-106261699D01*
X160241222Y-106261696D01*
X160238073Y-106253295D01*
X160235317Y-106249618D01*
X160220458Y-106191536D01*
X160220458Y-106072115D01*
X160215983Y-106056876D01*
X160214593Y-106055671D01*
X160206910Y-106054000D01*
X160069316Y-106054000D01*
X160025087Y-106045982D01*
X159905176Y-106001029D01*
X159905170Y-106001027D01*
X159897774Y-105998255D01*
X159835592Y-105991500D01*
X159489324Y-105991500D01*
X159427142Y-105998255D01*
X159419746Y-106001027D01*
X159419740Y-106001029D01*
X159299829Y-106045982D01*
X159255600Y-106054000D01*
X159069316Y-106054000D01*
X159025087Y-106045982D01*
X158905176Y-106001029D01*
X158905170Y-106001027D01*
X158897774Y-105998255D01*
X158835592Y-105991500D01*
X158489324Y-105991500D01*
X158427142Y-105998255D01*
X158426878Y-105995826D01*
X158398038Y-105995826D01*
X158397774Y-105998255D01*
X158338989Y-105991869D01*
X158335592Y-105991500D01*
X157989324Y-105991500D01*
X157927142Y-105998255D01*
X157919746Y-106001027D01*
X157919740Y-106001029D01*
X157799829Y-106045982D01*
X157755600Y-106054000D01*
X157622574Y-106054000D01*
X157607335Y-106058475D01*
X157606130Y-106059865D01*
X157604459Y-106067548D01*
X157604459Y-106191534D01*
X157589599Y-106249617D01*
X157586843Y-106253295D01*
X157535713Y-106389684D01*
X157528958Y-106451866D01*
X157528958Y-107048134D01*
X157535713Y-107110316D01*
X157545940Y-107137596D01*
X157553958Y-107181826D01*
X157553958Y-109689885D01*
X157569620Y-109808850D01*
X157630934Y-109956875D01*
X157650788Y-109982749D01*
X157665968Y-110002532D01*
X157667832Y-110005322D01*
X157668476Y-110006876D01*
X157741523Y-110102072D01*
X167690685Y-120051234D01*
X167701552Y-120063625D01*
X167721013Y-120088987D01*
X167752925Y-120113474D01*
X167752928Y-120113477D01*
X167848124Y-120186524D01*
X167996149Y-120247838D01*
X168004336Y-120248916D01*
X168004337Y-120248916D01*
X168015542Y-120250391D01*
X168046738Y-120254498D01*
X168115115Y-120263500D01*
X168115118Y-120263500D01*
X168115126Y-120263501D01*
X168146811Y-120267672D01*
X168155000Y-120268750D01*
X168186693Y-120264578D01*
X168203136Y-120263500D01*
X170001601Y-120263500D01*
X170069722Y-120283502D01*
X170116215Y-120337158D01*
X170126319Y-120407432D01*
X170096825Y-120472012D01*
X170052849Y-120504607D01*
X170049281Y-120506195D01*
X170049274Y-120506199D01*
X170043248Y-120508882D01*
X170037907Y-120512762D01*
X170037906Y-120512763D01*
X169977665Y-120556531D01*
X169888747Y-120621134D01*
X169884334Y-120626036D01*
X169884332Y-120626037D01*
X169862926Y-120649811D01*
X169802480Y-120687050D01*
X169769290Y-120691500D01*
X162304239Y-120691500D01*
X162236118Y-120671498D01*
X162215144Y-120654595D01*
X157859315Y-116298766D01*
X157848448Y-116286375D01*
X157834013Y-116267563D01*
X157828987Y-116261013D01*
X157797075Y-116236526D01*
X157797072Y-116236523D01*
X157701876Y-116163476D01*
X157553851Y-116102162D01*
X157545664Y-116101084D01*
X157545663Y-116101084D01*
X157534458Y-116099609D01*
X157503262Y-116095502D01*
X157434885Y-116086500D01*
X157434882Y-116086500D01*
X157434874Y-116086499D01*
X157403189Y-116082328D01*
X157395000Y-116081250D01*
X157363307Y-116085422D01*
X157346864Y-116086500D01*
X157117978Y-116086500D01*
X157049857Y-116066498D01*
X157012186Y-116028940D01*
X157007490Y-116021680D01*
X156941806Y-115920148D01*
X156907822Y-115867617D01*
X156907820Y-115867614D01*
X156905014Y-115863277D01*
X156754670Y-115698051D01*
X156750619Y-115694852D01*
X156750615Y-115694848D01*
X156583414Y-115562800D01*
X156583410Y-115562798D01*
X156579359Y-115559598D01*
X156537569Y-115536529D01*
X156487598Y-115486097D01*
X156472826Y-115416654D01*
X156497942Y-115350248D01*
X156525294Y-115323641D01*
X156700328Y-115198792D01*
X156708200Y-115192139D01*
X156859052Y-115041812D01*
X156865730Y-115033965D01*
X156990003Y-114861020D01*
X156995313Y-114852183D01*
X157089670Y-114661267D01*
X157093469Y-114651672D01*
X157155377Y-114447910D01*
X157157555Y-114437837D01*
X157158986Y-114426962D01*
X157156775Y-114412778D01*
X157143617Y-114409000D01*
X154508225Y-114409000D01*
X154494694Y-114412973D01*
X154493257Y-114422966D01*
X154523565Y-114557446D01*
X154526645Y-114567275D01*
X154606770Y-114764603D01*
X154611413Y-114773794D01*
X154722694Y-114955388D01*
X154728777Y-114963699D01*
X154868213Y-115124667D01*
X154875580Y-115131883D01*
X155039434Y-115267916D01*
X155047881Y-115273831D01*
X155116969Y-115314203D01*
X155165693Y-115365842D01*
X155178764Y-115435625D01*
X155152033Y-115501396D01*
X155111584Y-115534752D01*
X155098607Y-115541507D01*
X155094474Y-115544610D01*
X155094471Y-115544612D01*
X154925199Y-115671705D01*
X154919965Y-115675635D01*
X154765629Y-115837138D01*
X154639743Y-116021680D01*
X154618939Y-116066498D01*
X154575391Y-116160316D01*
X154545688Y-116224305D01*
X154485989Y-116439570D01*
X154462251Y-116661695D01*
X154475110Y-116884715D01*
X154476247Y-116889761D01*
X154476248Y-116889767D01*
X154500304Y-116996508D01*
X154524222Y-117102639D01*
X154585673Y-117253976D01*
X154605783Y-117303500D01*
X154608266Y-117309616D01*
X154724987Y-117500088D01*
X154871250Y-117668938D01*
X155043126Y-117811632D01*
X155107930Y-117849500D01*
X155116445Y-117854476D01*
X155165169Y-117906114D01*
X155178240Y-117975897D01*
X155151509Y-118041669D01*
X155111055Y-118075027D01*
X155098607Y-118081507D01*
X155094474Y-118084610D01*
X155094471Y-118084612D01*
X154925199Y-118211705D01*
X154919965Y-118215635D01*
X154765629Y-118377138D01*
X154639743Y-118561680D01*
X154545688Y-118764305D01*
X154485989Y-118979570D01*
X154462251Y-119201695D01*
X154475110Y-119424715D01*
X154476247Y-119429761D01*
X154476248Y-119429767D01*
X154500304Y-119536508D01*
X154524222Y-119642639D01*
X154585673Y-119793976D01*
X154605783Y-119843500D01*
X154608266Y-119849616D01*
X154724987Y-120040088D01*
X154871250Y-120208938D01*
X155043126Y-120351632D01*
X155107930Y-120389500D01*
X155116445Y-120394476D01*
X155165169Y-120446114D01*
X155178240Y-120515897D01*
X155151509Y-120581669D01*
X155111055Y-120615027D01*
X155098607Y-120621507D01*
X155094474Y-120624610D01*
X155094471Y-120624612D01*
X154925199Y-120751705D01*
X154919965Y-120755635D01*
X154765629Y-120917138D01*
X154762715Y-120921410D01*
X154762714Y-120921411D01*
X154754086Y-120934059D01*
X154639743Y-121101680D01*
X154624003Y-121135590D01*
X154550734Y-121293435D01*
X154545688Y-121304305D01*
X154485989Y-121519570D01*
X154462251Y-121741695D01*
X154462548Y-121746848D01*
X154462548Y-121746851D01*
X154468011Y-121841590D01*
X154475110Y-121964715D01*
X154476247Y-121969761D01*
X154476248Y-121969767D01*
X154496119Y-122057939D01*
X154524222Y-122182639D01*
X154608266Y-122389616D01*
X154724987Y-122580088D01*
X154871250Y-122748938D01*
X155043126Y-122891632D01*
X155236000Y-123004338D01*
X155240825Y-123006180D01*
X155240826Y-123006181D01*
X155313612Y-123033975D01*
X155444692Y-123084030D01*
X155449760Y-123085061D01*
X155449763Y-123085062D01*
X155557017Y-123106883D01*
X155663597Y-123128567D01*
X155668772Y-123128757D01*
X155668774Y-123128757D01*
X155881673Y-123136564D01*
X155881677Y-123136564D01*
X155886837Y-123136753D01*
X155891957Y-123136097D01*
X155891959Y-123136097D01*
X156103288Y-123109025D01*
X156103289Y-123109025D01*
X156108416Y-123108368D01*
X156113366Y-123106883D01*
X156317429Y-123045661D01*
X156317434Y-123045659D01*
X156322384Y-123044174D01*
X156522994Y-122945896D01*
X156704860Y-122816173D01*
X156863096Y-122658489D01*
X156880703Y-122633987D01*
X156990435Y-122481277D01*
X156993453Y-122477077D01*
X157092430Y-122276811D01*
X157157370Y-122063069D01*
X157186529Y-121841590D01*
X157188156Y-121775000D01*
X157169852Y-121552361D01*
X157115431Y-121335702D01*
X157026354Y-121130840D01*
X156942075Y-121000565D01*
X156907822Y-120947617D01*
X156907820Y-120947614D01*
X156905014Y-120943277D01*
X156754670Y-120778051D01*
X156750619Y-120774852D01*
X156750615Y-120774848D01*
X156583414Y-120642800D01*
X156583410Y-120642798D01*
X156579359Y-120639598D01*
X156538053Y-120616796D01*
X156488084Y-120566364D01*
X156473312Y-120496921D01*
X156498428Y-120430516D01*
X156525780Y-120403909D01*
X156569603Y-120372650D01*
X156704860Y-120276173D01*
X156717577Y-120263501D01*
X156859435Y-120122137D01*
X156863096Y-120118489D01*
X156866698Y-120113477D01*
X156990435Y-119941277D01*
X156993453Y-119937077D01*
X157005019Y-119913675D01*
X157053132Y-119861467D01*
X157117977Y-119843500D01*
X158030761Y-119843500D01*
X158098882Y-119863502D01*
X158119856Y-119880405D01*
X160835685Y-122596234D01*
X160846552Y-122608625D01*
X160866013Y-122633987D01*
X160897925Y-122658474D01*
X160897928Y-122658477D01*
X160993124Y-122731524D01*
X161035166Y-122748938D01*
X161141150Y-122792838D01*
X161260115Y-122808500D01*
X161260120Y-122808500D01*
X161260129Y-122808501D01*
X161291812Y-122812672D01*
X161300000Y-122813750D01*
X161331693Y-122809578D01*
X161348136Y-122808500D01*
X171598529Y-122808500D01*
X171666650Y-122828502D01*
X171713143Y-122882158D01*
X171723247Y-122952432D01*
X171718363Y-122973432D01*
X171706458Y-123010072D01*
X171686496Y-123200000D01*
X171706458Y-123389928D01*
X171765473Y-123571556D01*
X171860960Y-123736944D01*
X171988747Y-123878866D01*
X172143248Y-123991118D01*
X172149276Y-123993802D01*
X172149278Y-123993803D01*
X172311681Y-124066109D01*
X172317712Y-124068794D01*
X172411112Y-124088647D01*
X172498056Y-124107128D01*
X172498061Y-124107128D01*
X172504513Y-124108500D01*
X172595761Y-124108500D01*
X172663882Y-124128502D01*
X172684856Y-124145405D01*
X173614595Y-125075144D01*
X173648621Y-125137456D01*
X173651500Y-125164239D01*
X173651500Y-125633134D01*
X173658255Y-125695316D01*
X173709385Y-125831705D01*
X173765490Y-125906565D01*
X173782630Y-125929435D01*
X173807478Y-125995941D01*
X173792425Y-126065324D01*
X173782632Y-126080562D01*
X173709385Y-126178295D01*
X173658255Y-126314684D01*
X173651500Y-126376866D01*
X173651500Y-128173134D01*
X173658255Y-128235316D01*
X173709385Y-128371705D01*
X173782630Y-128469435D01*
X173807478Y-128535941D01*
X173792425Y-128605324D01*
X173782632Y-128620562D01*
X173709385Y-128718295D01*
X173658255Y-128854684D01*
X173651500Y-128916866D01*
X173651500Y-129241769D01*
X173631498Y-129309890D01*
X173602205Y-129341731D01*
X173582928Y-129356523D01*
X173582925Y-129356526D01*
X173551013Y-129381013D01*
X173545983Y-129387568D01*
X173531548Y-129406379D01*
X173520681Y-129418770D01*
X172884856Y-130054595D01*
X172822544Y-130088621D01*
X172795761Y-130091500D01*
X162685630Y-130091500D01*
X162617509Y-130071498D01*
X162571016Y-130017842D01*
X162560912Y-129947568D01*
X162567648Y-129921271D01*
X162598971Y-129837718D01*
X162598973Y-129837712D01*
X162601745Y-129830316D01*
X162608500Y-129768134D01*
X162608500Y-127521866D01*
X162601745Y-127459684D01*
X162550615Y-127323295D01*
X162463261Y-127206739D01*
X162346705Y-127119385D01*
X162210316Y-127068255D01*
X162148134Y-127061500D01*
X161484500Y-127061500D01*
X161416379Y-127041498D01*
X161369886Y-126987842D01*
X161358500Y-126935500D01*
X161358500Y-126436999D01*
X161375381Y-126373999D01*
X161431223Y-126277279D01*
X161431224Y-126277278D01*
X161434527Y-126271556D01*
X161493542Y-126089928D01*
X161513504Y-125900000D01*
X161493542Y-125710072D01*
X161434527Y-125528444D01*
X161339040Y-125363056D01*
X161211253Y-125221134D01*
X161056752Y-125108882D01*
X161050724Y-125106198D01*
X161050722Y-125106197D01*
X160888319Y-125033891D01*
X160888318Y-125033891D01*
X160882288Y-125031206D01*
X160788888Y-125011353D01*
X160701944Y-124992872D01*
X160701939Y-124992872D01*
X160695487Y-124991500D01*
X160504513Y-124991500D01*
X160498061Y-124992872D01*
X160498056Y-124992872D01*
X160411112Y-125011353D01*
X160317712Y-125031206D01*
X160311682Y-125033891D01*
X160311681Y-125033891D01*
X160149278Y-125106197D01*
X160149276Y-125106198D01*
X160143248Y-125108882D01*
X159988747Y-125221134D01*
X159860960Y-125363056D01*
X159765473Y-125528444D01*
X159706458Y-125710072D01*
X159686496Y-125900000D01*
X159706458Y-126089928D01*
X159765473Y-126271556D01*
X159768776Y-126277278D01*
X159768777Y-126277279D01*
X159824619Y-126373999D01*
X159841500Y-126436999D01*
X159841500Y-126935500D01*
X159821498Y-127003621D01*
X159767842Y-127050114D01*
X159715500Y-127061500D01*
X159251866Y-127061500D01*
X159189684Y-127068255D01*
X159053295Y-127119385D01*
X158936739Y-127206739D01*
X158849385Y-127323295D01*
X158798255Y-127459684D01*
X158791500Y-127521866D01*
X158791500Y-129768134D01*
X158798255Y-129830316D01*
X158801027Y-129837712D01*
X158801029Y-129837718D01*
X158832352Y-129921271D01*
X158837535Y-129992078D01*
X158803614Y-130054447D01*
X158741359Y-130088576D01*
X158714370Y-130091500D01*
X158560636Y-130091500D01*
X158544193Y-130090422D01*
X158512500Y-130086250D01*
X158504311Y-130087328D01*
X158472626Y-130091499D01*
X158472617Y-130091500D01*
X158472615Y-130091500D01*
X158472609Y-130091501D01*
X158472607Y-130091501D01*
X158373043Y-130104609D01*
X158361836Y-130106084D01*
X158361834Y-130106085D01*
X158353649Y-130107162D01*
X158205624Y-130168476D01*
X158110428Y-130241523D01*
X158110425Y-130241526D01*
X158078513Y-130266013D01*
X158073483Y-130272568D01*
X158059048Y-130291379D01*
X158048181Y-130303770D01*
X157834856Y-130517095D01*
X157772544Y-130551121D01*
X157745761Y-130554000D01*
X156672000Y-130554000D01*
X156603879Y-130533998D01*
X156557386Y-130480342D01*
X156546000Y-130428000D01*
X156546000Y-130172000D01*
X156566002Y-130103879D01*
X156619658Y-130057386D01*
X156672000Y-130046000D01*
X157814885Y-130046000D01*
X157830124Y-130041525D01*
X157831329Y-130040135D01*
X157833000Y-130032452D01*
X157833000Y-130016234D01*
X157832663Y-130009718D01*
X157822925Y-129915868D01*
X157820032Y-129902472D01*
X157769512Y-129751047D01*
X157763347Y-129737885D01*
X157679574Y-129602508D01*
X157670540Y-129591110D01*
X157557871Y-129478637D01*
X157546460Y-129469625D01*
X157410937Y-129386088D01*
X157397762Y-129379945D01*
X157314564Y-129352349D01*
X157256205Y-129311918D01*
X157228968Y-129246354D01*
X157241502Y-129176472D01*
X157289826Y-129124461D01*
X157300785Y-129118653D01*
X157312120Y-129113343D01*
X157447492Y-129029574D01*
X157458890Y-129020540D01*
X157571363Y-128907871D01*
X157580375Y-128896460D01*
X157663912Y-128760937D01*
X157670056Y-128747759D01*
X157720315Y-128596234D01*
X157723181Y-128582868D01*
X157732672Y-128490230D01*
X157733000Y-128483815D01*
X157733000Y-128472115D01*
X157728525Y-128456876D01*
X157727135Y-128455671D01*
X157719452Y-128454000D01*
X156572000Y-128454000D01*
X156503879Y-128433998D01*
X156457386Y-128380342D01*
X156446000Y-128328000D01*
X156446000Y-127927885D01*
X156954000Y-127927885D01*
X156958475Y-127943124D01*
X156959865Y-127944329D01*
X156967548Y-127946000D01*
X157714885Y-127946000D01*
X157730124Y-127941525D01*
X157731329Y-127940135D01*
X157733000Y-127932452D01*
X157733000Y-127916234D01*
X157732663Y-127909718D01*
X157722925Y-127815868D01*
X157720032Y-127802472D01*
X157669512Y-127651047D01*
X157663347Y-127637885D01*
X157579574Y-127502508D01*
X157570540Y-127491110D01*
X157457871Y-127378637D01*
X157446460Y-127369625D01*
X157310937Y-127286088D01*
X157297759Y-127279944D01*
X157146234Y-127229685D01*
X157132868Y-127226819D01*
X157040230Y-127217328D01*
X157033815Y-127217000D01*
X156972115Y-127217000D01*
X156956876Y-127221475D01*
X156955671Y-127222865D01*
X156954000Y-127230548D01*
X156954000Y-127927885D01*
X156446000Y-127927885D01*
X156446000Y-127235115D01*
X156441525Y-127219876D01*
X156440135Y-127218671D01*
X156432452Y-127217000D01*
X156366234Y-127217000D01*
X156359718Y-127217337D01*
X156265868Y-127227075D01*
X156252472Y-127229968D01*
X156101047Y-127280488D01*
X156087885Y-127286653D01*
X155952508Y-127370426D01*
X155941105Y-127379464D01*
X155914475Y-127406140D01*
X155852193Y-127440219D01*
X155781373Y-127435216D01*
X155736285Y-127406295D01*
X155708183Y-127378242D01*
X155703003Y-127373071D01*
X155554920Y-127281791D01*
X155389809Y-127227026D01*
X155382973Y-127226326D01*
X155382970Y-127226325D01*
X155331474Y-127221049D01*
X155287072Y-127216500D01*
X154612928Y-127216500D01*
X154609682Y-127216837D01*
X154609678Y-127216837D01*
X154515765Y-127226581D01*
X154515761Y-127226582D01*
X154508907Y-127227293D01*
X154502371Y-127229474D01*
X154502369Y-127229474D01*
X154369605Y-127273768D01*
X154343893Y-127282346D01*
X154195969Y-127373884D01*
X154190796Y-127379066D01*
X154078242Y-127491816D01*
X154078238Y-127491821D01*
X154073071Y-127496997D01*
X153981791Y-127645080D01*
X153927026Y-127810191D01*
X153916500Y-127912928D01*
X153916500Y-128160405D01*
X153896498Y-128228526D01*
X153879595Y-128249500D01*
X153307747Y-128821348D01*
X153299461Y-128828888D01*
X153292982Y-128833000D01*
X153287557Y-128838777D01*
X153246357Y-128882651D01*
X153243602Y-128885493D01*
X153223865Y-128905230D01*
X153221385Y-128908427D01*
X153213682Y-128917447D01*
X153183414Y-128949679D01*
X153179595Y-128956625D01*
X153179593Y-128956628D01*
X153173652Y-128967434D01*
X153162801Y-128983953D01*
X153150386Y-128999959D01*
X153147239Y-129007230D01*
X153143202Y-129014057D01*
X153141484Y-129013041D01*
X153102821Y-129059500D01*
X153035113Y-129080856D01*
X152966607Y-129062216D01*
X152919054Y-129009498D01*
X152906601Y-128954876D01*
X152906602Y-128943900D01*
X152907562Y-106756163D01*
X152927567Y-106688043D01*
X152981225Y-106641552D01*
X153051499Y-106631451D01*
X153116079Y-106660947D01*
X153140706Y-106689864D01*
X153145427Y-106697493D01*
X153154460Y-106708890D01*
X153267129Y-106821363D01*
X153278540Y-106830375D01*
X153414063Y-106913912D01*
X153427241Y-106920056D01*
X153578766Y-106970315D01*
X153592132Y-106973181D01*
X153684770Y-106982672D01*
X153691185Y-106983000D01*
X153765385Y-106983000D01*
X153780624Y-106978525D01*
X153781829Y-106977135D01*
X153783500Y-106969452D01*
X153783500Y-106964885D01*
X154291500Y-106964885D01*
X154295975Y-106980124D01*
X154297365Y-106981329D01*
X154305048Y-106983000D01*
X154383766Y-106983000D01*
X154390282Y-106982663D01*
X154484132Y-106972925D01*
X154497528Y-106970032D01*
X154648953Y-106919512D01*
X154662111Y-106913349D01*
X154755568Y-106855516D01*
X154824020Y-106836679D01*
X154891790Y-106857841D01*
X154937361Y-106912281D01*
X154946264Y-106982718D01*
X154941704Y-107001596D01*
X154906458Y-107110072D01*
X154905768Y-107116633D01*
X154905768Y-107116635D01*
X154902151Y-107151047D01*
X154886496Y-107300000D01*
X154887186Y-107306565D01*
X154904706Y-107473255D01*
X154906458Y-107489928D01*
X154908498Y-107496206D01*
X154932262Y-107569345D01*
X154934289Y-107640313D01*
X154897627Y-107701111D01*
X154856659Y-107726263D01*
X154742243Y-107769156D01*
X154728295Y-107774385D01*
X154611739Y-107861739D01*
X154524385Y-107978295D01*
X154473255Y-108114684D01*
X154466500Y-108176866D01*
X154466500Y-109973134D01*
X154473255Y-110035316D01*
X154524385Y-110171705D01*
X154611739Y-110288261D01*
X154728295Y-110375615D01*
X154736704Y-110378767D01*
X154736705Y-110378768D01*
X154845451Y-110419535D01*
X154902216Y-110462176D01*
X154926916Y-110528738D01*
X154911709Y-110598087D01*
X154892316Y-110624568D01*
X154772100Y-110750367D01*
X154765629Y-110757138D01*
X154762715Y-110761410D01*
X154762714Y-110761411D01*
X154749278Y-110781107D01*
X154639743Y-110941680D01*
X154545688Y-111144305D01*
X154485989Y-111359570D01*
X154462251Y-111581695D01*
X154462548Y-111586848D01*
X154462548Y-111586851D01*
X154468011Y-111681590D01*
X154475110Y-111804715D01*
X154476247Y-111809761D01*
X154476248Y-111809767D01*
X154496119Y-111897939D01*
X154524222Y-112022639D01*
X154608266Y-112229616D01*
X154724987Y-112420088D01*
X154871250Y-112588938D01*
X155043126Y-112731632D01*
X155116955Y-112774774D01*
X155165679Y-112826412D01*
X155178750Y-112896195D01*
X155152019Y-112961967D01*
X155111562Y-112995327D01*
X155103457Y-112999546D01*
X155094738Y-113005036D01*
X154924433Y-113132905D01*
X154916726Y-113139748D01*
X154769590Y-113293717D01*
X154763104Y-113301727D01*
X154643098Y-113477649D01*
X154638000Y-113486623D01*
X154548338Y-113679783D01*
X154544775Y-113689470D01*
X154489389Y-113889183D01*
X154490912Y-113897607D01*
X154503292Y-113901000D01*
X157143344Y-113901000D01*
X157156875Y-113897027D01*
X157158180Y-113887947D01*
X157116214Y-113720875D01*
X157112894Y-113711124D01*
X157027972Y-113515814D01*
X157023105Y-113506739D01*
X156907426Y-113327926D01*
X156901136Y-113319757D01*
X156757806Y-113162240D01*
X156750273Y-113155215D01*
X156583139Y-113023222D01*
X156574556Y-113017520D01*
X156537602Y-112997120D01*
X156487631Y-112946687D01*
X156472859Y-112877245D01*
X156497975Y-112810839D01*
X156525327Y-112784232D01*
X156548797Y-112767491D01*
X156704860Y-112656173D01*
X156863096Y-112498489D01*
X156922594Y-112415689D01*
X156990435Y-112321277D01*
X156993453Y-112317077D01*
X157054379Y-112193803D01*
X157090136Y-112121453D01*
X157090137Y-112121451D01*
X157092430Y-112116811D01*
X157157370Y-111903069D01*
X157186529Y-111681590D01*
X157188156Y-111615000D01*
X157169852Y-111392361D01*
X157115431Y-111175702D01*
X157026354Y-110970840D01*
X156986906Y-110909862D01*
X156907822Y-110787617D01*
X156907820Y-110787614D01*
X156905014Y-110783277D01*
X156901532Y-110779450D01*
X156757798Y-110621488D01*
X156726746Y-110557642D01*
X156735141Y-110487143D01*
X156780317Y-110432375D01*
X156806761Y-110418706D01*
X156913297Y-110378767D01*
X156921705Y-110375615D01*
X157038261Y-110288261D01*
X157125615Y-110171705D01*
X157176745Y-110035316D01*
X157183500Y-109973134D01*
X157183500Y-108176866D01*
X157176745Y-108114684D01*
X157125615Y-107978295D01*
X157038261Y-107861739D01*
X156921705Y-107774385D01*
X156785316Y-107723255D01*
X156777460Y-107722402D01*
X156769778Y-107720575D01*
X156770081Y-107719300D01*
X156712011Y-107695167D01*
X156671588Y-107636801D01*
X156669138Y-107565847D01*
X156671354Y-107558215D01*
X156693542Y-107489928D01*
X156695295Y-107473255D01*
X156712814Y-107306565D01*
X156713504Y-107300000D01*
X156697849Y-107151047D01*
X156694232Y-107116635D01*
X156694232Y-107116633D01*
X156693542Y-107110072D01*
X156634527Y-106928444D01*
X156606736Y-106880309D01*
X156589999Y-106811316D01*
X156613219Y-106744224D01*
X156626683Y-106728293D01*
X156646758Y-106708183D01*
X156651929Y-106703003D01*
X156669454Y-106674572D01*
X156739369Y-106561150D01*
X156739370Y-106561148D01*
X156743209Y-106554920D01*
X156797974Y-106389809D01*
X156808500Y-106287072D01*
X156808500Y-105712928D01*
X156806542Y-105694059D01*
X156798419Y-105615765D01*
X156798418Y-105615761D01*
X156797707Y-105608907D01*
X156742654Y-105443893D01*
X156651116Y-105295969D01*
X156645934Y-105290796D01*
X156645930Y-105290791D01*
X156557983Y-105202998D01*
X156523903Y-105140716D01*
X156521000Y-105113825D01*
X156521000Y-105086288D01*
X156541002Y-105018167D01*
X156557827Y-104997271D01*
X156646754Y-104908188D01*
X156646758Y-104908183D01*
X156651929Y-104903003D01*
X156686020Y-104847698D01*
X156739369Y-104761150D01*
X156739370Y-104761148D01*
X156743209Y-104754920D01*
X156797974Y-104589809D01*
X156801862Y-104551866D01*
X156808172Y-104490271D01*
X156808500Y-104487072D01*
X156808500Y-103912928D01*
X156803681Y-103866483D01*
X156798419Y-103815765D01*
X156798418Y-103815761D01*
X156797707Y-103808907D01*
X156774680Y-103739885D01*
X156744972Y-103650841D01*
X156742654Y-103643893D01*
X156651116Y-103495969D01*
X156623575Y-103468476D01*
X156533184Y-103378242D01*
X156533179Y-103378238D01*
X156528003Y-103373071D01*
X156489501Y-103349338D01*
X156386150Y-103285631D01*
X156386148Y-103285630D01*
X156379920Y-103281791D01*
X156214809Y-103227026D01*
X156207973Y-103226326D01*
X156207970Y-103226325D01*
X156156474Y-103221049D01*
X156112072Y-103216500D01*
X155412928Y-103216500D01*
X155409682Y-103216837D01*
X155409678Y-103216837D01*
X155315765Y-103226581D01*
X155315761Y-103226582D01*
X155308907Y-103227293D01*
X155302371Y-103229474D01*
X155302369Y-103229474D01*
X155280186Y-103236875D01*
X155143893Y-103282346D01*
X154995969Y-103373884D01*
X154990797Y-103379065D01*
X154988727Y-103381139D01*
X154986962Y-103382105D01*
X154985059Y-103383613D01*
X154984801Y-103383287D01*
X154926446Y-103415219D01*
X154855625Y-103410218D01*
X154810530Y-103381292D01*
X154807869Y-103378636D01*
X154796460Y-103369625D01*
X154660937Y-103286088D01*
X154647759Y-103279944D01*
X154496234Y-103229685D01*
X154482868Y-103226819D01*
X154390230Y-103217328D01*
X154383815Y-103217000D01*
X154309615Y-103217000D01*
X154294376Y-103221475D01*
X154293171Y-103222865D01*
X154291500Y-103230548D01*
X154291500Y-106964885D01*
X153783500Y-106964885D01*
X153783500Y-103235115D01*
X153779025Y-103219876D01*
X153777635Y-103218671D01*
X153769952Y-103217000D01*
X153691234Y-103217000D01*
X153684718Y-103217337D01*
X153590868Y-103227075D01*
X153577472Y-103229968D01*
X153426047Y-103280488D01*
X153412885Y-103286653D01*
X153277508Y-103370426D01*
X153266110Y-103379460D01*
X153153637Y-103492129D01*
X153144623Y-103503542D01*
X153140963Y-103509480D01*
X153088189Y-103556972D01*
X153018117Y-103568393D01*
X152952994Y-103540117D01*
X152913496Y-103481122D01*
X152907705Y-103443356D01*
X152907706Y-103436703D01*
X152907868Y-99677203D01*
X152907999Y-96671042D01*
X152909304Y-96652957D01*
X152909548Y-96651279D01*
X152913223Y-96625948D01*
X152910939Y-96609784D01*
X152909894Y-96585170D01*
X152921335Y-96379284D01*
X152923344Y-96362816D01*
X152966632Y-96134378D01*
X152970787Y-96118317D01*
X153043716Y-95897536D01*
X153049946Y-95882159D01*
X153114978Y-95747810D01*
X153151247Y-95672881D01*
X153159441Y-95658460D01*
X153172676Y-95638373D01*
X153287356Y-95464311D01*
X153297375Y-95451088D01*
X153449703Y-95275412D01*
X153461374Y-95263621D01*
X153635441Y-95109500D01*
X153648559Y-95099344D01*
X153841384Y-94969416D01*
X153855723Y-94961071D01*
X154063938Y-94857608D01*
X154079244Y-94851221D01*
X154299266Y-94776004D01*
X154315269Y-94771687D01*
X154481796Y-94738339D01*
X154543250Y-94726033D01*
X154559696Y-94723853D01*
X154582281Y-94722363D01*
X154758296Y-94710751D01*
X154780976Y-94711757D01*
X154784854Y-94711804D01*
X154793727Y-94713186D01*
X154802629Y-94712022D01*
X154802633Y-94712022D01*
X154825183Y-94709073D01*
X154841545Y-94708009D01*
X195776000Y-94716517D01*
G37*
%TD.AperFunction*%
%TA.AperFunction,Conductor*%
G36*
X165795623Y-106442914D02*
G01*
X165865130Y-106471705D01*
X165875656Y-106476065D01*
X165928262Y-106516907D01*
X165981739Y-106588261D01*
X166098295Y-106675615D01*
X166234684Y-106726745D01*
X166296866Y-106733500D01*
X167953134Y-106733500D01*
X168015316Y-106726745D01*
X168151705Y-106675615D01*
X168154842Y-106673264D01*
X168212550Y-106658500D01*
X169215500Y-106658500D01*
X169283621Y-106678502D01*
X169330114Y-106732158D01*
X169341500Y-106784500D01*
X169341500Y-106851278D01*
X169321498Y-106919399D01*
X169304673Y-106940296D01*
X169253242Y-106991816D01*
X169253238Y-106991821D01*
X169248071Y-106996997D01*
X169244231Y-107003227D01*
X169244230Y-107003228D01*
X169173660Y-107117714D01*
X169156791Y-107145080D01*
X169102026Y-107310191D01*
X169091500Y-107412928D01*
X169091500Y-107987072D01*
X169091837Y-107990318D01*
X169091837Y-107990322D01*
X169101440Y-108082868D01*
X169102293Y-108091093D01*
X169104474Y-108097629D01*
X169104474Y-108097631D01*
X169129776Y-108173469D01*
X169157346Y-108256107D01*
X169161202Y-108262338D01*
X169240888Y-108391109D01*
X169248884Y-108404031D01*
X169304519Y-108459569D01*
X169338597Y-108521849D01*
X169341500Y-108548740D01*
X169341500Y-108653006D01*
X169321498Y-108721127D01*
X169309135Y-108737317D01*
X169290383Y-108758143D01*
X169290380Y-108758147D01*
X169285960Y-108763056D01*
X169282657Y-108768777D01*
X169203820Y-108905327D01*
X169190473Y-108928444D01*
X169149510Y-109054516D01*
X169135613Y-109097285D01*
X169104875Y-109147444D01*
X168847724Y-109404595D01*
X168785412Y-109438621D01*
X168758629Y-109441500D01*
X168212550Y-109441500D01*
X168154842Y-109426736D01*
X168151705Y-109424385D01*
X168015316Y-109373255D01*
X168008010Y-109372461D01*
X167946576Y-109337365D01*
X167913756Y-109274410D01*
X167920182Y-109203705D01*
X167963814Y-109147698D01*
X168007940Y-109127546D01*
X168015316Y-109126745D01*
X168151705Y-109075615D01*
X168224346Y-109021174D01*
X168290851Y-108996326D01*
X168299910Y-108996000D01*
X168394884Y-108996000D01*
X168410123Y-108991525D01*
X168411328Y-108990135D01*
X168412999Y-108982452D01*
X168412999Y-108880331D01*
X168412629Y-108873510D01*
X168407105Y-108822651D01*
X168402965Y-108805236D01*
X168402966Y-108746942D01*
X168403971Y-108742716D01*
X168406745Y-108735316D01*
X168413500Y-108673134D01*
X168413500Y-107926866D01*
X168406745Y-107864684D01*
X168355615Y-107728295D01*
X168268261Y-107611739D01*
X168151705Y-107524385D01*
X168015316Y-107473255D01*
X167953134Y-107466500D01*
X166296866Y-107466500D01*
X166234684Y-107473255D01*
X166098295Y-107524385D01*
X166071289Y-107544625D01*
X165988922Y-107606355D01*
X165988919Y-107606358D01*
X165981739Y-107611739D01*
X165976358Y-107618919D01*
X165976352Y-107618925D01*
X165957796Y-107643684D01*
X165900937Y-107686199D01*
X165873417Y-107693040D01*
X165766149Y-107707162D01*
X165758520Y-107710322D01*
X165750541Y-107712460D01*
X165750082Y-107710748D01*
X165689496Y-107717259D01*
X165626010Y-107685477D01*
X165611048Y-107668828D01*
X165573644Y-107618921D01*
X165573642Y-107618919D01*
X165568261Y-107611739D01*
X165451705Y-107524385D01*
X165315316Y-107473255D01*
X165253134Y-107466500D01*
X163596866Y-107466500D01*
X163534684Y-107473255D01*
X163398295Y-107524385D01*
X163281739Y-107611739D01*
X163276354Y-107618925D01*
X163231883Y-107678262D01*
X163175024Y-107720777D01*
X163104206Y-107725803D01*
X163041912Y-107691743D01*
X163032312Y-107680962D01*
X163020542Y-107666112D01*
X162907871Y-107553637D01*
X162896460Y-107544625D01*
X162805946Y-107488832D01*
X162758453Y-107436060D01*
X162747029Y-107365989D01*
X162775303Y-107300865D01*
X162805753Y-107274432D01*
X162904031Y-107213616D01*
X162909204Y-107208434D01*
X163021758Y-107095684D01*
X163021762Y-107095679D01*
X163026929Y-107090503D01*
X163094968Y-106980124D01*
X163114369Y-106948650D01*
X163114370Y-106948648D01*
X163118209Y-106942420D01*
X163172974Y-106777309D01*
X163173675Y-106770469D01*
X163175118Y-106763738D01*
X163176653Y-106764067D01*
X163200394Y-106705930D01*
X163258509Y-106665148D01*
X163298897Y-106658500D01*
X163337450Y-106658500D01*
X163395158Y-106673264D01*
X163398295Y-106675615D01*
X163534684Y-106726745D01*
X163596866Y-106733500D01*
X165253134Y-106733500D01*
X165315316Y-106726745D01*
X165451705Y-106675615D01*
X165568261Y-106588261D01*
X165646581Y-106483759D01*
X165703440Y-106441244D01*
X165774259Y-106436218D01*
X165795623Y-106442914D01*
G37*
%TD.AperFunction*%
M02*
