%TF.GenerationSoftware,KiCad,Pcbnew,(6.0.1)*%
%TF.CreationDate,2022-08-20T19:26:56-07:00*%
%TF.ProjectId,frame_board,6672616d-655f-4626-9f61-72642e6b6963,rev?*%
%TF.SameCoordinates,Original*%
%TF.FileFunction,Copper,L2,Bot*%
%TF.FilePolarity,Positive*%
%FSLAX46Y46*%
G04 Gerber Fmt 4.6, Leading zero omitted, Abs format (unit mm)*
G04 Created by KiCad (PCBNEW (6.0.1)) date 2022-08-20 19:26:56*
%MOMM*%
%LPD*%
G01*
G04 APERTURE LIST*
G04 Aperture macros list*
%AMRoundRect*
0 Rectangle with rounded corners*
0 $1 Rounding radius*
0 $2 $3 $4 $5 $6 $7 $8 $9 X,Y pos of 4 corners*
0 Add a 4 corners polygon primitive as box body*
4,1,4,$2,$3,$4,$5,$6,$7,$8,$9,$2,$3,0*
0 Add four circle primitives for the rounded corners*
1,1,$1+$1,$2,$3*
1,1,$1+$1,$4,$5*
1,1,$1+$1,$6,$7*
1,1,$1+$1,$8,$9*
0 Add four rect primitives between the rounded corners*
20,1,$1+$1,$2,$3,$4,$5,0*
20,1,$1+$1,$4,$5,$6,$7,0*
20,1,$1+$1,$6,$7,$8,$9,0*
20,1,$1+$1,$8,$9,$2,$3,0*%
G04 Aperture macros list end*
%TA.AperFunction,SMDPad,CuDef*%
%ADD10R,1.600000X0.900000*%
%TD*%
%TA.AperFunction,ComponentPad*%
%ADD11C,0.600000*%
%TD*%
%TA.AperFunction,ComponentPad*%
%ADD12RoundRect,0.250000X-0.350000X-0.625000X0.350000X-0.625000X0.350000X0.625000X-0.350000X0.625000X0*%
%TD*%
%TA.AperFunction,ComponentPad*%
%ADD13O,1.200000X1.750000*%
%TD*%
%TA.AperFunction,ComponentPad*%
%ADD14RoundRect,0.250000X0.350000X0.625000X-0.350000X0.625000X-0.350000X-0.625000X0.350000X-0.625000X0*%
%TD*%
%TA.AperFunction,ComponentPad*%
%ADD15R,1.700000X1.700000*%
%TD*%
%TA.AperFunction,ComponentPad*%
%ADD16O,1.700000X1.700000*%
%TD*%
%TA.AperFunction,ViaPad*%
%ADD17C,0.800000*%
%TD*%
%TA.AperFunction,Conductor*%
%ADD18C,0.500000*%
%TD*%
%TA.AperFunction,Conductor*%
%ADD19C,0.200000*%
%TD*%
G04 APERTURE END LIST*
D10*
X158912458Y-105800000D03*
D11*
X158912458Y-105800000D03*
D12*
X166700000Y-140100000D03*
D13*
X168700000Y-140100000D03*
X170700000Y-140100000D03*
D14*
X169425000Y-101050000D03*
D13*
X167425000Y-101050000D03*
D12*
X156700000Y-140100000D03*
D13*
X158700000Y-140100000D03*
X160700000Y-140100000D03*
D15*
X155825000Y-109075000D03*
D16*
X155825000Y-111615000D03*
X155825000Y-114155000D03*
X155825000Y-116695000D03*
X155825000Y-119235000D03*
X155825000Y-121775000D03*
D14*
X159812458Y-101050000D03*
D13*
X157812458Y-101050000D03*
D17*
X192665000Y-99335000D03*
X191400000Y-99300000D03*
X155800000Y-107300000D03*
X165700000Y-107100000D03*
X160600000Y-125900000D03*
X160600000Y-107800000D03*
X172600000Y-123200000D03*
X170500000Y-121300000D03*
X164400000Y-111400000D03*
X160800000Y-104800000D03*
X160700000Y-135500000D03*
X168800000Y-109200000D03*
X168800000Y-105000000D03*
X170025000Y-109300000D03*
X170100000Y-105800000D03*
D18*
X160600000Y-107800000D02*
X160600000Y-125900000D01*
X168600000Y-107100000D02*
X168800000Y-106900000D01*
X165700000Y-107100000D02*
X168600000Y-107100000D01*
X168800000Y-106900000D02*
X168800000Y-109200000D01*
X168800000Y-105000000D02*
X168800000Y-106900000D01*
D19*
X172400000Y-123200000D02*
X172600000Y-123200000D01*
X170500000Y-121300000D02*
X172400000Y-123200000D01*
%TA.AperFunction,Conductor*%
G36*
X169697051Y-94711096D02*
G01*
X195776000Y-94716517D01*
X195790158Y-94717318D01*
X195818384Y-94720516D01*
X195818387Y-94720516D01*
X195827302Y-94721526D01*
X195836144Y-94719993D01*
X195843152Y-94718778D01*
X195867895Y-94716966D01*
X195975423Y-94719713D01*
X196079114Y-94722363D01*
X196095958Y-94723930D01*
X196330285Y-94761724D01*
X196346769Y-94765533D01*
X196573928Y-94834381D01*
X196589752Y-94840364D01*
X196625005Y-94856474D01*
X196805636Y-94939021D01*
X196820514Y-94947068D01*
X197021239Y-95073759D01*
X197034907Y-95083729D01*
X197216848Y-95236167D01*
X197229052Y-95247872D01*
X197388946Y-95423325D01*
X197399459Y-95436544D01*
X197534403Y-95631832D01*
X197543061Y-95646358D01*
X197650625Y-95857958D01*
X197657261Y-95873520D01*
X197735504Y-96097609D01*
X197739996Y-96113920D01*
X197787513Y-96346470D01*
X197789780Y-96363233D01*
X197797270Y-96474544D01*
X197803484Y-96566897D01*
X197802539Y-96588533D01*
X197802480Y-96593380D01*
X197801098Y-96602254D01*
X197805209Y-96633691D01*
X197806272Y-96650049D01*
X197794864Y-134971783D01*
X197792008Y-144563781D01*
X197791207Y-144577926D01*
X197786996Y-144615098D01*
X197788529Y-144623940D01*
X197789744Y-144630948D01*
X197791556Y-144655691D01*
X197788809Y-144763219D01*
X197786159Y-144866910D01*
X197784592Y-144883754D01*
X197746798Y-145118081D01*
X197742989Y-145134565D01*
X197674141Y-145361724D01*
X197668158Y-145377548D01*
X197569503Y-145593429D01*
X197561454Y-145608310D01*
X197434763Y-145809035D01*
X197424793Y-145822703D01*
X197272355Y-146004644D01*
X197260650Y-146016848D01*
X197085197Y-146176742D01*
X197071978Y-146187255D01*
X196876690Y-146322199D01*
X196862164Y-146330857D01*
X196650564Y-146438421D01*
X196635002Y-146445057D01*
X196410913Y-146523300D01*
X196394602Y-146527792D01*
X196237693Y-146559853D01*
X196162050Y-146575309D01*
X196145289Y-146577576D01*
X195941621Y-146591280D01*
X195919989Y-146590335D01*
X195915140Y-146590276D01*
X195906268Y-146588894D01*
X195897366Y-146590058D01*
X195897364Y-146590058D01*
X195889258Y-146591118D01*
X195874756Y-146593015D01*
X195858426Y-146594078D01*
X165141880Y-146592518D01*
X165080817Y-146576729D01*
X165017436Y-146541606D01*
X165005476Y-146534070D01*
X164742306Y-146346797D01*
X164731248Y-146337951D01*
X164490766Y-146122340D01*
X164480770Y-146112309D01*
X164266001Y-145871073D01*
X164257194Y-145859984D01*
X164147684Y-145704948D01*
X164070853Y-145596176D01*
X164063346Y-145584170D01*
X163907777Y-145301103D01*
X163901665Y-145288329D01*
X163778846Y-144989603D01*
X163774206Y-144976224D01*
X163685686Y-144665612D01*
X163682576Y-144651797D01*
X163677933Y-144623940D01*
X163629468Y-144333199D01*
X163627928Y-144319125D01*
X163610719Y-143993036D01*
X163610545Y-143985955D01*
X163619289Y-141486935D01*
X163621790Y-140772095D01*
X165592001Y-140772095D01*
X165592338Y-140778614D01*
X165602257Y-140874206D01*
X165605149Y-140887600D01*
X165656588Y-141041784D01*
X165662761Y-141054962D01*
X165748063Y-141192807D01*
X165757099Y-141204208D01*
X165871829Y-141318739D01*
X165883240Y-141327751D01*
X166021243Y-141412816D01*
X166034424Y-141418963D01*
X166188710Y-141470138D01*
X166202086Y-141473005D01*
X166296438Y-141482672D01*
X166302854Y-141483000D01*
X166427885Y-141483000D01*
X166443124Y-141478525D01*
X166444329Y-141477135D01*
X166446000Y-141469452D01*
X166446000Y-141464884D01*
X166954000Y-141464884D01*
X166958475Y-141480123D01*
X166959865Y-141481328D01*
X166967548Y-141482999D01*
X167097095Y-141482999D01*
X167103614Y-141482662D01*
X167199206Y-141472743D01*
X167212600Y-141469851D01*
X167366784Y-141418412D01*
X167379962Y-141412239D01*
X167517807Y-141326937D01*
X167529208Y-141317901D01*
X167643739Y-141203171D01*
X167652751Y-141191760D01*
X167680745Y-141146345D01*
X167733517Y-141098852D01*
X167803589Y-141087428D01*
X167868713Y-141115702D01*
X167887088Y-141134625D01*
X167893604Y-141142920D01*
X167898135Y-141146852D01*
X167898138Y-141146855D01*
X167984058Y-141221412D01*
X168053363Y-141281552D01*
X168058549Y-141284552D01*
X168058553Y-141284555D01*
X168154957Y-141340326D01*
X168236454Y-141387473D01*
X168436271Y-141456861D01*
X168442206Y-141457722D01*
X168442208Y-141457722D01*
X168639664Y-141486352D01*
X168639667Y-141486352D01*
X168645604Y-141487213D01*
X168856899Y-141477433D01*
X168988077Y-141445819D01*
X169056701Y-141429281D01*
X169056703Y-141429280D01*
X169062534Y-141427875D01*
X169067992Y-141425393D01*
X169067996Y-141425392D01*
X169183041Y-141373084D01*
X169255087Y-141340326D01*
X169427611Y-141217946D01*
X169573881Y-141065150D01*
X169580459Y-141054962D01*
X169594746Y-141032837D01*
X169648501Y-140986460D01*
X169718797Y-140976507D01*
X169783314Y-141006139D01*
X169799681Y-141023351D01*
X169893604Y-141142920D01*
X169898135Y-141146852D01*
X169898138Y-141146855D01*
X169984058Y-141221412D01*
X170053363Y-141281552D01*
X170058549Y-141284552D01*
X170058553Y-141284555D01*
X170154957Y-141340326D01*
X170236454Y-141387473D01*
X170436271Y-141456861D01*
X170442206Y-141457722D01*
X170442208Y-141457722D01*
X170639664Y-141486352D01*
X170639667Y-141486352D01*
X170645604Y-141487213D01*
X170856899Y-141477433D01*
X170988077Y-141445819D01*
X171056701Y-141429281D01*
X171056703Y-141429280D01*
X171062534Y-141427875D01*
X171067992Y-141425393D01*
X171067996Y-141425392D01*
X171183041Y-141373084D01*
X171255087Y-141340326D01*
X171427611Y-141217946D01*
X171573881Y-141065150D01*
X171688620Y-140887452D01*
X171767686Y-140691263D01*
X171808228Y-140483663D01*
X171808500Y-140478101D01*
X171808500Y-139772154D01*
X171793452Y-139614434D01*
X171733908Y-139411466D01*
X171698905Y-139343503D01*
X171639804Y-139228751D01*
X171639802Y-139228748D01*
X171637058Y-139223420D01*
X171506396Y-139057080D01*
X171501865Y-139053148D01*
X171501862Y-139053145D01*
X171351167Y-138922379D01*
X171346637Y-138918448D01*
X171341451Y-138915448D01*
X171341447Y-138915445D01*
X171168742Y-138815533D01*
X171163546Y-138812527D01*
X170963729Y-138743139D01*
X170957794Y-138742278D01*
X170957792Y-138742278D01*
X170760336Y-138713648D01*
X170760333Y-138713648D01*
X170754396Y-138712787D01*
X170543101Y-138722567D01*
X170411923Y-138754181D01*
X170343299Y-138770719D01*
X170343297Y-138770720D01*
X170337466Y-138772125D01*
X170332008Y-138774607D01*
X170332004Y-138774608D01*
X170216959Y-138826916D01*
X170144913Y-138859674D01*
X169972389Y-138982054D01*
X169826119Y-139134850D01*
X169822866Y-139139888D01*
X169805254Y-139167163D01*
X169751499Y-139213540D01*
X169681203Y-139223493D01*
X169616686Y-139193861D01*
X169600317Y-139176647D01*
X169576435Y-139146243D01*
X169506396Y-139057080D01*
X169501865Y-139053148D01*
X169501862Y-139053145D01*
X169351167Y-138922379D01*
X169346637Y-138918448D01*
X169341451Y-138915448D01*
X169341447Y-138915445D01*
X169168742Y-138815533D01*
X169163546Y-138812527D01*
X168963729Y-138743139D01*
X168957794Y-138742278D01*
X168957792Y-138742278D01*
X168760336Y-138713648D01*
X168760333Y-138713648D01*
X168754396Y-138712787D01*
X168543101Y-138722567D01*
X168411923Y-138754181D01*
X168343299Y-138770719D01*
X168343297Y-138770720D01*
X168337466Y-138772125D01*
X168332008Y-138774607D01*
X168332004Y-138774608D01*
X168216959Y-138826916D01*
X168144913Y-138859674D01*
X167972389Y-138982054D01*
X167968251Y-138986377D01*
X167968246Y-138986381D01*
X167880836Y-139077691D01*
X167819280Y-139113067D01*
X167748371Y-139109548D01*
X167690621Y-139068251D01*
X167682674Y-139056863D01*
X167651937Y-139007193D01*
X167642901Y-138995792D01*
X167528171Y-138881261D01*
X167516760Y-138872249D01*
X167378757Y-138787184D01*
X167365576Y-138781037D01*
X167211290Y-138729862D01*
X167197914Y-138726995D01*
X167103562Y-138717328D01*
X167097145Y-138717000D01*
X166972115Y-138717000D01*
X166956876Y-138721475D01*
X166955671Y-138722865D01*
X166954000Y-138730548D01*
X166954000Y-141464884D01*
X166446000Y-141464884D01*
X166446000Y-140372115D01*
X166441525Y-140356876D01*
X166440135Y-140355671D01*
X166432452Y-140354000D01*
X165610116Y-140354000D01*
X165594877Y-140358475D01*
X165593672Y-140359865D01*
X165592001Y-140367548D01*
X165592001Y-140772095D01*
X163621790Y-140772095D01*
X163625094Y-139827885D01*
X165592000Y-139827885D01*
X165596475Y-139843124D01*
X165597865Y-139844329D01*
X165605548Y-139846000D01*
X166427885Y-139846000D01*
X166443124Y-139841525D01*
X166444329Y-139840135D01*
X166446000Y-139832452D01*
X166446000Y-138735116D01*
X166441525Y-138719877D01*
X166440135Y-138718672D01*
X166432452Y-138717001D01*
X166302905Y-138717001D01*
X166296386Y-138717338D01*
X166200794Y-138727257D01*
X166187400Y-138730149D01*
X166033216Y-138781588D01*
X166020038Y-138787761D01*
X165882193Y-138873063D01*
X165870792Y-138882099D01*
X165756261Y-138996829D01*
X165747249Y-139008240D01*
X165662184Y-139146243D01*
X165656037Y-139159424D01*
X165604862Y-139313710D01*
X165601995Y-139327086D01*
X165592328Y-139421438D01*
X165592000Y-139427855D01*
X165592000Y-139827885D01*
X163625094Y-139827885D01*
X163689918Y-121300000D01*
X169586496Y-121300000D01*
X169606458Y-121489928D01*
X169665473Y-121671556D01*
X169760960Y-121836944D01*
X169888747Y-121978866D01*
X170043248Y-122091118D01*
X170049276Y-122093802D01*
X170049278Y-122093803D01*
X170211681Y-122166109D01*
X170217712Y-122168794D01*
X170311113Y-122188647D01*
X170398056Y-122207128D01*
X170398061Y-122207128D01*
X170404513Y-122208500D01*
X170495761Y-122208500D01*
X170563882Y-122228502D01*
X170584856Y-122245405D01*
X171674775Y-123335324D01*
X171704730Y-123390489D01*
X171706458Y-123389928D01*
X171765473Y-123571556D01*
X171860960Y-123736944D01*
X171988747Y-123878866D01*
X172143248Y-123991118D01*
X172149276Y-123993802D01*
X172149278Y-123993803D01*
X172311681Y-124066109D01*
X172317712Y-124068794D01*
X172411112Y-124088647D01*
X172498056Y-124107128D01*
X172498061Y-124107128D01*
X172504513Y-124108500D01*
X172695487Y-124108500D01*
X172701939Y-124107128D01*
X172701944Y-124107128D01*
X172788888Y-124088647D01*
X172882288Y-124068794D01*
X172888319Y-124066109D01*
X173050722Y-123993803D01*
X173050724Y-123993802D01*
X173056752Y-123991118D01*
X173211253Y-123878866D01*
X173339040Y-123736944D01*
X173434527Y-123571556D01*
X173493542Y-123389928D01*
X173513504Y-123200000D01*
X173493542Y-123010072D01*
X173434527Y-122828444D01*
X173339040Y-122663056D01*
X173211253Y-122521134D01*
X173056752Y-122408882D01*
X173050724Y-122406198D01*
X173050722Y-122406197D01*
X172888319Y-122333891D01*
X172888318Y-122333891D01*
X172882288Y-122331206D01*
X172788888Y-122311353D01*
X172701944Y-122292872D01*
X172701939Y-122292872D01*
X172695487Y-122291500D01*
X172504513Y-122291500D01*
X172498059Y-122292872D01*
X172498057Y-122292872D01*
X172478729Y-122296980D01*
X172445691Y-122304003D01*
X172374901Y-122298601D01*
X172330400Y-122269851D01*
X171449719Y-121389170D01*
X171415693Y-121326858D01*
X171413159Y-121303284D01*
X171413504Y-121300000D01*
X171393542Y-121110072D01*
X171334527Y-120928444D01*
X171239040Y-120763056D01*
X171111253Y-120621134D01*
X170956752Y-120508882D01*
X170950724Y-120506198D01*
X170950722Y-120506197D01*
X170788319Y-120433891D01*
X170788318Y-120433891D01*
X170782288Y-120431206D01*
X170688887Y-120411353D01*
X170601944Y-120392872D01*
X170601939Y-120392872D01*
X170595487Y-120391500D01*
X170404513Y-120391500D01*
X170398061Y-120392872D01*
X170398056Y-120392872D01*
X170311113Y-120411353D01*
X170217712Y-120431206D01*
X170211682Y-120433891D01*
X170211681Y-120433891D01*
X170049278Y-120506197D01*
X170049276Y-120506198D01*
X170043248Y-120508882D01*
X169888747Y-120621134D01*
X169760960Y-120763056D01*
X169665473Y-120928444D01*
X169606458Y-121110072D01*
X169586496Y-121300000D01*
X163689918Y-121300000D01*
X163731892Y-109302963D01*
X163731896Y-109301605D01*
X163731957Y-109301399D01*
X163731897Y-109301399D01*
X163731904Y-109299839D01*
X163741891Y-107100000D01*
X164786496Y-107100000D01*
X164806458Y-107289928D01*
X164865473Y-107471556D01*
X164960960Y-107636944D01*
X165088747Y-107778866D01*
X165187843Y-107850864D01*
X165237904Y-107887235D01*
X165243248Y-107891118D01*
X165249276Y-107893802D01*
X165249278Y-107893803D01*
X165411681Y-107966109D01*
X165417712Y-107968794D01*
X165491603Y-107984500D01*
X165598056Y-108007128D01*
X165598061Y-108007128D01*
X165604513Y-108008500D01*
X165795487Y-108008500D01*
X165801939Y-108007128D01*
X165801944Y-108007128D01*
X165908397Y-107984500D01*
X165982288Y-107968794D01*
X165988319Y-107966109D01*
X166150722Y-107893803D01*
X166150724Y-107893802D01*
X166156752Y-107891118D01*
X166162091Y-107887239D01*
X166162098Y-107887235D01*
X166168528Y-107882563D01*
X166242587Y-107858500D01*
X167915500Y-107858500D01*
X167983621Y-107878502D01*
X168030114Y-107932158D01*
X168041500Y-107984500D01*
X168041500Y-108663001D01*
X168024619Y-108726000D01*
X167965473Y-108828444D01*
X167906458Y-109010072D01*
X167905768Y-109016633D01*
X167905768Y-109016635D01*
X167895948Y-109110072D01*
X167886496Y-109200000D01*
X167906458Y-109389928D01*
X167965473Y-109571556D01*
X168060960Y-109736944D01*
X168188747Y-109878866D01*
X168287843Y-109950864D01*
X168326385Y-109978866D01*
X168343248Y-109991118D01*
X168349276Y-109993802D01*
X168349278Y-109993803D01*
X168511681Y-110066109D01*
X168517712Y-110068794D01*
X168604479Y-110087237D01*
X168698056Y-110107128D01*
X168698061Y-110107128D01*
X168704513Y-110108500D01*
X168895487Y-110108500D01*
X168901939Y-110107128D01*
X168901944Y-110107128D01*
X168995521Y-110087237D01*
X169082288Y-110068794D01*
X169088319Y-110066109D01*
X169250722Y-109993803D01*
X169250724Y-109993802D01*
X169256752Y-109991118D01*
X169269621Y-109981768D01*
X169336489Y-109957910D01*
X169405640Y-109973991D01*
X169417742Y-109981769D01*
X169539410Y-110070166D01*
X169568248Y-110091118D01*
X169574276Y-110093802D01*
X169574278Y-110093803D01*
X169736681Y-110166109D01*
X169742712Y-110168794D01*
X169836113Y-110188647D01*
X169923056Y-110207128D01*
X169923061Y-110207128D01*
X169929513Y-110208500D01*
X170120487Y-110208500D01*
X170126939Y-110207128D01*
X170126944Y-110207128D01*
X170213887Y-110188647D01*
X170307288Y-110168794D01*
X170313319Y-110166109D01*
X170475722Y-110093803D01*
X170475724Y-110093802D01*
X170481752Y-110091118D01*
X170636253Y-109978866D01*
X170764040Y-109836944D01*
X170859527Y-109671556D01*
X170918542Y-109489928D01*
X170928393Y-109396206D01*
X170937814Y-109306565D01*
X170938504Y-109300000D01*
X170918542Y-109110072D01*
X170859527Y-108928444D01*
X170764040Y-108763056D01*
X170636253Y-108621134D01*
X170537157Y-108549136D01*
X170487094Y-108512763D01*
X170487093Y-108512762D01*
X170481752Y-108508882D01*
X170475724Y-108506198D01*
X170475722Y-108506197D01*
X170313319Y-108433891D01*
X170313318Y-108433891D01*
X170307288Y-108431206D01*
X170213887Y-108411353D01*
X170126944Y-108392872D01*
X170126939Y-108392872D01*
X170120487Y-108391500D01*
X169929513Y-108391500D01*
X169923061Y-108392872D01*
X169923056Y-108392872D01*
X169836113Y-108411353D01*
X169742712Y-108431206D01*
X169736682Y-108433891D01*
X169736681Y-108433891D01*
X169735747Y-108434307D01*
X169735158Y-108434386D01*
X169730400Y-108435932D01*
X169730117Y-108435062D01*
X169665380Y-108443740D01*
X169601083Y-108413632D01*
X169563271Y-108353543D01*
X169558500Y-108319199D01*
X169558500Y-106987952D01*
X169558999Y-106976752D01*
X169559151Y-106975048D01*
X169560641Y-106967885D01*
X169558546Y-106890458D01*
X169558500Y-106887050D01*
X169558500Y-106747409D01*
X169578502Y-106679288D01*
X169632158Y-106632795D01*
X169702432Y-106622691D01*
X169735748Y-106632302D01*
X169811677Y-106666108D01*
X169811685Y-106666111D01*
X169817712Y-106668794D01*
X169911112Y-106688647D01*
X169998056Y-106707128D01*
X169998061Y-106707128D01*
X170004513Y-106708500D01*
X170195487Y-106708500D01*
X170201939Y-106707128D01*
X170201944Y-106707128D01*
X170288887Y-106688647D01*
X170382288Y-106668794D01*
X170388321Y-106666108D01*
X170550722Y-106593803D01*
X170550724Y-106593802D01*
X170556752Y-106591118D01*
X170711253Y-106478866D01*
X170839040Y-106336944D01*
X170934527Y-106171556D01*
X170993542Y-105989928D01*
X171013504Y-105800000D01*
X170993542Y-105610072D01*
X170934527Y-105428444D01*
X170839040Y-105263056D01*
X170711253Y-105121134D01*
X170556752Y-105008882D01*
X170550724Y-105006198D01*
X170550722Y-105006197D01*
X170388319Y-104933891D01*
X170388318Y-104933891D01*
X170382288Y-104931206D01*
X170288887Y-104911353D01*
X170201944Y-104892872D01*
X170201939Y-104892872D01*
X170195487Y-104891500D01*
X170004513Y-104891500D01*
X169998061Y-104892872D01*
X169998056Y-104892872D01*
X169898744Y-104913982D01*
X169845587Y-104925281D01*
X169774797Y-104919879D01*
X169718165Y-104877062D01*
X169697039Y-104822795D01*
X169695606Y-104823100D01*
X169694232Y-104816635D01*
X169693542Y-104810072D01*
X169634527Y-104628444D01*
X169539040Y-104463056D01*
X169411253Y-104321134D01*
X169256752Y-104208882D01*
X169250724Y-104206198D01*
X169250722Y-104206197D01*
X169088319Y-104133891D01*
X169088318Y-104133891D01*
X169082288Y-104131206D01*
X168988887Y-104111353D01*
X168901944Y-104092872D01*
X168901939Y-104092872D01*
X168895487Y-104091500D01*
X168704513Y-104091500D01*
X168698061Y-104092872D01*
X168698056Y-104092872D01*
X168611113Y-104111353D01*
X168517712Y-104131206D01*
X168511682Y-104133891D01*
X168511681Y-104133891D01*
X168349278Y-104206197D01*
X168349276Y-104206198D01*
X168343248Y-104208882D01*
X168188747Y-104321134D01*
X168060960Y-104463056D01*
X167965473Y-104628444D01*
X167906458Y-104810072D01*
X167886496Y-105000000D01*
X167887186Y-105006565D01*
X167899228Y-105121134D01*
X167906458Y-105189928D01*
X167965473Y-105371556D01*
X167968776Y-105377278D01*
X167968777Y-105377279D01*
X168024619Y-105473999D01*
X168041500Y-105536999D01*
X168041500Y-106215500D01*
X168021498Y-106283621D01*
X167967842Y-106330114D01*
X167915500Y-106341500D01*
X166242587Y-106341500D01*
X166168528Y-106317437D01*
X166162098Y-106312765D01*
X166162091Y-106312761D01*
X166156752Y-106308882D01*
X166150724Y-106306198D01*
X166150722Y-106306197D01*
X165988319Y-106233891D01*
X165988318Y-106233891D01*
X165982288Y-106231206D01*
X165888887Y-106211353D01*
X165801944Y-106192872D01*
X165801939Y-106192872D01*
X165795487Y-106191500D01*
X165604513Y-106191500D01*
X165598061Y-106192872D01*
X165598056Y-106192872D01*
X165511112Y-106211353D01*
X165417712Y-106231206D01*
X165411682Y-106233891D01*
X165411681Y-106233891D01*
X165249278Y-106306197D01*
X165249276Y-106306198D01*
X165243248Y-106308882D01*
X165237907Y-106312762D01*
X165237906Y-106312763D01*
X165231473Y-106317437D01*
X165088747Y-106421134D01*
X164960960Y-106563056D01*
X164865473Y-106728444D01*
X164806458Y-106910072D01*
X164805768Y-106916633D01*
X164805768Y-106916635D01*
X164787186Y-107093435D01*
X164786496Y-107100000D01*
X163741891Y-107100000D01*
X163767869Y-101377846D01*
X166316500Y-101377846D01*
X166331548Y-101535566D01*
X166391092Y-101738534D01*
X166393836Y-101743861D01*
X166393836Y-101743862D01*
X166441491Y-101836389D01*
X166487942Y-101926580D01*
X166618604Y-102092920D01*
X166623135Y-102096852D01*
X166623138Y-102096855D01*
X166709058Y-102171412D01*
X166778363Y-102231552D01*
X166783549Y-102234552D01*
X166783553Y-102234555D01*
X166879957Y-102290326D01*
X166961454Y-102337473D01*
X167161271Y-102406861D01*
X167167206Y-102407722D01*
X167167208Y-102407722D01*
X167364664Y-102436352D01*
X167364667Y-102436352D01*
X167370604Y-102437213D01*
X167581899Y-102427433D01*
X167713077Y-102395819D01*
X167781701Y-102379281D01*
X167781703Y-102379280D01*
X167787534Y-102377875D01*
X167792992Y-102375393D01*
X167792996Y-102375392D01*
X167908041Y-102323084D01*
X167980087Y-102290326D01*
X168152611Y-102167946D01*
X168156753Y-102163619D01*
X168156759Y-102163614D01*
X168243806Y-102072683D01*
X168305361Y-102037306D01*
X168376270Y-102040825D01*
X168434021Y-102082121D01*
X168441965Y-102093504D01*
X168476522Y-102149348D01*
X168601697Y-102274305D01*
X168607927Y-102278145D01*
X168607928Y-102278146D01*
X168745090Y-102362694D01*
X168752262Y-102367115D01*
X168777217Y-102375392D01*
X168913611Y-102420632D01*
X168913613Y-102420632D01*
X168920139Y-102422797D01*
X168926975Y-102423497D01*
X168926978Y-102423498D01*
X168965386Y-102427433D01*
X169024600Y-102433500D01*
X169825400Y-102433500D01*
X169828646Y-102433163D01*
X169828650Y-102433163D01*
X169924308Y-102423238D01*
X169924312Y-102423237D01*
X169931166Y-102422526D01*
X169937702Y-102420345D01*
X169937704Y-102420345D01*
X170072443Y-102375392D01*
X170098946Y-102366550D01*
X170249348Y-102273478D01*
X170374305Y-102148303D01*
X170411352Y-102088202D01*
X170463275Y-102003968D01*
X170463276Y-102003966D01*
X170467115Y-101997738D01*
X170522797Y-101829861D01*
X170533500Y-101725400D01*
X170533500Y-100374600D01*
X170522526Y-100268834D01*
X170518749Y-100257511D01*
X170468868Y-100108002D01*
X170466550Y-100101054D01*
X170376169Y-99955000D01*
X182011693Y-99955000D01*
X182030885Y-100174371D01*
X182087880Y-100387076D01*
X182090205Y-100392061D01*
X182178618Y-100581666D01*
X182178621Y-100581671D01*
X182180944Y-100586653D01*
X182184100Y-100591160D01*
X182184101Y-100591162D01*
X182241721Y-100673451D01*
X182307251Y-100767038D01*
X182462962Y-100922749D01*
X182643346Y-101049056D01*
X182842924Y-101142120D01*
X183055629Y-101199115D01*
X183275000Y-101218307D01*
X183494371Y-101199115D01*
X183707076Y-101142120D01*
X183906654Y-101049056D01*
X184087038Y-100922749D01*
X184242749Y-100767038D01*
X184308280Y-100673451D01*
X184365899Y-100591162D01*
X184365900Y-100591160D01*
X184369056Y-100586653D01*
X184371379Y-100581671D01*
X184371382Y-100581666D01*
X184459795Y-100392061D01*
X184462120Y-100387076D01*
X184519115Y-100174371D01*
X184538307Y-99955000D01*
X186861693Y-99955000D01*
X186880885Y-100174371D01*
X186937880Y-100387076D01*
X186940205Y-100392061D01*
X187028618Y-100581666D01*
X187028621Y-100581671D01*
X187030944Y-100586653D01*
X187034100Y-100591160D01*
X187034101Y-100591162D01*
X187091721Y-100673451D01*
X187157251Y-100767038D01*
X187312962Y-100922749D01*
X187493346Y-101049056D01*
X187692924Y-101142120D01*
X187905629Y-101199115D01*
X188125000Y-101218307D01*
X188344371Y-101199115D01*
X188557076Y-101142120D01*
X188756654Y-101049056D01*
X188937038Y-100922749D01*
X189092749Y-100767038D01*
X189158280Y-100673451D01*
X189215899Y-100591162D01*
X189215900Y-100591160D01*
X189219056Y-100586653D01*
X189221379Y-100581671D01*
X189221382Y-100581666D01*
X189309795Y-100392061D01*
X189312120Y-100387076D01*
X189369115Y-100174371D01*
X189388307Y-99955000D01*
X189369115Y-99735629D01*
X189312120Y-99522924D01*
X189268585Y-99429562D01*
X189221382Y-99328334D01*
X189221379Y-99328329D01*
X189219056Y-99323347D01*
X189092749Y-99142962D01*
X188937038Y-98987251D01*
X188756654Y-98860944D01*
X188557076Y-98767880D01*
X188344371Y-98710885D01*
X188125000Y-98691693D01*
X187905629Y-98710885D01*
X187692924Y-98767880D01*
X187599562Y-98811415D01*
X187498334Y-98858618D01*
X187498329Y-98858621D01*
X187493347Y-98860944D01*
X187488840Y-98864100D01*
X187488838Y-98864101D01*
X187317473Y-98984092D01*
X187317470Y-98984094D01*
X187312962Y-98987251D01*
X187157251Y-99142962D01*
X187030944Y-99323347D01*
X187028621Y-99328329D01*
X187028618Y-99328334D01*
X186981415Y-99429562D01*
X186937880Y-99522924D01*
X186880885Y-99735629D01*
X186861693Y-99955000D01*
X184538307Y-99955000D01*
X184519115Y-99735629D01*
X184462120Y-99522924D01*
X184418585Y-99429562D01*
X184371382Y-99328334D01*
X184371379Y-99328329D01*
X184369056Y-99323347D01*
X184242749Y-99142962D01*
X184087038Y-98987251D01*
X183906654Y-98860944D01*
X183707076Y-98767880D01*
X183494371Y-98710885D01*
X183275000Y-98691693D01*
X183055629Y-98710885D01*
X182842924Y-98767880D01*
X182749562Y-98811415D01*
X182648334Y-98858618D01*
X182648329Y-98858621D01*
X182643347Y-98860944D01*
X182638840Y-98864100D01*
X182638838Y-98864101D01*
X182467473Y-98984092D01*
X182467470Y-98984094D01*
X182462962Y-98987251D01*
X182307251Y-99142962D01*
X182180944Y-99323347D01*
X182178621Y-99328329D01*
X182178618Y-99328334D01*
X182131415Y-99429562D01*
X182087880Y-99522924D01*
X182030885Y-99735629D01*
X182011693Y-99955000D01*
X170376169Y-99955000D01*
X170373478Y-99950652D01*
X170248303Y-99825695D01*
X170145826Y-99762527D01*
X170103968Y-99736725D01*
X170103966Y-99736724D01*
X170097738Y-99732885D01*
X169937254Y-99679655D01*
X169936389Y-99679368D01*
X169936387Y-99679368D01*
X169929861Y-99677203D01*
X169923025Y-99676503D01*
X169923022Y-99676502D01*
X169879969Y-99672091D01*
X169825400Y-99666500D01*
X169024600Y-99666500D01*
X169021354Y-99666837D01*
X169021350Y-99666837D01*
X168925692Y-99676762D01*
X168925688Y-99676763D01*
X168918834Y-99677474D01*
X168912298Y-99679655D01*
X168912296Y-99679655D01*
X168789213Y-99720719D01*
X168751054Y-99733450D01*
X168600652Y-99826522D01*
X168475695Y-99951697D01*
X168471855Y-99957927D01*
X168471854Y-99957928D01*
X168443926Y-100003236D01*
X168391154Y-100050729D01*
X168321082Y-100062153D01*
X168255958Y-100033879D01*
X168237582Y-100014955D01*
X168231396Y-100007080D01*
X168226865Y-100003148D01*
X168226862Y-100003145D01*
X168076167Y-99872379D01*
X168071637Y-99868448D01*
X168066451Y-99865448D01*
X168066447Y-99865445D01*
X167893742Y-99765533D01*
X167888546Y-99762527D01*
X167688729Y-99693139D01*
X167682794Y-99692278D01*
X167682792Y-99692278D01*
X167485336Y-99663648D01*
X167485333Y-99663648D01*
X167479396Y-99662787D01*
X167268101Y-99672567D01*
X167136923Y-99704181D01*
X167068299Y-99720719D01*
X167068297Y-99720720D01*
X167062466Y-99722125D01*
X167057008Y-99724607D01*
X167057004Y-99724608D01*
X166941959Y-99776916D01*
X166869913Y-99809674D01*
X166697389Y-99932054D01*
X166551119Y-100084850D01*
X166436380Y-100262548D01*
X166357314Y-100458737D01*
X166316772Y-100666337D01*
X166316500Y-100671899D01*
X166316500Y-101377846D01*
X163767869Y-101377846D01*
X163786427Y-97289906D01*
X163786656Y-97282863D01*
X163806291Y-96958581D01*
X163807928Y-96944587D01*
X163817349Y-96890469D01*
X181562095Y-96890469D01*
X181562392Y-96895622D01*
X181562392Y-96895625D01*
X181568067Y-96994041D01*
X181575427Y-97121697D01*
X181576564Y-97126743D01*
X181576565Y-97126749D01*
X181608741Y-97269523D01*
X181626346Y-97347642D01*
X181628288Y-97352424D01*
X181628289Y-97352428D01*
X181711540Y-97557450D01*
X181713484Y-97562237D01*
X181834501Y-97759719D01*
X181986147Y-97934784D01*
X182164349Y-98082730D01*
X182364322Y-98199584D01*
X182580694Y-98282209D01*
X182585760Y-98283240D01*
X182585761Y-98283240D01*
X182638846Y-98294040D01*
X182807656Y-98328385D01*
X182938324Y-98333176D01*
X183033949Y-98336683D01*
X183033953Y-98336683D01*
X183039113Y-98336872D01*
X183044233Y-98336216D01*
X183044235Y-98336216D01*
X183117270Y-98326860D01*
X183268847Y-98307442D01*
X183273795Y-98305957D01*
X183273802Y-98305956D01*
X183485747Y-98242369D01*
X183490690Y-98240886D01*
X183571236Y-98201427D01*
X183694049Y-98141262D01*
X183694052Y-98141260D01*
X183698684Y-98138991D01*
X183887243Y-98004494D01*
X184051303Y-97841005D01*
X184186458Y-97652917D01*
X184233641Y-97557450D01*
X184286784Y-97449922D01*
X184286785Y-97449920D01*
X184289078Y-97445280D01*
X184356408Y-97223671D01*
X184386640Y-96994041D01*
X184386722Y-96990691D01*
X184388245Y-96928365D01*
X184388245Y-96928361D01*
X184388327Y-96925000D01*
X184385488Y-96890469D01*
X187012095Y-96890469D01*
X187012392Y-96895622D01*
X187012392Y-96895625D01*
X187018067Y-96994041D01*
X187025427Y-97121697D01*
X187026564Y-97126743D01*
X187026565Y-97126749D01*
X187058741Y-97269523D01*
X187076346Y-97347642D01*
X187078288Y-97352424D01*
X187078289Y-97352428D01*
X187161540Y-97557450D01*
X187163484Y-97562237D01*
X187284501Y-97759719D01*
X187436147Y-97934784D01*
X187614349Y-98082730D01*
X187814322Y-98199584D01*
X188030694Y-98282209D01*
X188035760Y-98283240D01*
X188035761Y-98283240D01*
X188088846Y-98294040D01*
X188257656Y-98328385D01*
X188388324Y-98333176D01*
X188483949Y-98336683D01*
X188483953Y-98336683D01*
X188489113Y-98336872D01*
X188494233Y-98336216D01*
X188494235Y-98336216D01*
X188567270Y-98326860D01*
X188718847Y-98307442D01*
X188723795Y-98305957D01*
X188723802Y-98305956D01*
X188935747Y-98242369D01*
X188940690Y-98240886D01*
X189021236Y-98201427D01*
X189144049Y-98141262D01*
X189144052Y-98141260D01*
X189148684Y-98138991D01*
X189337243Y-98004494D01*
X189501303Y-97841005D01*
X189636458Y-97652917D01*
X189683641Y-97557450D01*
X189736784Y-97449922D01*
X189736785Y-97449920D01*
X189739078Y-97445280D01*
X189806408Y-97223671D01*
X189836640Y-96994041D01*
X189836722Y-96990691D01*
X189838245Y-96928365D01*
X189838245Y-96928361D01*
X189838327Y-96925000D01*
X189832032Y-96848434D01*
X189819773Y-96699318D01*
X189819772Y-96699312D01*
X189819349Y-96694167D01*
X189762925Y-96469533D01*
X189760866Y-96464797D01*
X189672630Y-96261868D01*
X189672628Y-96261865D01*
X189670570Y-96257131D01*
X189544764Y-96062665D01*
X189388887Y-95891358D01*
X189384836Y-95888159D01*
X189384832Y-95888155D01*
X189211177Y-95751011D01*
X189211172Y-95751008D01*
X189207123Y-95747810D01*
X189202607Y-95745317D01*
X189202604Y-95745315D01*
X189008879Y-95638373D01*
X189008875Y-95638371D01*
X189004355Y-95635876D01*
X188999486Y-95634152D01*
X188999482Y-95634150D01*
X188790903Y-95560288D01*
X188790899Y-95560287D01*
X188786028Y-95558562D01*
X188780935Y-95557655D01*
X188780932Y-95557654D01*
X188563095Y-95518851D01*
X188563089Y-95518850D01*
X188558006Y-95517945D01*
X188485096Y-95517054D01*
X188331581Y-95515179D01*
X188331579Y-95515179D01*
X188326411Y-95515116D01*
X188097464Y-95550150D01*
X187877314Y-95622106D01*
X187872726Y-95624494D01*
X187872722Y-95624496D01*
X187756714Y-95684886D01*
X187671872Y-95729052D01*
X187667739Y-95732155D01*
X187667736Y-95732157D01*
X187490790Y-95865012D01*
X187486655Y-95868117D01*
X187326639Y-96035564D01*
X187323725Y-96039836D01*
X187323724Y-96039837D01*
X187308152Y-96062665D01*
X187196119Y-96226899D01*
X187098602Y-96436981D01*
X187036707Y-96660169D01*
X187012095Y-96890469D01*
X184385488Y-96890469D01*
X184382032Y-96848434D01*
X184369773Y-96699318D01*
X184369772Y-96699312D01*
X184369349Y-96694167D01*
X184312925Y-96469533D01*
X184310866Y-96464797D01*
X184222630Y-96261868D01*
X184222628Y-96261865D01*
X184220570Y-96257131D01*
X184094764Y-96062665D01*
X183938887Y-95891358D01*
X183934836Y-95888159D01*
X183934832Y-95888155D01*
X183761177Y-95751011D01*
X183761172Y-95751008D01*
X183757123Y-95747810D01*
X183752607Y-95745317D01*
X183752604Y-95745315D01*
X183558879Y-95638373D01*
X183558875Y-95638371D01*
X183554355Y-95635876D01*
X183549486Y-95634152D01*
X183549482Y-95634150D01*
X183340903Y-95560288D01*
X183340899Y-95560287D01*
X183336028Y-95558562D01*
X183330935Y-95557655D01*
X183330932Y-95557654D01*
X183113095Y-95518851D01*
X183113089Y-95518850D01*
X183108006Y-95517945D01*
X183035096Y-95517054D01*
X182881581Y-95515179D01*
X182881579Y-95515179D01*
X182876411Y-95515116D01*
X182647464Y-95550150D01*
X182427314Y-95622106D01*
X182422726Y-95624494D01*
X182422722Y-95624496D01*
X182306714Y-95684886D01*
X182221872Y-95729052D01*
X182217739Y-95732155D01*
X182217736Y-95732157D01*
X182040790Y-95865012D01*
X182036655Y-95868117D01*
X181876639Y-96035564D01*
X181873725Y-96039836D01*
X181873724Y-96039837D01*
X181858152Y-96062665D01*
X181746119Y-96226899D01*
X181648602Y-96436981D01*
X181586707Y-96660169D01*
X181562095Y-96890469D01*
X163817349Y-96890469D01*
X163852394Y-96689156D01*
X163863039Y-96628008D01*
X163866222Y-96614304D01*
X163956337Y-96305835D01*
X163961037Y-96292558D01*
X164085017Y-95996102D01*
X164091171Y-95983428D01*
X164186944Y-95811394D01*
X164247481Y-95702653D01*
X164255002Y-95690760D01*
X164441682Y-95429189D01*
X164450490Y-95418204D01*
X164665197Y-95179121D01*
X164675182Y-95169181D01*
X164915237Y-94955563D01*
X164926269Y-94946801D01*
X165188675Y-94761316D01*
X165200617Y-94753839D01*
X165251493Y-94725818D01*
X165312306Y-94710185D01*
X169697051Y-94711096D01*
G37*
%TD.AperFunction*%
%TA.AperFunction,Conductor*%
G36*
X155887832Y-99431437D02*
G01*
X157529321Y-99447689D01*
X157597241Y-99468365D01*
X157643200Y-99522478D01*
X157652608Y-99592849D01*
X157622477Y-99657134D01*
X157557595Y-99696176D01*
X157455757Y-99720719D01*
X157455755Y-99720720D01*
X157449924Y-99722125D01*
X157444466Y-99724607D01*
X157444462Y-99724608D01*
X157329417Y-99776916D01*
X157257371Y-99809674D01*
X157084847Y-99932054D01*
X156938577Y-100084850D01*
X156823838Y-100262548D01*
X156821595Y-100268114D01*
X156782584Y-100364914D01*
X156744772Y-100458737D01*
X156704230Y-100666337D01*
X156703958Y-100671899D01*
X156703958Y-101377846D01*
X156719006Y-101535566D01*
X156778550Y-101738534D01*
X156781294Y-101743861D01*
X156781294Y-101743862D01*
X156828949Y-101836389D01*
X156875400Y-101926580D01*
X157006062Y-102092920D01*
X157010593Y-102096852D01*
X157010596Y-102096855D01*
X157096516Y-102171412D01*
X157165821Y-102231552D01*
X157171007Y-102234552D01*
X157171011Y-102234555D01*
X157267415Y-102290326D01*
X157348912Y-102337473D01*
X157548729Y-102406861D01*
X157554664Y-102407722D01*
X157554666Y-102407722D01*
X157752122Y-102436352D01*
X157752125Y-102436352D01*
X157758062Y-102437213D01*
X157969357Y-102427433D01*
X158100535Y-102395819D01*
X158169159Y-102379281D01*
X158169161Y-102379280D01*
X158174992Y-102377875D01*
X158180450Y-102375393D01*
X158180454Y-102375392D01*
X158295499Y-102323084D01*
X158367545Y-102290326D01*
X158540069Y-102167946D01*
X158544211Y-102163619D01*
X158544217Y-102163614D01*
X158631264Y-102072683D01*
X158692819Y-102037306D01*
X158763728Y-102040825D01*
X158821479Y-102082121D01*
X158829423Y-102093504D01*
X158863980Y-102149348D01*
X158989155Y-102274305D01*
X158995385Y-102278145D01*
X158995386Y-102278146D01*
X159132548Y-102362694D01*
X159139720Y-102367115D01*
X159164675Y-102375392D01*
X159301069Y-102420632D01*
X159301071Y-102420632D01*
X159307597Y-102422797D01*
X159314433Y-102423497D01*
X159314436Y-102423498D01*
X159352844Y-102427433D01*
X159412058Y-102433500D01*
X160212858Y-102433500D01*
X160216104Y-102433163D01*
X160216108Y-102433163D01*
X160311766Y-102423238D01*
X160311770Y-102423237D01*
X160318624Y-102422526D01*
X160325160Y-102420345D01*
X160325162Y-102420345D01*
X160459901Y-102375392D01*
X160486404Y-102366550D01*
X160636806Y-102273478D01*
X160761763Y-102148303D01*
X160765604Y-102142072D01*
X160850733Y-102003968D01*
X160850734Y-102003966D01*
X160854573Y-101997738D01*
X160910255Y-101829861D01*
X160920958Y-101725400D01*
X160920958Y-100374600D01*
X160918918Y-100354937D01*
X160910696Y-100275692D01*
X160910695Y-100275688D01*
X160909984Y-100268834D01*
X160906207Y-100257511D01*
X160856326Y-100108002D01*
X160854008Y-100101054D01*
X160760936Y-99950652D01*
X160683513Y-99873364D01*
X160652267Y-99842172D01*
X160618188Y-99779889D01*
X160623191Y-99709069D01*
X160665688Y-99652197D01*
X160732187Y-99627328D01*
X160777149Y-99632211D01*
X160811628Y-99642449D01*
X160818830Y-99644587D01*
X160832036Y-99649323D01*
X161126996Y-99774075D01*
X161139592Y-99780251D01*
X161418826Y-99937037D01*
X161430667Y-99944582D01*
X161690733Y-100131468D01*
X161701661Y-100140285D01*
X161939308Y-100354937D01*
X161949187Y-100364914D01*
X162161479Y-100604679D01*
X162170186Y-100615694D01*
X162354486Y-100877593D01*
X162361914Y-100889508D01*
X162515925Y-101170276D01*
X162521982Y-101182943D01*
X162643803Y-101479117D01*
X162648412Y-101492380D01*
X162736521Y-101800259D01*
X162739626Y-101813952D01*
X162792934Y-102129727D01*
X162794496Y-102143679D01*
X162799180Y-102227621D01*
X162812535Y-102466933D01*
X162812731Y-102473953D01*
X162812731Y-138396461D01*
X162812533Y-138403526D01*
X162794396Y-138726502D01*
X162794265Y-138728828D01*
X162792684Y-138742864D01*
X162786275Y-138780581D01*
X162738700Y-139060587D01*
X162735556Y-139074362D01*
X162646337Y-139384047D01*
X162641676Y-139397368D01*
X162554149Y-139608677D01*
X162518346Y-139695114D01*
X162512215Y-139707845D01*
X162356325Y-139989906D01*
X162348807Y-140001870D01*
X162162322Y-140264694D01*
X162153513Y-140275740D01*
X162028451Y-140415685D01*
X161968145Y-140453151D01*
X161897156Y-140452065D01*
X161838024Y-140412772D01*
X161809523Y-140347748D01*
X161808500Y-140331726D01*
X161808500Y-139772154D01*
X161793452Y-139614434D01*
X161733908Y-139411466D01*
X161686872Y-139320139D01*
X161639804Y-139228751D01*
X161639802Y-139228748D01*
X161637058Y-139223420D01*
X161506396Y-139057080D01*
X161501865Y-139053148D01*
X161501862Y-139053145D01*
X161351167Y-138922379D01*
X161346637Y-138918448D01*
X161341451Y-138915448D01*
X161341447Y-138915445D01*
X161168742Y-138815533D01*
X161163546Y-138812527D01*
X160963729Y-138743139D01*
X160957794Y-138742278D01*
X160957792Y-138742278D01*
X160760336Y-138713648D01*
X160760333Y-138713648D01*
X160754396Y-138712787D01*
X160543101Y-138722567D01*
X160430466Y-138749712D01*
X160343299Y-138770719D01*
X160343297Y-138770720D01*
X160337466Y-138772125D01*
X160332008Y-138774607D01*
X160332004Y-138774608D01*
X160240990Y-138815990D01*
X160144913Y-138859674D01*
X159972389Y-138982054D01*
X159826119Y-139134850D01*
X159822870Y-139139881D01*
X159822865Y-139139888D01*
X159804967Y-139167607D01*
X159751211Y-139213984D01*
X159680915Y-139223937D01*
X159616398Y-139194304D01*
X159600030Y-139177091D01*
X159509738Y-139062143D01*
X159501501Y-139053494D01*
X159350877Y-138922788D01*
X159341153Y-138915853D01*
X159168533Y-138815990D01*
X159157669Y-138811016D01*
X158969273Y-138745593D01*
X158968284Y-138745352D01*
X158957992Y-138746820D01*
X158954000Y-138760385D01*
X158954000Y-140228000D01*
X158933998Y-140296121D01*
X158880342Y-140342614D01*
X158828000Y-140354000D01*
X158572000Y-140354000D01*
X158503879Y-140333998D01*
X158457386Y-140280342D01*
X158446000Y-140228000D01*
X158446000Y-138764598D01*
X158442027Y-138751067D01*
X158432601Y-138749712D01*
X158343463Y-138771194D01*
X158332168Y-138775083D01*
X158150618Y-138857629D01*
X158140276Y-138863576D01*
X157977603Y-138978968D01*
X157968575Y-138986761D01*
X157881465Y-139077757D01*
X157819910Y-139113133D01*
X157749000Y-139109614D01*
X157691250Y-139068317D01*
X157683315Y-139056947D01*
X157648478Y-139000652D01*
X157523303Y-138875695D01*
X157517072Y-138871854D01*
X157378968Y-138786725D01*
X157378966Y-138786724D01*
X157372738Y-138782885D01*
X157264005Y-138746820D01*
X157211389Y-138729368D01*
X157211387Y-138729368D01*
X157204861Y-138727203D01*
X157198025Y-138726503D01*
X157198022Y-138726502D01*
X157154969Y-138722091D01*
X157100400Y-138716500D01*
X156299600Y-138716500D01*
X156296354Y-138716837D01*
X156296350Y-138716837D01*
X156200692Y-138726762D01*
X156200688Y-138726763D01*
X156193834Y-138727474D01*
X156187298Y-138729655D01*
X156187296Y-138729655D01*
X156123117Y-138751067D01*
X156026054Y-138783450D01*
X155875652Y-138876522D01*
X155750695Y-139001697D01*
X155746855Y-139007927D01*
X155746854Y-139007928D01*
X155682005Y-139113133D01*
X155657885Y-139152262D01*
X155602203Y-139320139D01*
X155591500Y-139424600D01*
X155591500Y-140775400D01*
X155602474Y-140881166D01*
X155604655Y-140887702D01*
X155604655Y-140887704D01*
X155644029Y-141005722D01*
X155658450Y-141048946D01*
X155750600Y-141197858D01*
X155751522Y-141199348D01*
X155751267Y-141199506D01*
X155776378Y-141261548D01*
X155763206Y-141331312D01*
X155714407Y-141382880D01*
X155650995Y-141400000D01*
X155530604Y-141400000D01*
X155523518Y-141399801D01*
X155197226Y-141381421D01*
X155183143Y-141379829D01*
X154864487Y-141325520D01*
X154850693Y-141322362D01*
X154540134Y-141232605D01*
X154526771Y-141227913D01*
X154228282Y-141103859D01*
X154215522Y-141097693D01*
X153932844Y-140940897D01*
X153920856Y-140933336D01*
X153657577Y-140745788D01*
X153646515Y-140736929D01*
X153405971Y-140521008D01*
X153395973Y-140510963D01*
X153181188Y-140269381D01*
X153172382Y-140258276D01*
X152991564Y-140001870D01*
X152986092Y-139994110D01*
X152978598Y-139982103D01*
X152921656Y-139878283D01*
X152906131Y-139817687D01*
X152906153Y-139312548D01*
X152906733Y-125900000D01*
X159686496Y-125900000D01*
X159706458Y-126089928D01*
X159765473Y-126271556D01*
X159860960Y-126436944D01*
X159988747Y-126578866D01*
X160143248Y-126691118D01*
X160149276Y-126693802D01*
X160149278Y-126693803D01*
X160311681Y-126766109D01*
X160317712Y-126768794D01*
X160411112Y-126788647D01*
X160498056Y-126807128D01*
X160498061Y-126807128D01*
X160504513Y-126808500D01*
X160695487Y-126808500D01*
X160701939Y-126807128D01*
X160701944Y-126807128D01*
X160788888Y-126788647D01*
X160882288Y-126768794D01*
X160888319Y-126766109D01*
X161050722Y-126693803D01*
X161050724Y-126693802D01*
X161056752Y-126691118D01*
X161211253Y-126578866D01*
X161339040Y-126436944D01*
X161434527Y-126271556D01*
X161493542Y-126089928D01*
X161513504Y-125900000D01*
X161493542Y-125710072D01*
X161434527Y-125528444D01*
X161375381Y-125426000D01*
X161358500Y-125363001D01*
X161358500Y-108336999D01*
X161375381Y-108273999D01*
X161431223Y-108177279D01*
X161431224Y-108177278D01*
X161434527Y-108171556D01*
X161493542Y-107989928D01*
X161495495Y-107971351D01*
X161512814Y-107806565D01*
X161513504Y-107800000D01*
X161510527Y-107771676D01*
X161494232Y-107616635D01*
X161494232Y-107616633D01*
X161493542Y-107610072D01*
X161434527Y-107428444D01*
X161339040Y-107263056D01*
X161211253Y-107121134D01*
X161056752Y-107008882D01*
X161050724Y-107006198D01*
X161050722Y-107006197D01*
X160888319Y-106933891D01*
X160888318Y-106933891D01*
X160882288Y-106931206D01*
X160788887Y-106911353D01*
X160701944Y-106892872D01*
X160701939Y-106892872D01*
X160695487Y-106891500D01*
X160504513Y-106891500D01*
X160498061Y-106892872D01*
X160498056Y-106892872D01*
X160411112Y-106911353D01*
X160317712Y-106931206D01*
X160311682Y-106933891D01*
X160311681Y-106933891D01*
X160149278Y-107006197D01*
X160149276Y-107006198D01*
X160143248Y-107008882D01*
X159988747Y-107121134D01*
X159860960Y-107263056D01*
X159765473Y-107428444D01*
X159706458Y-107610072D01*
X159705768Y-107616633D01*
X159705768Y-107616635D01*
X159689473Y-107771676D01*
X159686496Y-107800000D01*
X159687186Y-107806565D01*
X159704506Y-107971351D01*
X159706458Y-107989928D01*
X159765473Y-108171556D01*
X159768776Y-108177278D01*
X159768777Y-108177279D01*
X159824619Y-108273999D01*
X159841500Y-108336999D01*
X159841500Y-125363001D01*
X159824619Y-125426000D01*
X159765473Y-125528444D01*
X159706458Y-125710072D01*
X159686496Y-125900000D01*
X152906733Y-125900000D01*
X152906913Y-121741695D01*
X154462251Y-121741695D01*
X154462548Y-121746848D01*
X154462548Y-121746851D01*
X154468011Y-121841590D01*
X154475110Y-121964715D01*
X154476247Y-121969761D01*
X154476248Y-121969767D01*
X154496119Y-122057939D01*
X154524222Y-122182639D01*
X154608266Y-122389616D01*
X154724987Y-122580088D01*
X154871250Y-122748938D01*
X155043126Y-122891632D01*
X155236000Y-123004338D01*
X155444692Y-123084030D01*
X155449760Y-123085061D01*
X155449763Y-123085062D01*
X155557017Y-123106883D01*
X155663597Y-123128567D01*
X155668772Y-123128757D01*
X155668774Y-123128757D01*
X155881673Y-123136564D01*
X155881677Y-123136564D01*
X155886837Y-123136753D01*
X155891957Y-123136097D01*
X155891959Y-123136097D01*
X156103288Y-123109025D01*
X156103289Y-123109025D01*
X156108416Y-123108368D01*
X156113366Y-123106883D01*
X156317429Y-123045661D01*
X156317434Y-123045659D01*
X156322384Y-123044174D01*
X156522994Y-122945896D01*
X156704860Y-122816173D01*
X156863096Y-122658489D01*
X156922594Y-122575689D01*
X156990435Y-122481277D01*
X156993453Y-122477077D01*
X157092430Y-122276811D01*
X157157370Y-122063069D01*
X157186529Y-121841590D01*
X157188156Y-121775000D01*
X157169852Y-121552361D01*
X157115431Y-121335702D01*
X157026354Y-121130840D01*
X156905014Y-120943277D01*
X156754670Y-120778051D01*
X156750619Y-120774852D01*
X156750615Y-120774848D01*
X156583414Y-120642800D01*
X156583410Y-120642798D01*
X156579359Y-120639598D01*
X156538053Y-120616796D01*
X156488084Y-120566364D01*
X156473312Y-120496921D01*
X156498428Y-120430516D01*
X156525780Y-120403909D01*
X156569603Y-120372650D01*
X156704860Y-120276173D01*
X156863096Y-120118489D01*
X156922594Y-120035689D01*
X156990435Y-119941277D01*
X156993453Y-119937077D01*
X157092430Y-119736811D01*
X157157370Y-119523069D01*
X157186529Y-119301590D01*
X157188156Y-119235000D01*
X157169852Y-119012361D01*
X157115431Y-118795702D01*
X157026354Y-118590840D01*
X156905014Y-118403277D01*
X156754670Y-118238051D01*
X156750619Y-118234852D01*
X156750615Y-118234848D01*
X156583414Y-118102800D01*
X156583410Y-118102798D01*
X156579359Y-118099598D01*
X156538053Y-118076796D01*
X156488084Y-118026364D01*
X156473312Y-117956921D01*
X156498428Y-117890516D01*
X156525780Y-117863909D01*
X156569603Y-117832650D01*
X156704860Y-117736173D01*
X156863096Y-117578489D01*
X156922594Y-117495689D01*
X156990435Y-117401277D01*
X156993453Y-117397077D01*
X157092430Y-117196811D01*
X157157370Y-116983069D01*
X157186529Y-116761590D01*
X157188156Y-116695000D01*
X157169852Y-116472361D01*
X157115431Y-116255702D01*
X157026354Y-116050840D01*
X156905014Y-115863277D01*
X156754670Y-115698051D01*
X156750619Y-115694852D01*
X156750615Y-115694848D01*
X156583414Y-115562800D01*
X156583410Y-115562798D01*
X156579359Y-115559598D01*
X156538053Y-115536796D01*
X156488084Y-115486364D01*
X156473312Y-115416921D01*
X156498428Y-115350516D01*
X156525780Y-115323909D01*
X156569603Y-115292650D01*
X156704860Y-115196173D01*
X156863096Y-115038489D01*
X156922594Y-114955689D01*
X156990435Y-114861277D01*
X156993453Y-114857077D01*
X157092430Y-114656811D01*
X157157370Y-114443069D01*
X157186529Y-114221590D01*
X157188156Y-114155000D01*
X157169852Y-113932361D01*
X157115431Y-113715702D01*
X157026354Y-113510840D01*
X156905014Y-113323277D01*
X156754670Y-113158051D01*
X156750619Y-113154852D01*
X156750615Y-113154848D01*
X156583414Y-113022800D01*
X156583410Y-113022798D01*
X156579359Y-113019598D01*
X156538053Y-112996796D01*
X156488084Y-112946364D01*
X156473312Y-112876921D01*
X156498428Y-112810516D01*
X156525780Y-112783909D01*
X156569603Y-112752650D01*
X156704860Y-112656173D01*
X156863096Y-112498489D01*
X156922594Y-112415689D01*
X156990435Y-112321277D01*
X156993453Y-112317077D01*
X157092430Y-112116811D01*
X157157370Y-111903069D01*
X157186529Y-111681590D01*
X157188156Y-111615000D01*
X157169852Y-111392361D01*
X157115431Y-111175702D01*
X157026354Y-110970840D01*
X156905014Y-110783277D01*
X156901540Y-110779459D01*
X156901533Y-110779450D01*
X156757435Y-110621088D01*
X156726383Y-110557242D01*
X156734779Y-110486744D01*
X156779956Y-110431976D01*
X156806400Y-110418307D01*
X156913052Y-110378325D01*
X156928649Y-110369786D01*
X157030724Y-110293285D01*
X157043285Y-110280724D01*
X157119786Y-110178649D01*
X157128324Y-110163054D01*
X157173478Y-110042606D01*
X157177105Y-110027351D01*
X157182631Y-109976486D01*
X157183000Y-109969672D01*
X157183000Y-109347115D01*
X157178525Y-109331876D01*
X157177135Y-109330671D01*
X157169452Y-109329000D01*
X154485116Y-109329000D01*
X154469877Y-109333475D01*
X154468672Y-109334865D01*
X154467001Y-109342548D01*
X154467001Y-109969669D01*
X154467371Y-109976490D01*
X154472895Y-110027352D01*
X154476521Y-110042604D01*
X154521676Y-110163054D01*
X154530214Y-110178649D01*
X154606715Y-110280724D01*
X154619276Y-110293285D01*
X154721351Y-110369786D01*
X154736946Y-110378324D01*
X154845827Y-110419142D01*
X154902591Y-110461784D01*
X154927291Y-110528345D01*
X154912083Y-110597694D01*
X154892691Y-110624175D01*
X154769200Y-110753401D01*
X154765629Y-110757138D01*
X154639743Y-110941680D01*
X154545688Y-111144305D01*
X154485989Y-111359570D01*
X154462251Y-111581695D01*
X154462548Y-111586848D01*
X154462548Y-111586851D01*
X154468011Y-111681590D01*
X154475110Y-111804715D01*
X154476247Y-111809761D01*
X154476248Y-111809767D01*
X154496119Y-111897939D01*
X154524222Y-112022639D01*
X154608266Y-112229616D01*
X154724987Y-112420088D01*
X154871250Y-112588938D01*
X155043126Y-112731632D01*
X155113595Y-112772811D01*
X155116445Y-112774476D01*
X155165169Y-112826114D01*
X155178240Y-112895897D01*
X155151509Y-112961669D01*
X155111055Y-112995027D01*
X155098607Y-113001507D01*
X155094474Y-113004610D01*
X155094471Y-113004612D01*
X155070247Y-113022800D01*
X154919965Y-113135635D01*
X154765629Y-113297138D01*
X154639743Y-113481680D01*
X154545688Y-113684305D01*
X154485989Y-113899570D01*
X154462251Y-114121695D01*
X154462548Y-114126848D01*
X154462548Y-114126851D01*
X154468011Y-114221590D01*
X154475110Y-114344715D01*
X154476247Y-114349761D01*
X154476248Y-114349767D01*
X154496119Y-114437939D01*
X154524222Y-114562639D01*
X154608266Y-114769616D01*
X154724987Y-114960088D01*
X154871250Y-115128938D01*
X155043126Y-115271632D01*
X155113595Y-115312811D01*
X155116445Y-115314476D01*
X155165169Y-115366114D01*
X155178240Y-115435897D01*
X155151509Y-115501669D01*
X155111055Y-115535027D01*
X155098607Y-115541507D01*
X155094474Y-115544610D01*
X155094471Y-115544612D01*
X155070247Y-115562800D01*
X154919965Y-115675635D01*
X154765629Y-115837138D01*
X154639743Y-116021680D01*
X154545688Y-116224305D01*
X154485989Y-116439570D01*
X154462251Y-116661695D01*
X154462548Y-116666848D01*
X154462548Y-116666851D01*
X154468011Y-116761590D01*
X154475110Y-116884715D01*
X154476247Y-116889761D01*
X154476248Y-116889767D01*
X154496119Y-116977939D01*
X154524222Y-117102639D01*
X154608266Y-117309616D01*
X154724987Y-117500088D01*
X154871250Y-117668938D01*
X155043126Y-117811632D01*
X155113595Y-117852811D01*
X155116445Y-117854476D01*
X155165169Y-117906114D01*
X155178240Y-117975897D01*
X155151509Y-118041669D01*
X155111055Y-118075027D01*
X155098607Y-118081507D01*
X155094474Y-118084610D01*
X155094471Y-118084612D01*
X155070247Y-118102800D01*
X154919965Y-118215635D01*
X154765629Y-118377138D01*
X154639743Y-118561680D01*
X154545688Y-118764305D01*
X154485989Y-118979570D01*
X154462251Y-119201695D01*
X154462548Y-119206848D01*
X154462548Y-119206851D01*
X154468011Y-119301590D01*
X154475110Y-119424715D01*
X154476247Y-119429761D01*
X154476248Y-119429767D01*
X154496119Y-119517939D01*
X154524222Y-119642639D01*
X154608266Y-119849616D01*
X154724987Y-120040088D01*
X154871250Y-120208938D01*
X155043126Y-120351632D01*
X155113595Y-120392811D01*
X155116445Y-120394476D01*
X155165169Y-120446114D01*
X155178240Y-120515897D01*
X155151509Y-120581669D01*
X155111055Y-120615027D01*
X155098607Y-120621507D01*
X155094474Y-120624610D01*
X155094471Y-120624612D01*
X155070247Y-120642800D01*
X154919965Y-120755635D01*
X154765629Y-120917138D01*
X154639743Y-121101680D01*
X154545688Y-121304305D01*
X154485989Y-121519570D01*
X154462251Y-121741695D01*
X152906913Y-121741695D01*
X152907473Y-108802885D01*
X154467000Y-108802885D01*
X154471475Y-108818124D01*
X154472865Y-108819329D01*
X154480548Y-108821000D01*
X155552885Y-108821000D01*
X155568124Y-108816525D01*
X155569329Y-108815135D01*
X155571000Y-108807452D01*
X155571000Y-108802885D01*
X156079000Y-108802885D01*
X156083475Y-108818124D01*
X156084865Y-108819329D01*
X156092548Y-108821000D01*
X157164884Y-108821000D01*
X157180123Y-108816525D01*
X157181328Y-108815135D01*
X157182999Y-108807452D01*
X157182999Y-108180331D01*
X157182629Y-108173510D01*
X157177105Y-108122648D01*
X157173479Y-108107396D01*
X157128324Y-107986946D01*
X157119786Y-107971351D01*
X157043285Y-107869276D01*
X157030724Y-107856715D01*
X156928649Y-107780214D01*
X156913054Y-107771676D01*
X156792606Y-107726522D01*
X156777351Y-107722895D01*
X156726486Y-107717369D01*
X156719672Y-107717000D01*
X156097115Y-107717000D01*
X156081876Y-107721475D01*
X156080671Y-107722865D01*
X156079000Y-107730548D01*
X156079000Y-108802885D01*
X155571000Y-108802885D01*
X155571000Y-107735116D01*
X155566525Y-107719877D01*
X155565135Y-107718672D01*
X155557452Y-107717001D01*
X154930331Y-107717001D01*
X154923510Y-107717371D01*
X154872648Y-107722895D01*
X154857396Y-107726521D01*
X154736946Y-107771676D01*
X154721351Y-107780214D01*
X154619276Y-107856715D01*
X154606715Y-107869276D01*
X154530214Y-107971351D01*
X154521676Y-107986946D01*
X154476522Y-108107394D01*
X154472895Y-108122649D01*
X154467369Y-108173514D01*
X154467000Y-108180328D01*
X154467000Y-108802885D01*
X152907473Y-108802885D01*
X152907581Y-106298134D01*
X157603958Y-106298134D01*
X157610713Y-106360316D01*
X157661843Y-106496705D01*
X157749197Y-106613261D01*
X157865753Y-106700615D01*
X158002142Y-106751745D01*
X158064324Y-106758500D01*
X159760592Y-106758500D01*
X159822774Y-106751745D01*
X159959163Y-106700615D01*
X160075719Y-106613261D01*
X160163073Y-106496705D01*
X160214203Y-106360316D01*
X160220958Y-106298134D01*
X160220958Y-105301866D01*
X160214203Y-105239684D01*
X160163073Y-105103295D01*
X160075719Y-104986739D01*
X159959163Y-104899385D01*
X159822774Y-104848255D01*
X159760592Y-104841500D01*
X158064324Y-104841500D01*
X158002142Y-104848255D01*
X157865753Y-104899385D01*
X157749197Y-104986739D01*
X157661843Y-105103295D01*
X157610713Y-105239684D01*
X157603958Y-105301866D01*
X157603958Y-106298134D01*
X152907581Y-106298134D01*
X152907795Y-101364071D01*
X152917679Y-101315160D01*
X153000839Y-101117780D01*
X153007061Y-101105061D01*
X153165279Y-100823075D01*
X153172897Y-100811126D01*
X153273944Y-100670742D01*
X153361779Y-100548712D01*
X153370694Y-100537691D01*
X153587862Y-100298147D01*
X153597960Y-100288197D01*
X153840651Y-100074574D01*
X153851802Y-100065821D01*
X154116957Y-99880809D01*
X154129020Y-99873364D01*
X154413284Y-99719304D01*
X154426107Y-99713261D01*
X154725874Y-99592108D01*
X154739296Y-99587544D01*
X155050771Y-99500832D01*
X155064620Y-99497804D01*
X155383877Y-99446627D01*
X155397978Y-99445175D01*
X155724484Y-99430020D01*
X155731573Y-99429890D01*
X155887832Y-99431437D01*
G37*
%TD.AperFunction*%
M02*
