M48
; DRILL file {KiCad (6.0.1)} date Sat Aug 20 19:27:39 2022
; FORMAT={-:-/ absolute / metric / decimal}
; #@! TF.CreationDate,2022-08-20T19:27:39-07:00
; #@! TF.GenerationSoftware,Kicad,Pcbnew,(6.0.1)
; #@! TF.FileFunction,MixedPlating,1,2
FMAT,2
METRIC
; #@! TA.AperFunction,Plated,PTH,ComponentDrill
T1C0.250
; #@! TA.AperFunction,Plated,PTH,ViaDrill
T2C0.400
; #@! TA.AperFunction,Plated,PTH,ComponentDrill
T3C0.750
; #@! TA.AperFunction,Plated,PTH,ComponentDrill
T4C1.000
; #@! TA.AperFunction,NonPlated,NPTH,ComponentDrill
T5C1.500
; #@! TA.AperFunction,NonPlated,NPTH,ComponentDrill
T6C1.800
%
G90
G05
T1
X158.912Y-105.8
T2
X155.8Y-107.3
X160.6Y-107.8
X160.6Y-125.9
X160.7Y-135.5
X160.8Y-104.8
X164.4Y-111.4
X165.7Y-107.1
X168.8Y-105.0
X168.8Y-109.2
X170.025Y-109.3
X170.1Y-105.8
X170.5Y-121.3
X172.6Y-123.2
X191.4Y-99.3
X192.665Y-99.335
T3
X156.7Y-140.1
X157.812Y-101.05
X158.7Y-140.1
X159.812Y-101.05
X160.7Y-140.1
X166.7Y-140.1
X167.425Y-101.05
X168.7Y-140.1
X169.425Y-101.05
X170.7Y-140.1
T4
X155.825Y-109.075
X155.825Y-111.615
X155.825Y-114.155
X155.825Y-116.695
X155.825Y-119.235
X155.825Y-121.775
T5
X183.275Y-99.955
X188.125Y-99.955
T6
X182.975Y-96.925
X188.425Y-96.925
T0
M30
