%TF.GenerationSoftware,KiCad,Pcbnew,(6.0.1)*%
%TF.CreationDate,2022-08-20T19:26:56-07:00*%
%TF.ProjectId,frame_board,6672616d-655f-4626-9f61-72642e6b6963,rev?*%
%TF.SameCoordinates,Original*%
%TF.FileFunction,Soldermask,Top*%
%TF.FilePolarity,Negative*%
%FSLAX46Y46*%
G04 Gerber Fmt 4.6, Leading zero omitted, Abs format (unit mm)*
G04 Created by KiCad (PCBNEW (6.0.1)) date 2022-08-20 19:26:56*
%MOMM*%
%LPD*%
G01*
G04 APERTURE LIST*
G04 Aperture macros list*
%AMRoundRect*
0 Rectangle with rounded corners*
0 $1 Rounding radius*
0 $2 $3 $4 $5 $6 $7 $8 $9 X,Y pos of 4 corners*
0 Add a 4 corners polygon primitive as box body*
4,1,4,$2,$3,$4,$5,$6,$7,$8,$9,$2,$3,0*
0 Add four circle primitives for the rounded corners*
1,1,$1+$1,$2,$3*
1,1,$1+$1,$4,$5*
1,1,$1+$1,$6,$7*
1,1,$1+$1,$8,$9*
0 Add four rect primitives between the rounded corners*
20,1,$1+$1,$2,$3,$4,$5,0*
20,1,$1+$1,$4,$5,$6,$7,0*
20,1,$1+$1,$6,$7,$8,$9,0*
20,1,$1+$1,$8,$9,$2,$3,0*%
G04 Aperture macros list end*
%ADD10R,0.250000X0.500000*%
%ADD11R,1.600000X0.900000*%
%ADD12R,3.500000X1.700000*%
%ADD13O,1.800000X1.800000*%
%ADD14O,1.500000X1.500000*%
%ADD15RoundRect,0.250000X-0.350000X-0.625000X0.350000X-0.625000X0.350000X0.625000X-0.350000X0.625000X0*%
%ADD16O,1.200000X1.750000*%
%ADD17RoundRect,0.237500X-0.250000X-0.237500X0.250000X-0.237500X0.250000X0.237500X-0.250000X0.237500X0*%
%ADD18RoundRect,0.237500X0.287500X0.237500X-0.287500X0.237500X-0.287500X-0.237500X0.287500X-0.237500X0*%
%ADD19R,1.560000X0.650000*%
%ADD20RoundRect,0.100000X-0.217500X-0.100000X0.217500X-0.100000X0.217500X0.100000X-0.217500X0.100000X0*%
%ADD21R,2.800000X2.150000*%
%ADD22RoundRect,0.237500X-0.300000X-0.237500X0.300000X-0.237500X0.300000X0.237500X-0.300000X0.237500X0*%
%ADD23RoundRect,0.237500X-0.237500X0.300000X-0.237500X-0.300000X0.237500X-0.300000X0.237500X0.300000X0*%
%ADD24RoundRect,0.237500X0.300000X0.237500X-0.300000X0.237500X-0.300000X-0.237500X0.300000X-0.237500X0*%
%ADD25RoundRect,0.250000X0.350000X0.625000X-0.350000X0.625000X-0.350000X-0.625000X0.350000X-0.625000X0*%
%ADD26R,1.700000X1.700000*%
%ADD27O,1.700000X1.700000*%
G04 APERTURE END LIST*
D10*
X159662458Y-104850000D03*
X159162458Y-104850000D03*
X158662458Y-104850000D03*
X158162458Y-104850000D03*
X158162458Y-106750000D03*
X158662458Y-106750000D03*
X159162458Y-106750000D03*
X159662458Y-106750000D03*
D11*
X158912458Y-105800000D03*
D12*
X195490000Y-96795000D03*
X195490000Y-99335000D03*
X195490000Y-101875000D03*
X195490000Y-104415000D03*
X195490000Y-106955000D03*
X195490000Y-109495000D03*
X195490000Y-112035000D03*
X195490000Y-114575000D03*
X195490000Y-117115000D03*
X195490000Y-119655000D03*
X195490000Y-122195000D03*
X195490000Y-124735000D03*
X195490000Y-127275000D03*
X195490000Y-129815000D03*
X195490000Y-132355000D03*
X195490000Y-134895000D03*
X195490000Y-137435000D03*
X195490000Y-139975000D03*
X195490000Y-142515000D03*
X195490000Y-145055000D03*
X175910000Y-145055000D03*
X175910000Y-142515000D03*
X175910000Y-139975000D03*
X175910000Y-137435000D03*
X175910000Y-134895000D03*
X175910000Y-132355000D03*
X175910000Y-129815000D03*
X175910000Y-127275000D03*
X175910000Y-124735000D03*
X175910000Y-122195000D03*
X175910000Y-119655000D03*
X175910000Y-117115000D03*
X175910000Y-114575000D03*
X175910000Y-112035000D03*
X175910000Y-109495000D03*
X175910000Y-106955000D03*
X175910000Y-104415000D03*
X175910000Y-101875000D03*
X175910000Y-99335000D03*
X175910000Y-96795000D03*
D13*
X182975000Y-96925000D03*
D14*
X188125000Y-99955000D03*
X183275000Y-99955000D03*
D13*
X188425000Y-96925000D03*
D15*
X166700000Y-140100000D03*
D16*
X168700000Y-140100000D03*
X170700000Y-140100000D03*
D17*
X154975000Y-134300000D03*
X156800000Y-134300000D03*
X154987500Y-132400000D03*
X156812500Y-132400000D03*
D18*
X156700000Y-128200000D03*
X154950000Y-128200000D03*
X156800000Y-130300000D03*
X155050000Y-130300000D03*
D19*
X167125000Y-105900000D03*
X167125000Y-104950000D03*
X167125000Y-104000000D03*
X164425000Y-104000000D03*
X164425000Y-105900000D03*
X164425000Y-110200000D03*
X164425000Y-108300000D03*
X167125000Y-108300000D03*
X167125000Y-109250000D03*
X167125000Y-110200000D03*
D20*
X158497458Y-103600000D03*
X159312458Y-103600000D03*
D21*
X160700000Y-128645000D03*
X160700000Y-133555000D03*
D22*
X155762500Y-106000000D03*
X154037500Y-106000000D03*
D23*
X162200000Y-104600000D03*
X162200000Y-106325000D03*
D24*
X171862500Y-107700000D03*
X170137500Y-107700000D03*
D22*
X154037500Y-104200000D03*
X155762500Y-104200000D03*
D23*
X162200000Y-108437500D03*
X162200000Y-110162500D03*
D24*
X171862500Y-104100000D03*
X170137500Y-104100000D03*
D25*
X169425000Y-101050000D03*
D16*
X167425000Y-101050000D03*
D15*
X156700000Y-140100000D03*
D16*
X158700000Y-140100000D03*
X160700000Y-140100000D03*
D26*
X155825000Y-109075000D03*
D27*
X155825000Y-111615000D03*
X155825000Y-114155000D03*
X155825000Y-116695000D03*
X155825000Y-119235000D03*
X155825000Y-121775000D03*
D25*
X159812458Y-101050000D03*
D16*
X157812458Y-101050000D03*
M02*
